<svg width="32" height="97" fill="none" xmlns="http://www.w3.org/2000/svg"><path d="M16 61V0" stroke="url(#paint0_linear_566_1691)"/><path d="M2.464 88c-.032 0-.048-.032-.048-.096s.01-.096.032-.096c.448 0 .773-.027.976-.08.213-.053.357-.155.432-.304.075-.16.112-.4.112-.72v-7.408c.01-.373-.037-.619-.144-.736-.107-.128-.31-.192-.608-.192h-.208c-.363 0-.72.117-1.072.352-.352.224-.65.528-.896.912a2.82 2.82 0 00-.448 1.232c0 .021-.027.032-.08.032a.301.301 0 01-.096-.016c-.021-.021-.027-.037-.016-.048.053-.405.133-1.467.24-3.184 0-.032.027-.048.08-.048.032 0 .059.005.08.016.032.01.048.027.048.048 0 .224.24.336.72.336.864.032 1.947.048 3.248.048.587 0 1.243-.01 1.968-.032L7.904 78c.352 0 .608-.027.768-.08a.44.44 0 00.304-.32c.021-.032.059-.043.112-.032.064 0 .09.021.08.064-.032.47-.064 1.061-.096 1.776a19.685 19.685 0 00-.032 1.424c0 .032-.032.048-.096.048-.085 0-.128-.021-.128-.064 0-.437-.101-.843-.304-1.216a2.278 2.278 0 00-.816-.896 2 2 0 00-1.12-.336h-.208c-.213 0-.368.027-.464.08-.085.053-.139.144-.16.272-.021.117-.037.32-.048.608l.016 7.376c0 .33.032.57.096.72.075.15.213.25.416.304.203.053.533.08.992.08.032 0 .048.032.048.096S7.248 88 7.216 88a20.2 20.2 0 01-.928-.016l-1.456-.016-1.376.016c-.235.01-.565.016-.992.016zm13.216.192c-1.014 0-1.91-.23-2.688-.688a4.795 4.795 0 01-1.808-1.856c-.416-.79-.624-1.664-.624-2.624 0-.981.23-1.867.688-2.656a5.015 5.015 0 011.92-1.856c.821-.459 1.744-.688 2.768-.688 1.034 0 1.946.224 2.736.672a4.549 4.549 0 011.824 1.824c.437.768.656 1.627.656 2.576 0 1.056-.25 1.99-.752 2.8a5.006 5.006 0 01-2 1.856 5.873 5.873 0 01-2.72.64zm.672-.416c.586 0 1.098-.16 1.536-.48.448-.32.794-.773 1.04-1.36.245-.597.368-1.296.368-2.096a7.68 7.68 0 00-.496-2.768c-.33-.864-.795-1.557-1.392-2.08-.598-.523-1.28-.784-2.048-.784-.587 0-1.104.16-1.552.48-.448.32-.795.779-1.04 1.376-.246.587-.368 1.28-.368 2.08 0 .96.165 1.877.496 2.752.33.864.794 1.563 1.392 2.096.608.523 1.296.784 2.064.784zm6.773.224c-.032 0-.048-.032-.048-.096s.016-.096.048-.096c.331 0 .571-.027.72-.08a.48.48 0 00.304-.304c.054-.16.08-.4.08-.72v-7.408c0-.32-.032-.555-.096-.704a.48.48 0 00-.32-.304c-.149-.064-.378-.096-.688-.096-.032 0-.048-.032-.048-.096s.016-.096.048-.096l.784.016c.448.021.822.032 1.12.032.416 0 .88-.021 1.392-.064.363-.021.603-.032.72-.032 1.131 0 2.048.23 2.752.688.715.459 1.072 1.12 1.072 1.984 0 .704-.192 1.296-.576 1.776a3.51 3.51 0 01-1.44 1.072 4.737 4.737 0 01-1.728.336c-.32 0-.57-.027-.752-.08-.021 0-.032-.037-.032-.112 0-.053.006-.101.016-.144.022-.053.043-.075.064-.064.139.043.31.064.512.064.598 0 1.088-.208 1.472-.624.395-.427.592-1.061.592-1.904 0-.544-.106-1.013-.32-1.408a2.357 2.357 0 00-.832-.928 1.915 1.915 0 00-1.056-.32c-.373 0-.624.07-.752.208-.117.128-.181.405-.192.832l.016 7.376c0 .32.027.555.08.704.064.15.166.256.304.32.15.053.379.08.688.08.032 0 .048.032.048.096.011.064-.005.096-.048.096-.341 0-.608-.005-.8-.016l-1.152-.016-1.136.016c-.202.01-.474.016-.816.016z" fill="#DCCA87"/><defs><linearGradient id="paint0_linear_566_1691" x1="44.504" y1="-11.857" x2="44.504" y2="78.293" gradientUnits="userSpaceOnUse"><stop stop-color="#DCCA87"/><stop offset=".43" stop-color="#DCCA87"/><stop offset=".927" stop-color="#DCCA87" stop-opacity=".24"/></linearGradient></defs></svg>