<svg width="79" height="69" fill="none" xmlns="http://www.w3.org/2000/svg"><path d="M20.655 63.25c.603-.757.301-.757 1.206-1.816h-.302c-.15.151-.301.303-.452.605a1.15 1.15 0 01-.754.303c-.15 0-.452 0-.603-.152-.301-.15-.452-.15-.754-.302l-.904 1.362c.754.302 1.96.907 2.563 0zm1.357-3.027c-.151.303-.151.454-.151.605h.302c.15-1.059.452-1.059.603-1.815.301-1.06-.603-1.513-1.056-1.967l-.904 1.361c.301.152.452.303.603.454l.452.454c.15.454.15.757.15.908zm1.808 3.935c-.753-.303-1.507 0-2.11.454-.603.605-.905 1.361-.754 2.42 0 0 .15-.302.452-.756.302-.303.603-.757 1.206-.757.905 0 2.714.908 3.317-.302.452-.757.15-.908.905-1.967l-.302-.152c-.15.152-.301.303-.452.606-.15.302-.302.302-.754.454-.452.302-.904.15-1.508 0zm3.317-3.178c0-.605-.301-1.06-.753-1.362-.151-.151-.453-.303-.603-.454-.151-.151-.453-.303-.453-.454-.301-.303-.301-.757-.15-1.21.15-.455.301-.757.301-.757-.754.605-1.055 1.362-1.206 2.118 0 .757.302 1.514.904 1.665.604.151.905.454 1.207.605.301.303.301.454.301.757v.605l.302.151c-.151-.908 0-.908.15-1.664zm1.96 4.691c-.452-.151-.753 0-1.206.151-.301.152-.603.454-.904.757-.453.605-.603 1.513-.302 2.421 0 0 0-.302.302-.757.15-.453.452-.756 1.055-.907h1.659c.602 0 1.206-.152 1.356-.908.302-.908 0-.908.453-2.119h-.302c0 .152-.15.303-.301.757 0 .302-.302.454-.604.605h-1.206zm2.714-3.782c0-.606-.452-.908-.904-1.21-.302-.152-.453-.152-.754-.303-.301-.152-.452-.152-.603-.303-.302-.303-.302-.757-.302-1.21 0-.455.151-.757.151-.757-.603.756-.904 1.664-.754 2.42 0 .303.151.757.302 1.06.15.303.452.454.905.605.602.151.904.303 1.206.454.301.151.452.454.452.605v.606h.301c-.15-1.06 0-1.21 0-1.967zM5.729 47.512c.905-.151.754-.454 1.96-.605l-.15-.303c-.152 0-.453 0-.755.152-.301 0-.452 0-.753-.303-.302-.303-.453-.757-.754-1.362l-1.508.605c.15.454.452.908.754 1.21.301.455.754.606 1.206.606zM8.594 46c-.302.15-.452.302-.452.302l.15.303c.905-.757 1.056-.454 1.659-1.06.452-.302.603-.605.603-1.059 0-.454-.15-.756-.15-1.21l-1.509.605c.151.605.302.908.302 1.362-.302.302-.302.605-.603.756zm-1.056 4.085c-.452-.757-1.206-1.06-1.96-1.06s-1.658.455-2.11 1.363c0 0 .301-.152.753-.303.453-.151.905-.151 1.357.151l.603.606c.151.302.302.454.603.756.453.454.905.757 1.508.605.754-.302.754-.605 1.96-.907l-.15-.303c-.152 0-.453.151-.755.303-.301.15-.452 0-.754-.152-.301 0-.753-.454-1.055-1.059zm4.674-.302c.452-.454.452-.908.302-1.513-.151-.303-.151-.454-.302-.757-.15-.302-.15-.454-.15-.605 0-.454.3-.757.753-1.06.302-.302.754-.453.754-.453-.905 0-1.81.302-2.262.908-.603.605-.753 1.21-.452 1.967.302.454.452.908.452 1.21 0 .303 0 .606-.301.757l-.452.454.15.303c.754-.757.905-.606 1.508-1.21zm-1.508 4.841c-.603-.605-1.357-.908-2.11-.605-.453.151-.754.302-1.056.605-.302.303-.603.605-.754 1.21 0 0 .302-.302.754-.453.452-.152.905-.303 1.357 0 .452.302.904.756 1.357 1.21.452.454 1.055.605 1.658.303.754-.454.603-.605 1.659-1.21l-.151-.152c-.151 0-.302.151-.603.454-.603-.151-1.357-.303-2.111-1.362zm4.372-1.058c.452-.605.302-1.06 0-1.513-.15-.454-.603-.908-.603-1.21 0-.455.15-.909.452-1.211.302-.303.603-.454.603-.454-.452.151-.904.302-1.206.454-.301.151-.603.454-.904.756-.151.303-.302.605-.302 1.06 0 .302 0 .756.302.907.301.454.603.908.603 1.21.15.303 0 .606-.151.758-.15.15-.301.453-.301.453l.15.152c.754-.908.905-.757 1.357-1.362zm-.603 4.992c-.301-.303-.603-.454-1.055-.454-.302 0-.754 0-1.055.151-.754.303-1.357 1.06-1.508 1.967 0 0 .301-.302.603-.454.302-.302.905-.453 1.357-.302.15 0 .452.151.754.454.301.151.603.302.753.454.302.151.604.302.905.302.302 0 .603 0 .754-.302.603-.606.452-.757 1.508-1.513l-.302-.152a2.06 2.06 0 01-.603.454c-.302.303-1.055.303-2.11-.605zm4.222-1.815c.15-.303.15-.605.15-.757 0-.302-.15-.453-.3-.605-.151-.151-.302-.454-.453-.605-.15-.151-.301-.303-.301-.605-.151-.454 0-.908.301-1.21.302-.303.452-.606.452-.606-.904.303-1.507.908-1.809 1.665-.15.302-.301.756-.15 1.059 0 .302.15.605.452.907.904.757 1.055 1.362.904 1.816-.15.303-.15.454-.301.606l.301.15c.151-1.21.302-1.058.754-1.815z" fill="#F5EFDB"/><path d="M15.679 64.157s.15-.302.452-.605c.302-.303.754-.605 1.206-.454.151 0 .453.151.754.151l.905-1.361c-.302-.152-.754-.303-1.055-.303-.302 0-.754.151-1.056.303-.754.454-1.357 1.21-1.206 2.27zm6.032-9.381c-.754.454-1.358 1.21-1.508 1.967a1.297 1.297 0 000 1.06c.15.302.301.605.603.756l.905-1.362-.453-.454c-.15-.303 0-.908.151-1.21a6.36 6.36 0 01.302-.757zm-4.223 3.481l-.15-.151c-.151 0-.302-.152-.453-.303-.301-.303-.754-.605-1.206-1.06l-.603-.605-.603-.605-.452-.454-.15-.151-.152-.151s-.15-.152-.452-.606c-.301-.302-.754-.756-1.055-1.21-.151-.303-.302-.454-.603-.757l-.302-.302c0-.152-.15-.152-.15-.303a2.623 2.623 0 01-.453-.605l-.15-.303s-.152-.303-.453-.605c-.15-.152-.302-.454-.452-.605-.151-.303-.302-.454-.453-.757 0-.151-.15-.303-.15-.454 0-.151-.151-.303-.151-.454-.15-.303-.302-.454-.302-.757-.15-.15-.15-.302-.15-.453 0-.152-.151-.152-.151-.152l-.15-.302s0-.152-.152-.303c-.15-.151-.15-.454-.301-.605-.151-.303-.151-.454-.302-.606 0-.15-.15-.302-.15-.302l-.453.151s0 .151.15.303c0 .151.152.454.302.756.151.303.151.454.302.606a.47.47 0 01.15.302l.152.303.15.151c0 .151.151.303.302.454.15.151.15.454.301.757 0 .151.151.302.151.454 0 .15.15.302.15.454.152.302.302.605.453.756.15.303.302.454.452.605.151.152.151.303.302.454 0 .152.15.152.15.152l.152.302s.15.303.452.606c.15.15.301.453.452.605.15.302.302.454.603.756.452.454.754.908 1.056 1.362.301.303.452.605.452.605l.15.152.151.151.453.454.603.605.603.606c.452.453.904.756 1.357 1.059.15.151.301.302.452.302l.15.152.302.151.302.303c.15.151.452.302.754.605a8.915 8.915 0 001.206.756l.301-.454s-.603-.302-1.206-.756c-.301-.151-.603-.303-.754-.605l-.301-.303-.453-.151zM4.372 25.724c.754.454.905.151 1.96.908l.15-.303c-.15-.151-.3-.303-.602-.454-.151-.151-.302-.303-.452-.757 0-.302 0-.907.301-1.513L4.221 23c-.15.454-.301.908-.301 1.513-.15.454 0 .908.452 1.21zm3.166.756h-.603l-.15.303c1.055 0 1.055.303 1.96.303.451 0 .904-.151 1.054-.454.302-.303.453-.605.604-1.06l-1.508-.605c-.15.606-.452.908-.603 1.211a1.15 1.15 0 01-.754.303zM4.07 28.902c.152-.454 0-.757-.15-1.21-.15-.303-.452-.606-.754-.909-.603-.454-1.507-.605-2.412-.302 0 0 .302 0 .754.302.452.152.754.454.905 1.06v1.664c0 .605.15 1.21.904 1.362.905.303.905 0 2.11.454v-.303c-.15 0-.3-.151-.753-.302-.302 0-.452-.303-.452-.606-.151 0-.302-.605-.151-1.21zm3.77 2.723c.602 0 .904-.454 1.205-.907.151-.303.151-.454.302-.757.15-.303.15-.454.301-.605.302-.303.754-.303 1.207-.303.452 0 .753.151.753.151-.753-.605-1.507-.908-2.412-.756-.452 0-.754.151-1.055.302-.302.152-.452.454-.603.908a5.117 5.117 0 01-.453 1.21c-.15.303-.452.455-.603.455H5.88v.302c1.056-.15 1.056.152 1.96 0zm-4.222 2.724c0-.757-.452-1.513-1.206-1.816-.754-.302-1.658-.454-2.412.151 0 0 .302 0 .754.152.452.151.904.303 1.055.908.15.151.15.454.15.756 0 .303.152.606.152.908.15.605.452 1.21 1.055 1.21.905.152.905-.15 2.11.152v-.303c-.15 0-.452-.15-.753-.15-.302 0-.452-.152-.603-.606-.302-.151-.302-.605-.302-1.362zm4.071 2.118c.603-.152.904-.606 1.055-1.06 0-.302.15-.453.15-.756s.152-.454.152-.605c.15-.303.754-.454 1.055-.606h.754c-.754-.454-1.659-.605-2.412-.454-.754.152-1.206.757-1.357 1.514 0 .605-.151 1.059-.302 1.361a1.18 1.18 0 01-.603.606c-.301 0-.452.151-.603.151v.303c1.206-.606 1.357-.303 2.11-.454zM3.92 39.795c0-.454-.302-.756-.452-1.059-.302-.303-.603-.454-.905-.605-.754-.151-1.658-.151-2.412.605h.754c.452 0 .904.151 1.206.605.301.454.301 1.06.603 1.665.301.605.603 1.059 1.206 1.059.905 0 .905-.303 2.11-.151v-.302h-.753c-.302 0-.452-.152-.754-.455-.15-.151-.15-.302-.301-.605-.151-.151-.151-.454-.302-.757zm4.523 1.362c.603-.302.753-.756.753-1.21 0-.454 0-1.06.151-1.362.15-.454.603-.605 1.056-.757.452-.15.753-.15.753-.15-.904-.303-1.809-.303-2.412 0-.301.15-.603.453-.754.604-.15.303-.301.606-.15 1.06v1.361c-.151.303-.302.606-.453.606-.301.151-.452.151-.603.302v.303c.754-.605.905-.454 1.659-.757zM1.358 44.79s.301-.152.753-.152c.453 0 .905 0 1.357.454.151.151.302.303.453.605l1.507-.605c-.15-.454-.301-.756-.603-.908-.15-.151-.301-.151-.452-.302-.15 0-.302-.152-.603-.152-.905 0-1.81.303-2.412 1.06zm10.552-3.177c-.904-.151-1.809 0-2.412.454-.15.151-.301.303-.452.303-.15.15-.15.302-.302.454-.15.302-.15.605 0 1.059l1.508-.605v-.606a1.36 1.36 0 01.905-.908c.452 0 .754-.151.754-.151z" fill="#F5EFDB"/><path d="M6.483 41.46s0-.303-.15-.757c-.151-.454-.151-1.059-.302-1.664 0-.303-.151-.605-.151-.908 0-.303 0-.605-.15-.757v-3.48c0-.605 0-1.21.15-1.664v-1.059s0-.303.15-.757c0-.151 0-.454.152-.757 0-.302.15-.605.15-.907 0-.152 0-.303.151-.454 0-.152 0-.303.15-.454 0-.303.152-.606.152-.757 0-.151.15-.454.15-.454v-.151l.151-.303s0-.151.15-.302c0-.152 0-.152.152-.303 0-.151.15-.303.15-.303l.302-.908-.452-.15s-.151.453-.302 1.058c-.15.303-.15.454-.15.757 0 .151-.151.302-.151.302l-.151.303v.151c0 .152-.15.303-.15.606 0 .151-.152.454-.152.756 0 .152 0 .303-.15.454 0 .152 0 .303-.151.454 0 .303-.151.605-.151.908 0 .303-.15.605-.15.757 0 .454-.152.756-.152.756v1.059c0 .454 0 1.06-.15 1.665v3.48c0 .151 0 .454.15.757 0 .302 0 .605.151.908.151.605.151 1.21.302 1.664.15.454.15.757.15.757v.302s.151.605.302 1.362c.15.605.452 1.362.452 1.362l.453-.151s-.151-.606-.453-1.362c-.15-.606-.301-1.362-.301-1.362s-.15-.151-.15-.454c0 .151 0 0 0 0zM17.338 8.171c.301.757.603.757.904 1.967l.302-.151c0-.152-.15-.454-.302-.757-.15-.302 0-.454.151-.756.151-.303.603-.606 1.206-.908l-.753-1.513c-.151.15-.453.302-.604.454l-.452.453c-.452.303-.603.757-.452 1.211zm1.96 2.573l-.452-.454-.302.151c.754.757.604.908 1.206 1.513.302.303.754.454 1.056.303.15 0 .452-.151.603-.151.15 0 .302-.152.603-.152l-.754-1.513c-.452.303-.904.454-1.206.454-.302.152-.603 0-.754-.151zm-4.222-.304c.604-.605.905-1.361.604-2.118-.151-.454-.302-.757-.604-1.06-.301-.302-.603-.604-1.206-.756 0 0 .302.303.453.757.15.454.301.908 0 1.362-.302.454-.754.908-1.206 1.361-.453.454-.604 1.06-.302 1.665.452.757.603.605 1.206 1.664l.151-.15c0-.152-.15-.304-.452-.606.15-.605.301-1.21 1.356-2.119zm1.056 4.539c.603.454 1.055.303 1.507 0 .453-.151.905-.605 1.207-.605.452 0 .753.15 1.206.454.301.302.452.605.452.605-.15-.454-.302-.908-.452-1.21-.151-.303-.453-.606-.754-.909-.302-.15-.603-.302-1.055-.302-.302 0-.754 0-.905.302-.452.303-.905.606-1.206.606-.302.15-.603 0-.754-.152-.15-.151-.452-.302-.452-.302l-.151.151c.754.605.754.757 1.357 1.362zm-4.975-.756c.301-.302.452-.605.452-1.059 0-.303 0-.756-.15-1.06-.302-.756-1.056-1.36-1.96-1.512 0 0 .3.302.451.605.302.303.453.908.302 1.362 0 .151-.15.454-.452.757-.151.302-.302.605-.453.756-.15.303-.301.605-.301.908 0 .303 0 .605.301.756.603.606.754.454 1.508 1.514l.15-.303c-.15-.151-.3-.303-.452-.605-.452-.303-.301-1.06.604-2.119zm1.809 4.237c.301.151.603.151.754.151.301 0 .452-.15.603-.302.15-.152.452-.303.603-.454.15-.152.301-.303.603-.303.452-.151.904 0 1.206.303.302.302.603.454.603.454-.302-.908-.905-1.513-1.658-1.816-.302-.151-.754-.303-1.056-.151-.301 0-.603.151-.904.454-.754.907-1.357 1.059-1.81.907-.301-.15-.452-.15-.603-.302l-.15.302c1.206.152 1.055.454 1.809.757zm-4.976.303c.151-.303.302-.757.302-1.06 0-.302-.15-.756-.302-1.058-.452-.606-1.206-1.21-2.261-1.06 0 0 .302.152.603.454.302.303.603.757.452 1.21 0 .455-.452 1.06-.603 1.665-.15.606-.15 1.21.302 1.665.754.605.754.302 1.809 1.21v-.302a2.06 2.06 0 00-.603-.454 1.158 1.158 0 01-.302-.757c0-.151 0-.454.151-.605.15-.454.302-.605.452-.908zm2.564 3.782c.603.152 1.055-.15 1.357-.454.301-.302.603-.907.904-1.059.302-.151.905-.151 1.206.152.453.15.754.453.754.453-.452-.756-1.206-1.361-1.96-1.513a1.283 1.283 0 00-1.055 0c-.302.152-.603.303-.754.606-.15.302-.301.454-.452.605l-.453.454c-.301.151-.603.302-.753.151-.302-.151-.453-.151-.603-.151v.302c1.055 0 .904.152 1.809.454zm-7.84-1.663s.301.151.754.454c.301.302.754.605.754 1.21 0 .151 0 .454-.151.757l1.507.605c.302-.757 0-1.513-.452-2.119-.603-.756-1.357-1.21-2.412-.907zm10.101 4.388c-.603-.757-1.357-1.06-2.11-1.21-.755 0-1.508.302-1.66.907l1.508.605c.151-.151.302-.302.302-.454.302-.302.754-.302 1.206-.151.453.151.754.303.754.303z" fill="#F5EFDB"/><path d="M8.744 21.638l.302-.605c.15-.454.452-.908.754-1.513.301-.454.603-1.06.904-1.362.302-.303.453-.606.453-.606l.15-.302.151-.151c0-.152.151-.303.302-.454.301-.303.603-.757 1.055-1.21l.603-.606c.15-.152.452-.454.603-.605l.452-.454.151-.152.151-.151s.15-.151.603-.454c.302-.303.754-.756 1.206-1.06.302-.15.453-.302.754-.604.15-.152.15-.152.302-.303.15 0 .15-.151.301-.151.302-.303.603-.454.603-.454l.302-.152.904-.605c.151 0 .151-.151.302-.151.15 0 .15-.151.301-.151.151-.152.302-.152.302-.152l-.302-.454s-.15 0-.301.152c-.151 0-.151.15-.302.15-.15 0-.15.152-.301.152-.151.151-.453.303-.603.454-.151.151-.302.151-.302.151l-.301.152s-.302.151-.603.454c-.151.151-.453.302-.604.454-.301.151-.452.302-.753.605-.453.454-.905.757-1.207 1.06a2.603 2.603 0 01-.603.453l-.15.151-.151.152-.452.454c-.151.15-.302.302-.603.605l-.604.605c-.452.454-.753.908-1.055 1.362-.15.151-.301.303-.301.454l-.151.151-.15.303s-.152.302-.453.605c-.15.151-.302.454-.452.605-.151.303-.302.454-.453.757-.301.454-.603 1.06-.904 1.513-.151.454-.302.605-.302.605v.303s0 .151-.15.454L7.688 23c-.15.302-.301.605-.301.908 0 .151-.151.151-.151.302v.152l.452.151v-.151s0-.152.15-.303c.152-.303.302-.605.302-.908l.453-.908c.15-.302.15-.454.15-.454v-.151zM29.851 3.783a7.5 7.5 0 001.056-.454c.301-.303.452-.605.602-.908.151-.757.151-1.665-.602-2.421v.756c0 .454-.151.908-.604 1.211-.452.303-1.055.303-1.658.605-.603.303-1.055.605-1.055 1.21 0 .909.301.909.15 2.12h.302v-.757c0-.303.15-.454.452-.757.151-.151.302-.151.603-.303a1.15 1.15 0 01.754-.302zM28.494 8.17c.302.606.754.757 1.206.757.453 0 1.056 0 1.357.152.452.15.603.605.754 1.059.15.454.15.756.15.756.302-.908.302-1.815 0-2.42-.15-.303-.452-.606-.602-.757-.302-.152-.604-.303-1.056-.152h-1.357c-.301-.15-.603-.302-.603-.454-.15-.302-.15-.453-.301-.605h-.301c.602.757.451.908.753 1.665zm-3.919-3.026c.452-.151.753-.303.904-.605.151-.152.151-.303.302-.454 0-.151.15-.303.15-.605.151-.757-.15-1.665-1.055-2.27 0 0 .151.302.151.756s0 .908-.452 1.362c-.151.152-.453.303-.754.454l-.905.454c-.603.303-.904.757-.754 1.513.151.908.453.757.604 1.967l.301-.15c0-.152 0-.455-.15-.757 0-.303 0-.454.3-.757.302-.454.755-.757 1.358-.908zm-.604 4.541c.302.605.905.605 1.357.605.302 0 .453-.151.754-.151h.603c.452.151.754.454.905.908.15.454.301.756.301.756.151-.908 0-1.815-.452-2.42-.15-.152-.302-.303-.302-.455-.15-.151-.301-.151-.452-.302-.301-.152-.603-.152-1.055 0-.603.151-.905.302-1.357.302a1.15 1.15 0 01-.754-.302c-.15-.303-.301-.454-.301-.454l-.302.151c.754.605.603.757 1.055 1.362zm-4.824-6.356s.15.303.301.757c.15.454.15.907-.15 1.361a2.067 2.067 0 01-.604.454l.754 1.514c.754-.454 1.055-1.211 1.055-1.968 0-.756-.452-1.664-1.356-2.118zm4.975 9.988c0-.908-.301-1.816-.904-2.27-.603-.605-1.206-.756-1.96-.454l.754 1.513c.15 0 .452-.151.603-.151.452 0 .754.303 1.055.757.302.15.452.605.452.605zm8.443 50.538H31.51s-.302 0-.754-.151c-.151 0-.453 0-.754-.152-.302 0-.603-.151-.905-.151-.15 0-.301 0-.452-.151-.15 0-.302 0-.452-.152-.302 0-.603-.151-.754-.151-.15 0-.452-.151-.452-.151h-.151l-.302-.152h-.15c-.151 0-.302-.15-.453-.15-.15 0-.452-.152-.754-.304-.301-.15-.603-.15-.753-.302a10.377 10.377 0 00-1.508-.605 6.324 6.324 0 01-.754-.303h-.301s-.453-.303-.905-.454c-.301-.151-.452-.303-.603-.303-.15-.151-.302-.151-.302-.151l-.301.454s.15 0 .302.151c.15.152.452.303.603.303.452.303.904.454.904.454h.302s.301.151.753.303c.453.15 1.056.453 1.508.605.302.151.603.151.905.302.301.152.452.152.753.303.453.151.754.151.754.151l.302.152h.15c.151 0 .302.151.604.151.15 0 .452.151.753.151.151 0 .302 0 .453.152.15 0 .301 0 .452.15.302 0 .603.152.905.152.301 0 .603.151.754.151.452 0 .753.152.753.152h1.206v-.605c-.15.15-.301.15-.301.15z" fill="#F5EFDB"/><path d="M32.113 5.145c-.302 0-.452 0-.754.151-.302 0-.603 0-.905.151-.603.152-1.206.152-1.658.303-.452.151-.754.151-.754.151h-.301s-.302.152-.754.152c-.15 0-.452.151-.754.151-.302.151-.603.151-.905.303-.301.151-.603.151-.904.302-.302.152-.452.152-.754.303-.15.151-.452.151-.452.151-.151 0-.151.152-.151.152l-.302.15s-.15 0-.452.152l-.904.454-.905.454c-.302.151-.452.151-.452.151l.301.454s.151-.151.302-.151c.15-.151.603-.303.904-.454l.905-.454c.302-.151.452-.151.452-.151l.302-.152.15-.15c.151 0 .302-.152.453-.152.15-.151.452-.151.754-.303.15 0 .301-.151.452-.151.15 0 .301-.151.452-.151.302-.152.603-.152.905-.303.301-.151.452-.151.754-.151.452-.152.753-.152.753-.152h.302s.301 0 .754-.151c.452-.151 1.055-.151 1.658-.303.302 0 .603-.15.905-.15.301 0 .603 0 .754-.152h.15l-.15-.605-.151.15z" fill="#F5EFDB"/><path d="M31.208 5.447s.754-1.362 2.864-1.362c2.111 0 3.468.606 3.92.606.453 0-1.96.15-3.166.907-.904.606-3.467.908-3.618-.15zM58.346 63.25c-.603-.757-.302-.757-1.206-1.816h.301c.151.151.302.303.453.605.15.151.452.303.753.303.151 0 .453 0 .603-.152.302-.15.453-.15.754-.302l.905 1.362c-.905.302-1.96.907-2.563 0zm-1.357-3.027c.15.303.15.454.15.605h-.301c-.151-1.059-.453-1.059-.603-1.815-.302-1.06.603-1.513 1.055-1.967l.905 1.361a2.081 2.081 0 00-.603.454l-.453.454c-.15.454-.15.757-.15.908zm-1.809 3.935c.754-.303 1.508 0 2.11.454.604.605.905 1.361.754 2.42 0 0-.15-.302-.452-.756-.301-.303-.603-.757-1.206-.757-.905 0-2.714.908-3.317-.302-.452-.757-.15-.908-.904-1.967l.301-.152c.15.152.302.303.453.606.15.302.301.302.753.454.302.302.905.15 1.508 0zm-3.317-3.178c0-.605.301-1.06.754-1.362.15-.151.452-.303.603-.454.15-.151.452-.303.452-.454.302-.303.302-.757.15-1.21-.15-.455-.3-.757-.3-.757.753.605 1.055 1.362 1.205 2.118 0 .757-.301 1.514-.904 1.665-.603.151-.905.454-1.206.605-.302.303-.302.454-.302.757v.605l-.301.151c.15-.908-.151-.908-.151-1.664zm-1.96 4.691c.452-.151.754 0 1.206.151.302.152.603.454.905.757.452.605.603 1.513.301 2.421 0 0 0-.302-.301-.757-.151-.453-.453-.756-1.056-.907H49.3c-.603 0-1.206-.152-1.357-.908-.301-.908 0-.908-.452-2.119h.301c0 .152.151.303.302.757 0 .302.301.454.603.605h1.206zm-2.713-3.782c0-.606.452-.908.904-1.21.302-.152.452-.152.754-.303.302-.152.452-.152.603-.303.301-.303.301-.757.301-1.21 0-.455-.15-.757-.15-.757.603.756.904 1.664.754 2.42 0 .303-.151.757-.302 1.06-.15.303-.452.454-.904.605-.604.151-.905.303-1.207.454-.301.151-.452.454-.452.605v.606h-.301c.15-1.06 0-1.21 0-1.967zm26.081-14.377c-.904-.151-.754-.454-1.96-.605l.15-.303c.152 0 .453 0 .755.152.301 0 .452 0 .754-.303.301-.303.452-.757.753-1.362l1.508.605c-.15.454-.452.908-.754 1.21-.301.455-.754.606-1.206.606zM70.406 46c.302.15.453.302.453.302l-.151.303c-.905-.757-1.056-.454-1.659-1.06-.452-.302-.603-.605-.603-1.059 0-.454.151-.756.151-1.21l1.508.605c-.151.605-.302.908-.302 1.362.15.302.302.605.603.756zm.905 4.085c.452-.757 1.206-1.06 1.96-1.06s1.658.455 2.11 1.363c0 0-.3-.152-.753-.303s-.905-.151-1.357.151l-.603.606c-.15.302-.302.454-.603.756-.453.454-.905.757-1.508.605-.754-.302-.754-.605-1.96-.907l.151-.303c.15 0 .452.151.754.303.301.15.452 0 .754-.152.452 0 .754-.454 1.055-1.059zm-4.523-.302c-.452-.454-.452-.908-.301-1.513.15-.303.15-.454.301-.757.15-.302.15-.454.15-.605 0-.454-.3-.757-.753-1.06-.302-.302-.754-.453-.754-.453.905 0 1.81.302 2.262.908.603.605.754 1.21.452 1.967-.301.454-.452.908-.452 1.21 0 .303 0 .606.301.757l.453.454-.151.303c-.754-.757-.905-.606-1.508-1.21zm1.508 4.841c.603-.605 1.357-.908 2.11-.605.453.151.754.302 1.056.605.301.303.603.605.754 1.21 0 0-.302-.302-.754-.453-.453-.152-.905-.303-1.357 0-.452.302-.905.756-1.357 1.21-.452.454-1.055.605-1.658.303-.754-.454-.603-.605-1.659-1.21l.151-.152c.15 0 .302.151.754.454.452-.151 1.055-.303 1.96-1.362zm-4.523-1.058c-.453-.605-.302-1.06 0-1.513.15-.454.603-.908.603-1.21 0-.455-.151-.909-.453-1.211a2.58 2.58 0 00-.603-.454c.453.151.905.302 1.206.454.302.151.604.454.905.756.15.303.302.605.302 1.06 0 .302 0 .756-.302.907-.301.454-.603.908-.603 1.21-.15.303 0 .606.15.758.152.15.302.453.302.453l-.15.152c-.603-.908-.754-.757-1.357-1.362zm.754 4.992c.301-.303.603-.454 1.055-.454.302 0 .754 0 1.055.151.754.303 1.357 1.06 1.508 1.967 0 0-.302-.302-.603-.454-.302-.302-.905-.453-1.357-.302-.15 0-.452.151-.754.454-.301.151-.603.302-.754.454-.301.151-.603.302-.904.302-.302 0-.603 0-.754-.302-.603-.606-.452-.757-1.508-1.513l.302-.152c.15.152.301.303.603.454.301.303 1.055.303 2.11-.605zm-4.222-1.815c-.15-.303-.15-.605-.15-.757 0-.302.15-.453.3-.605.152-.151.302-.454.453-.605.151-.151.302-.303.302-.605.15-.454 0-.908-.302-1.21-.301-.303-.452-.606-.452-.606.904.303 1.508.908 1.81 1.665.15.302.3.756.15 1.059 0 .302-.15.605-.452.907-.905.757-1.056 1.362-.905 1.816.15.303.15.454.302.606l-.302.15c-.15-1.21-.452-1.058-.754-1.815z" fill="#F5EFDB"/><path d="M63.32 64.157s-.15-.302-.452-.605c-.301-.303-.753-.605-1.206-.454-.15 0-.452.151-.753.151l-.905-1.361c.302-.152.754-.303 1.055-.303.302 0 .754.151 1.056.303.753.454 1.206 1.21 1.206 2.27zm-6.03-9.381c.754.454 1.358 1.21 1.509 1.967.15.303.15.757 0 1.06-.151.302-.302.605-.604.756l-.905-1.362.453-.454c.15-.303.15-.908-.151-1.21a6.36 6.36 0 00-.302-.757zm4.222 3.481l.15-.151c.152 0 .303-.152.453-.303.302-.303.754-.605 1.206-1.06.151-.15.453-.453.603-.605l.604-.605.452-.454.15-.151.151-.151s.151-.152.453-.606c.301-.302.753-.756 1.055-1.21.15-.303.301-.454.603-.757l.302-.302c0-.152.15-.152.15-.303.302-.303.453-.605.453-.605l.15-.303s.151-.303.453-.605c.15-.152.301-.454.452-.605.15-.303.301-.454.452-.757 0-.151.15-.303.15-.454 0-.151.152-.303.152-.454.15-.303.301-.454.301-.757.151-.15.151-.302.151-.453 0-.152.15-.152.15-.152l.151-.302s0-.152.151-.303.151-.454.302-.605c.15-.303.15-.454.301-.606 0-.15.151-.302.151-.302l.452.151s0 .151-.15.303c0 .151-.151.454-.302.756-.15.303-.15.454-.301.606-.151.15-.151.302-.151.302l-.15.303-.152.151c0 .151-.15.303-.301.454-.151.151-.151.454-.302.757 0 .151-.15.302-.15.454 0 .15-.151.302-.151.454-.151.302-.302.605-.453.756a2.06 2.06 0 01-.452.605c-.15.152-.15.303-.301.454 0 .152-.151.152-.151.152l-.15.302s-.152.303-.453.606c-.151.15-.302.453-.453.605-.15.302-.301.454-.603.756-.452.454-.753.908-1.055 1.362-.301.303-.452.605-.452.605l-.151.152-.15.151-.453.454-.603.605-.603.606c-.452.453-.905.756-1.357 1.059-.15.151-.301.302-.452.302l-.151.152-.302.151-.301.303c-.15.151-.452.302-.754.605-.603.454-1.206.756-1.206.756l-.302-.454s.603-.302 1.206-.756c.302-.151.604-.303.754-.605l.302-.303.452-.151zm12.965-32.533c-.754.454-.904.151-1.96.908l-.15-.303c.15-.151.301-.303.602-.454.151-.151.302-.303.453-.757 0-.302 0-.907-.302-1.513L74.628 23c.15.454.301.908.301 1.513.302.454 0 .908-.452 1.21zm-3.165.756h.603l.15.303c-1.055 0-1.055.303-1.96.303-.452 0-.904-.151-1.055-.454-.301-.303-.452-.605-.603-1.06l1.508-.605c.15.606.452.908.603 1.211.302.151.603.303.754.303zm3.467 2.422c-.15-.454 0-.757.15-1.21.151-.303.453-.606.754-.909.603-.454 1.508-.605 2.413-.302 0 0-.302 0-.754.302-.453.152-.754.454-.905 1.06v1.664c0 .605-.15 1.21-.904 1.362-.905.303-.905 0-2.111.454v-.303c.15 0 .302-.151.754-.302.301 0 .452-.303.452-.606.302 0 .302-.605.15-1.21zm-3.619 2.723c-.602 0-.904-.454-1.205-.907-.151-.303-.151-.454-.302-.757-.15-.303-.15-.454-.301-.605-.302-.303-.754-.303-1.207-.303-.452 0-.753.151-.753.151.754-.605 1.658-.908 2.412-.756.452 0 .754.151 1.055.302.302.152.453.454.603.908.151.605.302.908.453 1.21.15.303.452.455.603.455h.603v.302c-1.206-.15-1.206.152-1.96 0zm4.222 2.724c0-.757.452-1.513 1.206-1.816.754-.302 1.658-.454 2.412.151 0 0-.302 0-.754.152-.452.151-.904.303-1.055.908-.151.151-.151.454-.151.756 0 .303-.15.606-.15.908-.151.605-.453 1.21-1.056 1.21-.905.152-.905-.15-2.11.152v-.303c.15 0 .451-.15.753-.15s.452-.152.603-.606c.15-.151.302-.605.302-1.362zm-4.221 2.118c-.603-.152-.904-.606-1.055-1.06 0-.302-.15-.453-.15-.756s-.152-.454-.152-.605c-.15-.303-.753-.454-1.055-.606h-.754c.754-.454 1.659-.605 2.412-.454.754.152 1.207.757 1.357 1.514 0 .605.151 1.059.302 1.361.15.303.301.454.603.606.301 0 .452.151.603.151v.303c-1.206-.606-1.206-.303-2.11-.454zm3.769 3.328c0-.454.301-.756.452-1.059.301-.303.603-.454.904-.605.754-.151 1.659-.151 2.413.605h-.754c-.452 0-.905.151-1.206.605-.302.454-.302 1.06-.603 1.665-.302.605-.603 1.059-1.206 1.059-.905 0-.905-.303-2.111-.151v-.302h.754c.301 0 .452-.152.754-.455.15-.151.15-.302.301-.605.15-.151.302-.454.302-.757zm-4.372 1.362c-.603-.302-.754-.756-.754-1.21 0-.454 0-1.06-.15-1.362-.151-.454-.604-.605-1.056-.757-.452-.15-.754-.15-.754-.15.905-.303 1.81-.303 2.413 0 .301.15.603.453.753.604.151.303.302.606.151 1.06v1.361c.15.303.302.606.452.606.302.151.453.151.603.302v.303c-.753-.605-.904-.454-1.658-.757zm7.085 3.633s-.301-.152-.754-.152c-.452 0-.904 0-1.357.454-.15.151-.301.303-.301.605l-1.508-.605c.151-.454.302-.756.603-.908.151-.151.302-.151.453-.302.15 0 .301-.152.603-.152.753 0 1.658.303 2.261 1.06zM67.09 41.613c.904-.151 1.81 0 2.412.454.15.151.302.303.452.303.151.15.151.302.302.454.15.302.15.605 0 1.059l-1.508-.605v-.606a1.362 1.362 0 00-.904-.908c-.453 0-.754-.151-.754-.151z" fill="#F5EFDB"/><path d="M72.518 41.46s0-.303.15-.757c.151-.454.151-1.059.302-1.664 0-.303.15-.605.15-.908 0-.303 0-.605.151-.757v-3.48c0-.605 0-1.21-.15-1.664v-1.059s0-.303-.151-.757c0-.151 0-.454-.15-.757 0-.302-.152-.605-.152-.907 0-.152 0-.303-.15-.454 0-.152 0-.303-.151-.454 0-.303-.15-.606-.15-.757 0-.151-.152-.454-.152-.454v-.151l-.15-.303s0-.151-.151-.302c0-.152 0-.152-.151-.303 0-.151-.15-.303-.15-.303l-.302-.908.452-.15s.15.453.302 1.058c.15.303.15.454.15.757 0 .151.151.302.151.302l.15.303v.151c0 .152.152.303.152.606 0 .151.15.454.15.756 0 .152 0 .303.151.454 0 .152 0 .303.15.454 0 .303.152.605.152.908 0 .303.15.605.15.757 0 .454.151.756.151.756v1.059c0 .454 0 1.06.151 1.665v3.48c0 .151 0 .454-.15.757 0 .302 0 .605-.152.908-.15.605-.15 1.21-.301 1.664-.15.454-.15.757-.15.757v.302s-.152.605-.302 1.362c-.151.605-.453 1.362-.453 1.362l-.452-.151s.15-.606.452-1.362c.151-.606.302-1.362.302-1.362s0-.151.15-.454c-.15.151 0 0 0 0zM61.663 8.171c-.301.757-.603.757-.904 1.967l-.302-.151c0-.152.15-.454.301-.757.151-.302 0-.454-.15-.756-.151-.303-.603-.606-1.206-.908l.753-1.513c.151.15.453.302.603.454l.453.453c.452.303.603.757.452 1.211zm-1.96 2.573l.452-.454.302.151c-.754.757-.603.908-1.206 1.513-.302.303-.754.454-1.206.303-.151 0-.453-.151-.604-.151-.15 0-.301-.152-.602-.152l.753-1.513c.453.303.905.454 1.206.454.453.152.754 0 .905-.151zm4.222-.304c-.603-.605-.905-1.361-.603-2.118.15-.454.301-.757.603-1.06.301-.302.603-.604 1.206-.756 0 0-.302.303-.453.757-.15.454-.301.908 0 1.362.302.454.754.908 1.207 1.361.452.454.602 1.06.301 1.665-.452.757-.603.605-1.206 1.664l-.15-.15c0-.152.15-.304.451-.606-.15-.605-.301-1.21-1.356-2.119zm-1.206 4.539c-.603.454-1.055.303-1.508 0-.452-.151-.904-.605-1.206-.605-.452 0-.754.15-1.206.454-.301.302-.452.605-.452.605.15-.454.301-.908.452-1.21.15-.303.452-.606.754-.909.301-.15.603-.302 1.055-.302.302 0 .754 0 .905.302.452.303.904.606 1.206.606.301.15.603 0 .754-.152.15-.151.452-.302.452-.302l.15.151c-.753.605-.602.757-1.356 1.362zm5.125-.756c-.302-.302-.452-.605-.452-1.059 0-.303 0-.756.15-1.06.302-.756 1.056-1.36 1.96-1.512 0 0-.301.302-.452.605-.301.303-.452.908-.301 1.362 0 .151.15.454.452.757.15.302.301.605.452.756.15.303.302.605.302.908 0 .303 0 .605-.302.756-.603.606-.754.454-1.508 1.514l-.15-.303c.15-.151.301-.303.452-.605.302-.303.15-1.06-.603-2.119zm-1.96 4.237c-.301.151-.603.151-.753.151-.302 0-.453-.15-.603-.302-.151-.152-.453-.303-.604-.454-.15-.152-.301-.303-.602-.303a1.17 1.17 0 00-1.207.303c-.301.302-.603.454-.603.454.302-.908.905-1.513 1.659-1.816.301-.151.754-.303 1.055-.151.302 0 .603.151.905.454.753.907 1.356 1.059 1.809.907.301-.15.452-.15.603-.302l.15.302c-1.055.152-1.055.454-1.809.757zm5.126.303c-.15-.303-.3-.757-.3-1.06 0-.302.15-.756.3-1.058.453-.606 1.207-1.21 2.262-1.06 0 0-.302.152-.603.454-.301.303-.603.757-.452 1.21 0 .455.452 1.06.603 1.665.15.606.15 1.21-.302 1.665-.754.605-.754.302-1.809 1.21v-.302a2.06 2.06 0 01.603-.454c.15-.152.302-.454.302-.757 0-.151 0-.454-.151-.605-.15-.454-.302-.605-.452-.908zm-2.563 3.782c-.603.152-1.055-.15-1.357-.454-.301-.302-.603-.907-.904-1.059-.302-.151-.905-.151-1.207.152-.452.15-.753.453-.753.453.452-.756 1.206-1.361 1.96-1.513a1.283 1.283 0 011.055 0c.302.152.603.303.754.606.15.302.301.454.452.605l.452.454c.302.151.603.302.754.151.302-.151.453-.151.603-.151v.302c-1.055 0-1.055.152-1.809.454zm7.84-1.663s-.302.151-.754.454c-.302.302-.754.605-.754 1.21 0 .151 0 .454.15.757l-1.507.605c-.301-.757 0-1.513.453-2.119.452-.756 1.356-1.21 2.412-.907zM66.035 25.27c.603-.757 1.357-1.06 2.11-1.21.755 0 1.509.302 1.66.907l-1.508.605c-.151-.151-.302-.302-.302-.454-.301-.302-.754-.302-1.206-.151a7.089 7.089 0 01-.754.303z" fill="#F5EFDB"/><path d="M70.106 21.638l-.301-.605c-.151-.454-.453-.908-.754-1.513-.302-.454-.603-1.06-.905-1.362a2.615 2.615 0 01-.452-.606l-.15-.302-.151-.151c-.151-.152-.151-.303-.302-.454-.302-.303-.603-.757-1.055-1.21l-.603-.606-.604-.605-.452-.454-.15-.152-.151-.151s-.151-.151-.603-.454c-.302-.303-.754-.756-1.206-1.06-.302-.15-.453-.302-.754-.604l-.302-.303c-.15 0-.15-.151-.301-.151a2.603 2.603 0 00-.603-.454l-.302-.152-.905-.605c-.15 0-.15-.151-.301-.151-.15 0-.15-.151-.302-.151a.466.466 0 00-.301-.152l.301-.454s.151 0 .302.152c.15 0 .15.15.301.15s.151.152.302.152c.15.151.452.303.603.454.15.151.302.151.302.151l.301.152s.302.151.603.454c.15.151.452.302.603.454.302.151.453.302.754.605.452.454.905.757 1.206 1.06.302.302.603.453.603.453l.151.151.15.152.453.454.603.605.603.605c.452.454.754.908 1.055 1.362.151.151.302.303.302.454l.15.151.152.303s.15.302.452.605c.15.151.301.454.452.605.15.303.302.454.452.757.302.454.603 1.06.905 1.513.15.454.301.605.301.605v.303s0 .151.151.454l.453.908c.15.302.301.605.301.908 0 .151.15.151.15.302v.152l-.451.151v-.151s0-.152-.151-.303c-.151-.303-.302-.605-.302-.908l-.452-.908c-.15-.302-.15-.454-.15-.454s.15 0 0-.151zM49.15 3.783a7.4 7.4 0 01-1.056-.454c-.302-.303-.453-.605-.603-.908-.151-.757-.151-1.665.603-2.421v.756c0 .454.15.908.603 1.211.452.303 1.055.303 1.658.605.603.303 1.056.605 1.056 1.21 0 .909-.302.909-.151 2.12h-.301v-.757c0-.303-.152-.454-.453-.757-.15-.151-.301-.151-.603-.303a1.15 1.15 0 00-.754-.302zm1.205 4.387c-.301.606-.753.757-1.206.757-.452 0-1.055 0-1.357.152-.452.15-.603.605-.753 1.059-.151.454-.151.756-.151.756-.302-.908-.302-1.815 0-2.42.15-.303.452-.606.603-.757.301-.152.603-.303 1.055-.152h1.357c.302-.15.603-.302.603-.454.15-.302.15-.453.302-.605h.301c-.603.757-.301.908-.754 1.665zm4.071-3.026c-.453-.151-.754-.303-.905-.605-.15-.152-.15-.303-.301-.454 0-.151-.151-.303-.151-.605-.15-.757.15-1.665 1.055-2.27 0 0-.15.302-.15.756s0 .908.452 1.362c.15.152.452.303.753.454l.905.454c.603.303.905.757.754 1.513-.15.908-.452.757-.603 1.967l-.302-.15c0-.152 0-.455.151-.757 0-.303 0-.454-.301-.757-.302-.454-.754-.757-1.357-.908zm.452 4.541c-.301.605-.904.605-1.356.605-.302 0-.453-.151-.754-.151h-.603a1.362 1.362 0 00-.905.908c-.15.454-.301.756-.301.756-.151-.908 0-1.815.452-2.42.15-.152.301-.303.301-.455.151-.151.302-.151.453-.302.301-.152.603-.152 1.055 0 .603.151.904.302 1.357.302.301 0 .603-.151.754-.302.15-.303.301-.454.301-.454l.302.151c-.754.605-.603.757-1.056 1.362zm4.975-6.356s-.15.303-.301.757c-.15.454-.15.907.15 1.361l.453.454-.754 1.514c-.754-.454-1.055-1.211-1.055-1.968.15-.756.603-1.664 1.507-2.118zm-4.974 9.988c0-.908.301-1.816.904-2.27.603-.605 1.206-.756 1.96-.454l-.754 1.513c-.15 0-.452-.151-.603-.151-.452 0-.754.303-1.055.757-.302.15-.453.605-.453.605zm-8.444 50.538h1.055s.302 0 .755-.151c.15 0 .452 0 .753-.152.302 0 .603-.151.905-.151.15 0 .302 0 .452-.151.151 0 .302 0 .453-.152.301 0 .603-.151.753-.151.151 0 .453-.151.453-.151h.15l.302-.152h.15c.151 0 .302-.15.453-.15.15 0 .452-.152.754-.304.301-.15.603-.15.754-.302a10.377 10.377 0 011.507-.605c.453-.152.754-.303.754-.303h.302s.452-.303.904-.454c.302-.151.453-.303.603-.303.151-.151.302-.151.302-.151l.301.454s-.15 0-.301.151c-.151.152-.453.303-.603.303-.453.303-.905.454-.905.454h-.301s-.302.151-.754.303c-.453.15-1.056.453-1.508.605-.301.151-.603.151-.904.302-.302.152-.453.152-.754.303-.453.151-.754.151-.754.151l-.302.152h-.15c-.151 0-.302.151-.603.151-.151 0-.453.151-.754.151-.151 0-.302 0-.452.152-.151 0-.302 0-.453.15-.301 0-.603.152-.904.152-.302 0-.603.151-.754.151-.453 0-.754.152-.754.152h-1.206v-.605c.15.15.301.15.301.15z" fill="#F5EFDB"/><path d="M46.888 5.145c.302 0 .452 0 .754.151.301 0 .603 0 .904.151.604.152 1.207.152 1.659.303.452.151.754.151.754.151h.301s.302.152.754.152c.15 0 .452.151.754.151.301.151.603.151.904.303.302.151.604.151.905.302.302.152.452.152.754.303.15.151.452.151.452.151.15 0 .15.152.15.152l.302.15s.151 0 .453.152l.904.454.905.454c.301.151.452.151.452.151l-.301.454s-.151-.151-.302-.151c-.15-.151-.603-.303-.904-.454l-.905-.454c-.302-.151-.452-.151-.452-.151l-.302-.152-.15-.15c-.151 0-.302-.152-.453-.152-.15-.151-.452-.151-.754-.303-.15 0-.301-.151-.452-.151-.15 0-.302-.151-.452-.151-.302-.152-.603-.152-.905-.303-.301-.151-.452-.151-.754-.151-.452-.152-.754-.152-.754-.152h-.301s-.302 0-.754-.151-1.055-.151-1.658-.303c-.302 0-.603-.15-.905-.15-.301 0-.603 0-.754-.152h-.15l.15-.605c0 .15.151.15.151.15z" fill="#F5EFDB"/><path d="M47.792 5.447s-.754-1.362-2.864-1.362-3.468.606-3.92.606c-.452 0 1.96.15 3.166.907.905.606 3.468.908 3.618-.15zM39.35 64.46c-3.166 0-5.88-.454-9.046-.757v.454c2.864.454 5.88.756 9.046.756 3.015 0 5.88-.302 8.744-.756l-1.81-.303c-2.864.606-3.92.605-6.934.605z" fill="#F5EFDB"/><path d="M38.2 31.165c2.73 0 4.875.765 6.435 2.295 1.59 1.5 2.385 3.645 2.385 6.435 0 1.95-.405 3.615-1.215 4.995a7.88 7.88 0 01-3.24 3.105c-1.38.69-2.925 1.035-4.635 1.035-1.41 0-2.67-.27-3.78-.81-1.11-.57-2.145-1.425-3.105-2.565l-.045-.09c0-.12.06-.21.18-.27.12-.09.21-.09.27 0a6.158 6.158 0 002.295 1.575c.93.36 1.89.54 2.88.54 2.01 0 3.51-.63 4.5-1.89.99-1.29 1.485-3 1.485-5.13 0-2.34-.54-4.215-1.62-5.625-1.08-1.41-2.7-2.115-4.86-2.115-.93 0-1.755.09-2.475.27-.72.18-1.125.285-1.215.315a.487.487 0 01-.36-.135c-.09-.12-.12-.255-.09-.405l1.44-11.79c.03-.21.075-.345.135-.405.06-.09.21-.135.45-.135 4.08 0 6.78-.015 8.1-.045 1.35-.06 2.235-.165 2.655-.315.42-.15.75-.465.99-.945.03-.06.12-.075.27-.045.15 0 .21.06.18.18l-.675 4.32c-.09.36-.21.6-.36.72-.12.09-.375.135-.765.135l-9.45-.225c-.39 0-.63.21-.72.63l-.855 7.2c1.62-.54 3.225-.81 4.815-.81z" fill="#AAA"/></svg>