<svg width="79" height="79" fill="none" xmlns="http://www.w3.org/2000/svg"><path d="M68.01 64.935l-.49-.49c-.163-.162-.49-.325-.654-.488.327-.816.327-1.794.327-1.794v-.326l-.327.163s-.98.163-1.797.652a2.25 2.25 0 01-.49-.652l-.49-.49c-.163-.162-.327-.162-.327-.162l-.327-.163v.326s-.326.815-.326 1.63v.163c-.817 0-1.634.326-1.634.326l-.327.163.163.327s0 .163.164.326l.49.489c.163.163.327.489.653.489-.163.326-.326.815-.49 1.141-.163.326-.163.652-.163.652l-.164.326h.981c.327 0 .817-.163 1.144-.326.163.163.326.49.49.653l.49.489.163.163.327.163.163-.326s.49-.978.654-1.794h.163c.817-.163 1.797-.652 1.797-.652s.164 0 .164-.163c.163 0 .163-.163.163-.163l-.163-.326c-.164 0-.164-.163-.327-.326zm-1.144-2.772v.652c0 .326-.163.816-.326 1.305-.164.163-.164.326-.327.489-.163.163-.327.163-.49.326v-1.468c0-.163-.164-.326-.327-.489a3.2 3.2 0 011.47-.815zm-2.777 1.794a.79.79 0 011.144 0c.326.326.326.815 0 1.304-.327.326-.98.326-1.308 0-.326-.326-.326-.978.164-1.304-.163 0 0 0 0 0zm-.49-2.61c0 .164 0 .164 0 0 0 .164 0 .164 0 0 0 .164.163.164 0 0 .163.164.163.164 0 0l.163.164s.163 0 .163.163h.327l.164.163.163.163.163.163.164.163.163.163.163.163c.164.163.164.326.164.49v.488h-.163c-.164 0-.164 0-.327-.163h-.49v-.163c-.164-.163-.327-.326-.49-.326h-.49c-.164-.815.163-1.63.163-1.63zm-1.307 3.425l-.164-.163-.163-.163-.164-.163-.163-.163v-.49h.163c.164 0 .327 0 .49-.163.328-.163.818-.163 1.308-.163h.49c.163 0 .327.163.49.163h-.327c0 .163.164.327.164.49h-.49c-.164 0-.327-.163-.49-.163l-.164-.163-.98 1.14c.163.164.163 0 0 0zm.326 2.12h-.49v-.164c0-.163 0-.163.164-.326.163-.326.163-.652.326-1.141.164.163.327.163.49.326h.49v.49c0 .162.164.325.164.488-.327.163-.817.326-1.144.326zm2.941.651c0 .164-.163.327-.163.327v.163l-.163-.163h-.164l-.163-.163-.164-.163-.163-.163-.163-.164-.164-.163s0-.163-.163-.163c0 0 0-.163-.163-.163-.164-.163-.164-.326-.164-.489v-.489c.163 0 .163.163.327.163h.49l.163.163c.164.163.327.326.49.326h.49c.164.326 0 .816-.163 1.141zm.49-1.467h-.653c-.163 0-.327-.163-.49-.326.163 0 .163-.163.326-.163l.164-.163h.163c.164 0 .327-.163.49-.326.164-.163.164-.326.327-.49 0 0 .164 0 .164.164l.163.163.163.163.164.163.163.163.163.163.164.163s-.654.163-1.47.326zm7.516-9.293c-.163-.163-.327-.163-.653-.326-.327-.163-.49-.163-.817-.327.163-.815-.164-1.793-.164-1.956v-.326l-.327.163s-.817.489-1.47.978c-.163-.163-.49-.326-.654-.489-.326-.163-.49-.163-.653-.326-.163 0-.327-.163-.327-.163l-.327-.163v2.12c-.817.326-1.47.815-1.633.815l-.327.163.327.163s.163.163.326.163c.164.163.327.326.654.489.327.163.49.326.653.326 0 .326-.163.815-.163 1.141v.979l.327-.163s.326-.163.653-.163c.327-.163.817-.327 1.144-.653.163.163.327.326.653.49.164.162.49.326.654.326a.507.507 0 00.327.163l.327.163.163-.326s.327-1.142.163-1.957c.327-.163.817-.49 1.144-.652.327-.163.49-.49.49-.49l.327-.325-.327-.163c-.163.489-.327.326-.49.326zM71.441 54.5c.327-.163.49-.326.49-.326s0 .326.164.652v1.304c0 .164-.164.327-.164.49-.163.163-.163.326-.327.326 0-.163 0-.326-.163-.49v-.325c0-.163-.163-.49-.163-.653-.164-.163-.164-.326-.327-.326-.163-.163.163-.489.49-.652zm-.327 3.261l-.49.49c-.163 0-.49 0-.653-.164-.164-.163-.327-.326-.327-.49 0-.162 0-.488.163-.651.164-.49.817-.49 1.144-.326.163.163.327.652.163 1.141zm-2.614-3.26h.98s.164 0 .164.162c0 0 .163 0 .163.163 0 0 .164 0 .164.163l.163.163c.163.163.327.163.327.326.163.163.163.326.163.49H69.48c-.163-.164-.326-.164-.653-.164h-.49v-1.14c.163 0 .163-.164.163-.164zm-.163 3.586s-.164 0-.164-.163c0 0-.163 0-.163-.163 0 0-.163 0-.163-.163h-.817s.163-.163.49-.326c.327-.163.817-.326 1.144-.49h.49c.163 0 .327 0 .49.164h-.164v.326c0 .163.164.326.327.326-.163 0-.327.163-.49.163-.163 0-.327 0-.49-.163-.327.652-.327.652-.49.489zm.653 1.957c-.326.163-.49.163-.49.163v-.49c0-.326 0-.815.163-1.14.164 0 .327.162.49.162h.49c0 .163 0 .326.164.49 0 .162.164.325.327.489-.49 0-.817.162-1.144.326zm2.941-.816v.652c0 .327-.163.653-.163.653s-.164 0-.164-.163h-.653s-.163 0-.163-.163l-.164-.163-.163-.163-.164-.163c-.163-.164-.163-.327-.326-.327 0-.163-.164-.326-.164-.489h.98l.164.163c.163.163.327.163.653.163.164 0 .327 0 .49-.163-.163-.326 0 0-.163.163zm1.307-1.63c-.327.326-.817.489-1.143.652-.164 0-.327.163-.49.163-.164 0-.327 0-.49-.163.163 0 .163-.163.163-.326v-.326l.163-.163.49-.49c0-.162.164-.325.164-.488h.163s.163 0 .163.163c0 0 .164 0 .164.163h.817s.163.652-.164.815zm3.758-10.272c-.163 0-.49-.163-.653-.163-.327 0-.49-.163-.817-.163-.164-.816-.654-1.794-.654-1.794l-.163-.326-.327.326s-.817.652-1.144 1.305c-.163 0-.49-.164-.817-.164-.326 0-.49-.163-.653-.163h-.654v.327s0 .326.164.652c.163.326.163.652.326 1.141-.653.49-1.307 1.141-1.307 1.141l-.163.327.327.163s.163 0 .326.162c.164 0 .49.164.654.327.327.163.49.163.817.163 0 .326.163.815.163 1.141 0 .326.164.652.164.652l.163.326.327-.163s.163-.163.49-.326c.327-.163.654-.489.817-.815.163.163.49.163.817.326.327.163.49.163.653.163h.654v-.326s0-1.141-.327-1.957c.327-.326.654-.652.817-.978a2 2 0 01.327-.489l.163-.326-.327-.163c.164-.163 0-.326-.163-.326zm-2.777-1.468l.326-.326.327.653c.163.326.327.815.327 1.304v.489c0 .163-.163.326-.163.49 0-.164-.164-.327-.327-.49v-.163c0-.163-.164-.326-.327-.49-.163-.162-.327-.162-.49-.325-.164-.653 0-.979.327-1.142zm.49 3.098c-.164.49-.654.816-1.144.652-.49-.163-.817-.652-.653-1.14.163-.49.653-.816 1.143-.653.49.163.817.652.654 1.141zM71.44 47c-.163-.326-.163-.49-.163-.49h1.47c.163 0 .327.164.49.327.164.163.164.326.327.489h-1.796c-.163 0-.327.163-.49.163.49.163.326-.163.163-.49zm.817 3.097h-1.633l.163-.163c.164-.163.164-.162.327-.326.327-.326.654-.652.98-.815.164-.163.327-.163.49-.163h.49v.815c.164.163.328.163.491.327-.163.163-.327.163-.49.163h-.49c-.164.162-.327.162-.327.162zm.98 1.631c-.163.163-.326.163-.326.163-.164 0-.164.163-.164.163v-.163c0-.163 0-.163-.163-.326 0-.326-.164-.815-.164-1.141h.49c.164 0 .327-.163.49-.163 0 .163.164.326.327.489.164.163.164.163.49.326-.326.163-.653.489-.98.652zm2.941-.978v.652h-1.142s-.164 0-.164-.163c0 0-.163 0-.163-.163-.164-.163-.327-.163-.327-.326-.163-.163-.163-.326-.163-.49h1.797c.163 0 .326-.163.49-.163-.49-.163-.49.327-.327.653zm.49-2.446l-.98.978c-.163.163-.327.163-.49.163h-.49c0-.163.163-.163.163-.326v-.326l.163-.163c.164-.163.327-.326.327-.652v-.49h1.471s.163.49-.164.816zm1.635-6.521v-.326s-.327-1.142-.817-1.794V39.5c.49-.652.817-1.63.817-1.63v-.326h-1.307c-.327 0-.49 0-.817.163-.327-.816-.98-1.468-.98-1.63l-.164-.164-.163-.163-.164.163-.163.163s-.49.816-.817 1.63h-2.124v.327s.327.815.817 1.467c-.49.652-.98 1.468-.98 1.468v.326h2.124c.163.815.817 1.63.817 1.63l.163.326.327-.326s.653-.815.98-1.63c.163 0 .49.163.817.163h.98l.654.326zm-2.124-2.772c.163-.163.163-.489.163-.652 0-.163 0-.326-.163-.49h1.47s-.326 1.142-.98 1.794v.163l-.327.326c-.163.163-.327.163-.49.163 0-.163 0-.162.163-.326v-.326l.164-.652zm-.163.49c0 .488-.49.977-.98.977-.491 0-.818-.489-.818-.978s.327-.815.817-.815c.49 0 .817.326.98.815zm-1.144-3.425l.49.49c.163.326.49.815.654 1.14 0 .164.163.327.163.49 0 .163 0 .326-.163.489l-.327-.326h-.327l-.163-.163-.49-.49c-.164 0-.327-.162-.49-.162.163-.652.653-1.468.653-1.468zm-2.778 1.957s.164 0 0 0h1.634c.163 0 .327 0 .49.163.164.163.327.163.327.326h-.163c-.164 0-.164 0-.327.163h-.164l-.163.163v.163h-.163c-.164 0-.49 0-.654.163a.35.35 0 00-.326.326 13.827 13.827 0 00-.49-1.467zm1.797 3.26h-1.633s.49-.977.98-1.63c.163-.163.163-.163.327-.163.163-.163.326-.163.49-.163v.652c.163.164.327.163.49.163-.163.163-.163.326-.327.326-.163 0-.327.164-.49.164.327.652.163.652.163.652zm.98 1.794s-.49-.815-.816-1.467c.163 0 .327-.163.49-.163.163 0 .327-.163.327-.326.163.163.163.326.327.326.163.163.326.163.49.163-.164.652-.817 1.467-.817 1.467zm3.105-1.63h-1.634c-.163 0-.327-.163-.49-.163-.163-.163-.327-.163-.327-.326h.164c.163 0 .163 0 .327-.163h.163l.163-.163.164-.164h.163c.163 0 .49 0 .654-.163.163 0 .326-.162.49-.326-.164.49.163 1.468.163 1.468zm-6.862 21.196c-.163-.163-.327-.163-.49-.163-.163 0-.327.163-.49.326-.327.326-.163.815 0 .978.327.163.653.163.98-.163.163-.163.163-.326.163-.49 0-.162-.163-.325-.163-.488zm4.902-8.804c-.327-.163-.654 0-.817.489-.163.326 0 .815.326.978.327.163.817 0 .817-.49.163-.488 0-.815-.326-.977zm2.45-9.946c-.326 0-.653.326-.816.652 0 .326.163.815.49.815.326 0 .653-.163.816-.652.163-.49-.163-.815-.49-.815zm-13.234 14.51c-.163-.163-.326-.163-.49-.163-.163 0-.327.163-.49.163-.163.326-.163.653.164.816.326.163.653.163.816 0 .163-.163.163-.326.163-.49 0 0 0-.163-.163-.326zm4.085-7.173c-.327-.163-.654 0-.817.326-.163.326 0 .652.327.815.326.163.653 0 .816-.326.163-.326 0-.652-.326-.815zm1.307-7.663c0 .326.163.652.653.652.327 0 .653-.163.653-.489 0-.326-.163-.652-.653-.652-.326 0-.653.163-.653.49zM43.013 74.554s-.817-.489-1.634-.815v-2.12h-.327s-.817.326-1.47.816c-.654-.49-1.47-.979-1.47-.979h-.327v2.12c-.817.326-1.634.815-1.634.815l-.327.163.327.326s.817.652 1.634.979c0 .163-.164.489-.164.815v1.304h.327s1.144-.326 1.797-.815h.163c.654.489 1.634.815 1.634.815h.327v-1.304c0-.326 0-.49-.163-.816.817-.326 1.47-.978 1.633-.978l.164-.163.163-.163s-.326.163-.653 0c.163.163 0 0 0 0zm-1.96-2.609c0 .164 0 .164 0 0 0 .164 0 .164 0 0 0 .164 0 .164 0 0v1.631c0 .163 0 .326-.164.489-.164.163-.164.326-.327.326v-.163c0-.163 0-.163-.163-.326v-.163l-.164-.163-.163-.163v-.163c0-.163 0-.49-.164-.652a.35.35 0 00-.326-.326c.653.163 1.47-.327 1.47-.327zm-.654 3.098c0 .49-.327.816-.817.978-.49 0-.98-.489-.98-.978s.49-.815.98-.815c.326-.163.817.326.817.815zm-2.614-1.793v-1.141s.98.489 1.633.978c.164.163.164.163.164.326.163.163.163.326.163.489h-.653c-.164.163-.164.326-.164.49-.163-.164-.326-.164-.326-.327s-.164-.326-.164-.49v-.325c-.654.163-.653.163-.653 0zm-.327 2.609c-.817-.327-1.47-.979-1.47-.979s.816-.489 1.47-.815c0 .163.163.326.163.49 0 .162.163.325.327.325-.163.163-.327.163-.327.326s-.163.326-.163.653zm.163 2.12s0-.164 0 0c0-.164 0-.164 0 0 0-.164 0-.164 0 0v-1.631c0-.163.164-.326.164-.49.163-.163.163-.326.326-.326v.163c0 .164 0 .164.164.327v.163l.163.163.163.163v.163c0 .163 0 .489.164.652.163.163.163.326.327.489-.49-.326-1.47.163-1.47.163zm3.758-.816c0 .163 0 .163 0 0v.652s-1.144-.326-1.797-.978l-.327-.326c-.163-.163-.163-.326-.163-.49.163 0 .163 0 .326.164h.327c.163.163.49.163.654.163.163 0 .326 0 .49-.163v.652l.49.326zm.98-1.957c-.327.163-.817.49-1.144.653-.163 0-.326.163-.49.163-.163 0-.326 0-.49-.163l.327-.327v-.326l.163-.163.49-.489c0-.163.164-.326.164-.489.654.163 1.47.815 1.47.815s-.163.163-.49.326zm8.986-2.934c-.327-.163-.817-.163-1.143-.163 0-.163-.164-.49-.164-.815-.163-.326-.163-.49-.327-.652 0-.163-.163-.326-.163-.326l-.163-.326-.327.163s-.654.652-1.144 1.304c-.653-.326-1.634-.49-1.634-.49h-.326v.653c0 .163 0 .49.163.652 0 .326.163.49.163.815-.653.49-1.307 1.142-1.47 1.142l-.163.163-.164.163.164.163h.163s.98.489 1.797.652c0 .163 0 .49.164.815 0 .326.163.49.163.652 0 .163.163.326.163.326l.164.327.326-.163s.98-.653 1.47-1.305c.818.326 1.961.326 1.961.326h.327v-.652c0-.163-.163-.49-.163-.652-.164-.326-.163-.49-.327-.815l.817-.816a2 2 0 01.327-.489l.163-.326-.327-.163c.164 0 0 0-.49-.163zm-2.287-1.467l.327-.326v1.957c0 .162-.164.325-.164.488v-.163c0-.163-.163-.163-.163-.163l-.163-.163h-.327v-.163c0-.163-.164-.326-.327-.489-.163-.163-.327-.163-.49-.326.817 0 .98-.326 1.307-.652zm-.163 3.913c-.49.163-.98-.163-1.144-.652-.164-.49.163-.979.653-1.142.49-.163.98.163 1.144.652.163.49-.163.979-.654 1.142zm-2.451-2.772v-.652s.326 0 .653.163.817.326 1.144.489c.163 0 .327.163.327.326.163.163.163.326.327.49h-.817c0 .162-.164.325 0 .488-.164 0-.327-.163-.49-.326-.164-.163-.164-.326-.327-.489v-.652c-.817.49-.817.49-.817.163 0 .163 0 .163 0 0 0 .163 0 .163 0 0zm.49 2.609c0 .163 0 .326-.163.489-.327 0-.817-.163-1.144-.326-.327-.163-.49-.163-.49-.163l.327-.326c.163-.163.49-.49.816-.653.164.164.164.327.327.49l.327.326c.163-.163.163 0 0 .163zm.654 2.608c0-.163 0-.163 0 0 0-.163 0-.163 0 0 0-.163 0-.163 0 0v-2.12c0-.162.163-.325.326-.488v.163c0 .163.164.163.164.163l.163.163h.327v.163c0 .163.163.326.327.49.163.162.326.162.49.325a11.46 11.46 0 00-1.797 1.141zm3.43-1.956v.978h-.653c-.49 0-.98-.163-1.307-.326-.163 0-.327-.163-.49-.326-.164-.163-.164-.326-.327-.49h1.47c.164 0 .327-.162.49-.325 0 0 0 .163.164.163v.163c.49 0 .653 0 .653.163zm.49-1.957l-.98.979c-.163.163-.326.163-.49.163h-.49c.163-.163.163-.326.163-.49v-.326l.164-.163c.163-.163.163-.326.327-.652v-.489c.326 0 .816.163 1.143.163.327.163.49.163.49.163s0 .49-.326.652zm8.986-1.792c-.163-.163-.163-.326-.326-.652a2.249 2.249 0 00-.49-.652c.163-.163.326-.326.326-.49.164-.163.164-.326.327-.489.163-.326.163-.652.163-.652l.164-.326H58.37c-.163-.163-.163-.49-.326-.652-.164-.163-.327-.49-.49-.652-.164-.163-.164-.163-.164-.326l-.163-.326-.164.326s-.163.163-.326.489l-.49.978c-.327 0-.817 0-1.144-.163h-.98l.163.326s0 .163.163.326c0 .163.164.49.327.652.163.326.327.49.327.653-.164.162-.327.326-.327.489-.163.163-.163.326-.327.489-.163.326-.326.489-.326.489l-.164.326h.327s.327 0 .654.163h1.306c0 .163.164.49.327.815.164.326.327.49.327.652a.505.505 0 01.163.326l.164.327.327-.326.49-.49c.163-.326.49-.652.653-1.141h1.307c.327 0 .654-.163.654-.163l.326-.163-.163-.326c-.327.489-.327.326-.327.163zm-2.124-.815c0-.163.164-.326.164-.49v-.489c.163-.163.163-.489.163-.652 0-.163 0-.326-.163-.489h1.633l-.326.652c-.163.326-.327.816-.654 1.142l-.326.326h-.49zm-1.47-3.261c.163-.326.327-.49.327-.49s0 .164.163.164v.652s0 .163.163.163c0 0 0 .163.164.163 0 0 0 .163.163.163v.163c0 .163.164.326.164.49 0 .162 0 .325-.164.488l-.163-.163-.163-.163h-.491l-.163-.163-.49-.489c-.163 0-.327-.163-.49-.163.49-.163.817-.49.98-.815zm.817 3.587c-.49.326-.98.163-1.307-.326-.163-.49 0-.979.327-1.142.49-.326.98-.163 1.307.326.163.49 0 .979-.327 1.142zm-1.797.978h-1.144c-.327 0-.49-.163-.49-.163s.163-.163.327-.49c.163-.162.163-.325.327-.488.163-.163.163-.326.326-.49l.327.327c.163.163.327.163.49.163 0 .163-.163.326-.163.489-.164.326 0 .489 0 .652zm-.327-1.304c-.163 0-.163-.163-.327-.326l-.163-.163s0-.163-.163-.163c0 0 0-.163-.164-.163 0 0 0-.164-.163-.164v-.978h.653c.327 0 .817 0 1.307.163.164 0 .327.163.49.163.164.163.327.163.327.326h-.817v.49c-.653.815-.817.815-.98.815zm1.797 2.608c-.163.326-.327.49-.327.49s0-.163-.163-.163v-.653s0-.163-.163-.163c0 0 0-.163-.164-.163v-.815c0-.163 0-.326.164-.49l.163.164h.49l.163.163.49.49c.164 0 .327.162.49.162-.653.326-.816.652-1.143.978zm2.124-1.304h-1.307c-.163 0-.327-.163-.49-.163-.163-.163-.327-.163-.327-.326.164 0 .163 0 .327-.163h.49c.163 0 .49-.163.654-.163.163-.163.326-.163.49-.326l.163.163.163.163s0 .163.164.163v.815s.163-.163-.327-.163zm-15.031 5.705c-.327 0-.653.326-.653.815 0 .326.326.653.816.49.327 0 .653-.327.653-.816 0-.326-.326-.652-.816-.489zm9.639-2.607a.896.896 0 00-.49.815c.164.326.49.489.98.326a.897.897 0 00.49-.815c-.163-.326-.49-.49-.98-.326zm8.823-5.055c-.163.163-.327.326-.327.49 0 .162 0 .325.164.488.163.163.326.163.49.326.163 0 .326 0 .49-.163.326-.326.326-.652.163-.978-.163-.326-.653-.326-.98-.163zm-18.625.979c0-.326-.327-.652-.654-.652-.326 0-.49.326-.49.652s.327.652.654.652c.326.163.49-.163.49-.652zm7.678-1.306c.327-.162.49-.489.327-.815-.164-.326-.49-.489-.817-.326-.326.163-.49.49-.326.816 0 .163.49.326.816.326zm6.536-4.563c.163.162.327.162.49.325.163 0 .326 0 .49-.163.326-.163.326-.652 0-.815-.164-.326-.654-.326-.817-.163-.163.163-.163.326-.163.49-.163 0-.163.325 0 .325zm-40.845-1.796s-.817-.326-1.634-.326h-.163c0-.815-.327-1.63-.327-1.793l-.164-.326-.326.163s-.164 0-.327.163l-.49.489c-.164.163-.49.326-.49.489-.327-.163-.817-.326-1.144-.49-.327-.162-.654-.162-.654-.162l-.326-.163v.978c0 .326.163.815.326 1.141-.163.163-.49.326-.653.49l-.49.489-.164.163-.163.326.327.163s.98.489 1.797.652v.163c.163.815.653 1.794.653 1.794s0 .163.164.163c0 .162.163.163.163.163l.327-.163.163-.163.49-.49c.164-.163.327-.489.49-.652.818.326 1.798.326 1.798.326h.326l-.163-.326s-.163-.978-.653-1.793c.163-.163.326-.326.653-.49.163-.162.327-.489.49-.489a.504.504 0 00.164-.326l.163-.326c.163.326 0 .163-.163.163zm-3.758-.652l.163-.163.164-.163.163-.163.163-.163.164-.163.163-.163h.49v.163c0 .163 0 .326.164.489.163.326.163.815.163 1.304v.49c0 .163-.163.326-.163.489v-.326c-.164 0-.327.163-.49.163v-.49c-1.47-.978-1.307-1.14-1.144-1.304zm-.327 2.446c-.327-.326-.327-.978 0-1.305.327-.326.98-.326 1.307 0a.787.787 0 010 1.142c-.326.652-.817.652-1.307.163.164.163.164.163 0 0zm-1.634-2.609V62h.164c.163 0 .163 0 .326.163.327.163.654.163 1.144.326-.163.163-.163.326-.327.49v.488h-.49c-.163 0-.327.163-.49.163-.163-.326-.163-.815-.327-1.14zm.654 3.424c-.327 0-.817-.163-1.144-.326-.163 0-.327-.163-.327-.163h-.163l.163-.163.164-.163.163-.163.164-.163.163-.163.163-.163.164-.163s.163 0 .163-.163c0 0 .163 0 .163-.164.164-.163.327-.163.49-.163h.49c0 .163-.163.163-.163.327v.489l-.163.163c-.163.163-.327.326-.327.489-.163.163-.163.326-.163.652zm1.96.978l-.163.163-.163.163-.164.163-.163.163-.163.163-.164.163s-.49-1.14-.653-1.956v-.653c0-.162.163-.325.326-.488 0 .163.164.163.164.326v.326c0 .163.163.326.326.489.164.163.327.163.49.326.49.49.327.49.327.652zm2.288 0h-.654c-.326 0-.817-.163-1.307-.326-.163 0-.327-.163-.49-.326-.163-.163-.163-.326-.327-.489h1.471c.163 0 .327-.163.49-.326.653.489.817 1.467.817 1.467zm.653-3.26c-.163.162-.163.325-.163.325v.327l-.163.163-.164.163-.163.163-.164.163-.163.163-.163.163c-.164.163-.327.163-.49.163h-.49v-.163c0-.163 0-.163.163-.326v-.489l.163-.163c.164-.163.327-.327.327-.49v-.489c.653 0 1.47.326 1.47.326zm7.679 8.316l-.163-.326s-.49-.815-.98-1.467c.163-.163.326-.49.326-.653.164-.326.164-.489.327-.652 0-.163.164-.326.164-.326l.163-.326h-2.124c-.327-.815-.817-1.467-.817-1.63l-.163-.326-.164.326s-.163.163-.163.326a2.249 2.249 0 00-.49.652c-.164.326-.327.489-.327.652-.327 0-.817-.163-1.144-.163h-.98l.163.326s.164.326.164.652c.163.326.327.816.653 1.142a2.269 2.269 0 00-.49.652c-.163.163-.326.489-.326.652-.164.163-.164.326-.164.326l-.163.326.326.163s1.144.326 1.961.163c.163.326.49.815.654 1.141.163.326.49.49.49.49l.327.326.163-.326s0-.163.163-.326c.164-.163.164-.327.327-.653s.163-.489.327-.815c.817.163 1.797-.163 1.96-.163v-.163zm-6.208-3.098c-.163-.326-.163-.489-.163-.489h.49c.326 0 .817 0 1.143.163 0 .163-.163.326-.163.49v.488c-.163 0-.327 0-.49.163-.164 0-.327.163-.49.326 0-.489-.164-.815-.327-1.14zm1.47 1.468v.326l-.163.163c-.163.163-.163.326-.163.652 0 .163 0 .326.163.489h-1.307c-.327 0-.654-.163-.654-.163s0-.163.164-.163v-.652s0-.163.163-.163l.163-.163.164-.163.163-.163c.164-.163.327-.163.327-.326.163 0 .327-.163.49-.163v.162c.49 0 .49 0 .49.327 0-.163 0 0 0 0zm2.288-.653c.163-.163.163-.326.163-.652v-.489h1.634v.815s0 .163-.163.163c0 0 0 .163-.164.163 0 0 0 .163-.163.163l-.164.163c-.163.164-.163.327-.326.327-.164.163-.327.163-.49.163v-.816c-.327.163-.327.163-.327 0zm-1.96-1.14v-.164s0-.163.162-.163c0 0 0-.163.164-.163 0 0 0-.163.163-.163v-.815s.164.163.327.489c.163.326.327.815.49 1.141v.49c0 .162 0 .325-.163.488h-.327c-.163 0-.327.163-.327.326 0-.162-.163-.326-.163-.489-.49-.652-.49-.815-.327-.978zm1.633 2.119c-.163.489-.817.652-1.307.326l-.49-.49c0-.162 0-.489.163-.651.163-.164.327-.327.49-.327.164 0 .49 0 .654.163.653 0 .817.49.49.979zm.163 1.63s0 .163-.163.163c0 0 0 .163-.163.163v.815l-.49-.489c-.327-.326-.49-.815-.654-1.141 0-.163-.164-.326-.164-.49 0-.162 0-.325.164-.488 0 .163.163.163.327.163h.326l.164.163.49.489c.163 0 .327.163.49.163l-.327.49zm1.47-.326h-1.306c-.164 0-.327-.163-.49-.163-.164-.163-.327-.163-.327-.326.163 0 .326-.163.49-.163h.327c.163 0 .49-.163.653-.163.164-.163.327-.163.327-.326.327.326.49.652.653.978.164.326.327.49.327.49s-.326-.49-.653-.327zm9.967 2.608l-.327-.326s-.653-.816-1.307-1.142c0-.163.163-.489.163-.815 0-.326.164-.489.164-.652v-.652h-.327s-.327 0-.654.163c-.326.163-.653.163-1.143.326-.49-.652-1.144-1.304-1.144-1.304l-.163-.163-.164.326s0 .163-.163.326c0 .163-.163.489-.327.652-.163.326-.163.489-.163.815-.327 0-.817.163-1.144.163-.327 0-.653.163-.653.163l-.327.163.163.326s.164.163.327.49c.163.326.49.652.817.815-.163.163-.163.489-.327.815-.163.326-.163.489-.163.652v.652h.327s1.143 0 1.96-.326c.327.326.654.652.98.815.327.163.49.326.49.326l.327.163.164-.326s0-.163.163-.326c0-.163.163-.489.163-.652 0-.326.164-.489.164-.815.817-.163 1.797-.652 1.797-.652h.327zm-1.96-3.098c.326-.163.49-.163.49-.163v1.467c0 .163-.164.326-.327.49-.164.162-.327.162-.49.325v-1.793c0-.163-.164-.326-.164-.49-.327.327.164.164.49.164zm-.981 2.609c-.163.489-.653.815-1.144.652-.49-.163-.817-.652-.653-1.142.163-.489.653-.815 1.143-.652.49.163.817.652.654 1.142zm-2.124-1.63v-1.632l.163.163c0 .163.164.163.327.326.327.326.654.652.817.978.164.163.164.326.164.49v.488h-.817c-.164.163-.164.326-.327.49-.164-.163-.164-.327-.164-.49-.163-.489-.326-.652-.163-.815zm-1.634.814c-.163-.163-.163-.326-.163-.326 0-.163-.163-.163-.163-.163h.163c.163 0 .163 0 .327-.163.326 0 .816-.163 1.143-.163v.49c0 .162.164.325.164.488-.164 0-.327.163-.49.327-.164.163-.164.163-.327.489-.164-.49-.49-.816-.654-.979zm.98 2.772h-.653v-1.141s0-.163.163-.163c0 0 0-.163.164-.163.163-.163.163-.326.326-.326.164-.163.327-.163.49-.163v1.793c0 .163.164.326.164.49.163-.49-.327-.327-.654-.327zm3.268-.489v1.304s-.327-.163-.653-.489l-.98-.978c-.164-.163-.164-.326-.164-.49v-.488c.163 0 .163.163.327.163h.327l.163.163c.163.163.327.326.653.326h.49c0 .489-.163.489-.163.489zm1.47-.815c-.326.163-.816.326-1.306.326h-.49c-.164 0-.327-.163-.49-.163.163 0 .326-.163.49-.326h.163c.163 0 .327-.163.49-.326.163-.163.163-.326.327-.49.326.163.653.49.817.653l.326.326h-.326zM16.054 69.99c-.326-.326-.816-.163-.98 0-.163.326-.163.653.164.979.163.163.327.163.49.163.163 0 .326-.163.49-.327.163-.163.163-.326.163-.489l-.327-.326zm8.659 5.055c-.326-.163-.816 0-.98.326-.163.326 0 .815.49.815.327.163.817 0 .98-.326a.896.896 0 00-.49-.815zm9.803 2.609c-.326 0-.816.163-.816.489 0 .326.163.652.653.815.327 0 .817-.163.817-.49 0-.488-.327-.814-.654-.814zM19.65 65.261c.162.163.326.163.489.163.163 0 .327-.163.49-.326.163-.163.163-.326.163-.489 0-.163-.163-.326-.163-.489-.327-.163-.653-.163-.817.163-.49.49-.49.815-.163.978zm7.351 4.24c.327.163.653 0 .816-.326.164-.326 0-.652-.326-.815-.327-.163-.653 0-.817.326-.163.326 0 .815.327.815zm8.986 1.629c0-.325-.164-.651-.49-.651-.327 0-.654.163-.654.652 0 .326.164.652.49.652.327 0 .49-.163.654-.652zM5.434 51.729c.327.163.49.326.49.326l.327.163.164-.326s0-.326.163-.652c.163-.327.163-.816.163-1.142.164 0 .49-.163.817-.163.327-.163.49-.163.654-.326.163 0 .326-.163.326-.163l.327-.163-.163-.326s-.654-.652-1.307-1.141c.327-.653.49-1.63.49-1.63v-.327h-.654c-.163 0-.49 0-.653.163-.327 0-.49.163-.817.163-.49-.652-1.144-1.304-1.144-1.467l-.163-.163-.163-.163-.164.163v.163s-.49.978-.653 1.793c-.164 0-.49 0-.817.163-.327 0-.49.163-.654.163-.163 0-.326.163-.326.163l-.327.163.163.327s.654.978 1.307 1.467c-.327.815-.327 1.956-.327 1.956v.327h.654c.163 0 .49-.163.653-.163.327-.163.49-.163.817-.327.327.49.654.816.817.979zm2.614-2.772l.327.326h-1.96c-.164 0-.327-.163-.49-.163h.163c.163 0 .163-.163.163-.163l.164-.163v-.326h.163c.163 0 .327-.163.49-.326.163-.163.163-.326.327-.49.163.816.49 1.142.653 1.305zm-2.614.49c-.49.162-.98-.164-1.143-.653-.164-.49.163-.978.653-1.141.49-.163.98.163 1.144.652 0 .489-.164.978-.654 1.141zm.49-2.773c.164 0 .164 0 .327-.163h1.307s0 .326-.163.652c-.164.327-.327.816-.49 1.142 0 .163-.164.326-.327.326-.163.163-.327.163-.49.326v-.815h-.49c0-.163.163-.326.326-.49.164-.162.327-.162.49-.325-.653-.653-.653-.653-.49-.653zm-1.797-.978c.164-.326.164-.49.164-.49s.163.164.326.49c.164.163.49.49.654.815-.164.163-.327.163-.49.326-.164.163-.164.326-.327.326C4.291 47 4.127 47 3.964 47c-.164 0-.327 0-.49-.163.49-.326.49-.815.653-1.14zM1.84 47.49h2.124c.163 0 .327.163.49.326h-.163c-.164 0-.164.163-.164.163l-.163.163v.326H3.8c-.163 0-.326.163-.49.326-.163.163-.163.326-.326.489-.654-.815-1.144-1.793-1.144-1.793zm2.45 3.26s-.163 0-.163.163H2.984v-.652c0-.489.163-.978.326-1.304 0-.163.164-.326.327-.49.163-.162.327-.162.49-.325v1.467c0 .163.164.326.327.49 0 .651-.163.651-.163.651zm.164-.652v-.489c.163.163.327.163.49.163h.327l.163.163c.164.163.327.326.654.326h.49c0 .326-.163.816-.163 1.142 0 .326-.164.489-.164.489s-.327-.163-.49-.49c-.327-.325-.654-.651-.98-.978-.164 0-.327-.163-.327-.326zm6.373 9.947v-1.957c.163-.163.49-.163.653-.326.163-.163.49-.326.654-.49.163-.162.326-.162.326-.162l.327-.163-.327-.163s-.163-.163-.49-.326l-.98-.49c0-.326 0-.815.163-1.14v-.98l-.326.163s-.164 0-.327.163c-.164 0-.49.163-.654.326-.326.163-.49.326-.653.326-.164-.163-.327-.326-.49-.326-.164-.163-.327-.163-.49-.326-.327-.163-.49-.326-.49-.326l-.327-.163v.326s0 .326-.164.652v1.304c-.163 0-.49.163-.817.326-.326.164-.49.327-.653.327a.508.508 0 01-.327.163l-.327.163.327.326.49.489c.327.163.654.49 1.144.652v1.304c0 .326.163.653.163.653l.164.326.326-.163s.164 0 .327-.163.327-.163.654-.326c.326-.163.49-.327.653-.49.164.163.327.327.49.327.164.163.327.163.49.326.327.163.654.163.654.163l.327.163-.49-.49zm-2.124-4.729l.163-.163s.163 0 .163-.163c0 0 .164 0 .164-.163 0 0 .163 0 .163-.163h.98v.652c0 .326 0 .816-.163 1.305 0 .163-.163.326-.163.489-.164.163-.164.326-.327.326v-.815h-.49c0-.163 0-.327.163-.49-.817-.652-.817-.815-.653-.815zm.49 2.609c-.49.326-.98.163-1.307-.326-.327-.49-.164-.978.327-1.304.49-.163.98 0 1.143.326.327.489.164 1.14-.163 1.304zm-2.288-2.772v-.489c0-.326.164-.49.164-.49s.163.164.49.327c.163.163.327.163.49.326.163.163.327.163.49.326l-.326.326c-.164.163-.164.326-.164.49-.163 0-.327-.164-.49-.164h-.49c-.164-.163-.164-.326-.164-.652zm-.163 2.935c-.327-.163-.817-.49-.98-.652a2.023 2.023 0 01-.49-.326s.163 0 .163-.163h.654s.163 0 .163-.163c0 0 .163 0 .163-.163h.817c.164 0 .327 0 .49.163l-.163.163v.489l-.163.163-.49.489c0-.49-.164-.326-.164 0zm1.634 1.304l-.163.163s-.164 0-.164.163h-.98s0-.326-.164-.652v-1.304c0-.163.164-.326.164-.49.163-.162.163-.325.327-.325 0 .163 0 .163.163.326v.489c0 .163.163.49.163.652.49.652.654.815.654.978.163 0 0 0 0 0zm2.124.653l-.654-.327c-.326-.163-.817-.326-1.143-.652l-.327-.326c-.163-.163-.163-.326-.163-.489.163 0 .326.163.49.163h.49c.163.163.49.163.653.163.164 0 .327 0 .49-.163v1.142c.164.326.164.489.164.489zm0-1.957s-.164 0-.164.163c-.163 0-.326.163-.49.163-.163 0-.326 0-.49-.163l.164-.163.163-.163v-.489l.163-.163.49-.49c0-.162.164-.325.164-.489l.98.49c.327.163.49.326.49.326s-.163 0-.163.163h-.654s-.163 0-.163.163c0 0-.163 0-.163.163 0 .326-.164.326-.327.489zM.533 43.903c-.326 0-.653.326-.49.815 0 .489.327.652.817.652.327 0 .653-.49.49-.815 0-.49-.327-.652-.817-.652zm2.451 9.781c-.326.163-.49.49-.326.979.163.326.49.489.816.489.327-.163.49-.49.327-.978 0-.49-.49-.653-.817-.49zm5.555 8.969c-.163 0-.327 0-.49.163-.163.163-.163.326-.327.489 0 .163 0 .326.164.489.326.326.653.326.98.163.326-.163.326-.652 0-.978 0-.163-.164-.326-.327-.326zm-.817-19.565c-.327 0-.653.326-.653.652s.326.49.653.49c.326 0 .653-.327.653-.653s-.327-.489-.653-.489zm1.961 7.989c-.327.163-.49.489-.327.815.163.326.49.49.816.326.327-.163.49-.489.327-.815 0-.326-.49-.49-.816-.326zm3.921 8.151c.163.327.653.327.816 0 .327-.163.327-.652.164-.815-.164-.163-.327-.163-.49-.163-.164 0-.327 0-.49.163-.164.163-.164.326-.327.49l.327.325zM5.435 22.217c.164.163.327.163.654.326.326.163.49.163.817.326-.164.816.163 1.794.163 1.957v.326l.327-.163s.817-.49 1.47-.978c.164.163.49.326.654.489.327.163.49.163.653.326.164 0 .327.163.327.163l.327.163v-2.12c.817-.326 1.47-.815 1.634-.815l.326-.163-.326-.163s-.164-.163-.327-.163c-.164-.163-.327-.326-.654-.49-.326-.162-.49-.325-.653-.325 0-.49.163-.816.163-1.142v-.978l-.326.163s-.327.163-.654.163c-.327.163-.817.326-1.144.652a2.253 2.253 0 00-.653-.489c-.164-.163-.49-.326-.654-.326-.163-.163-.327-.163-.327-.163l-.326-.163-.164.326s-.326 1.142-.163 1.957c-.327.163-.817.489-1.144.652-.327.163-.49.489-.49.489l-.327.326.327.163c.163-.489.327-.326.49-.326zM7.723 24.5c-.327.163-.49.326-.49.326s0-.326-.164-.652v-1.305c0-.163.163-.326.163-.489.164-.163.164-.326.327-.326 0 .163 0 .326.164.49v.325c0 .163.163.49.163.652.163.163.163.326.327.326 0 .163-.327.49-.49.653zm.326-3.261l.49-.49c.164 0 .49 0 .654.164.163.163.327.326.327.489 0 .163 0 .489-.164.652-.163.49-.817.49-1.143.326-.327-.163-.49-.652-.164-1.141zm2.451 3.26h-.98s-.164 0-.164-.162c0 0-.163 0-.163-.163 0 0-.163 0-.163-.163l-.164-.163c-.163-.163-.327-.163-.327-.327-.163-.163-.163-.326-.163-.489h.98l.164.163c.163.163.327.163.653.163h.49V24.5c-.163-.163-.163 0-.163 0zm.164-3.586s.163 0 .163.163c0 0 .163 0 .163.163 0 0 .164 0 .164.163h.816s-.163.163-.49.326c-.326.163-.817.326-1.143.49h-.49c-.164 0-.327 0-.49-.164v-.326c0-.163-.164-.326-.327-.326.163 0 .326-.163.49-.163.163 0 .327 0 .49.163.49-.652.654-.652.654-.49zm-.49-1.957c.326-.163.49-.163.49-.163v.652c0 .326 0 .816-.164 1.142-.163 0-.327-.163-.49-.163h-.49c0-.163 0-.326-.164-.49 0-.163-.163-.326-.326-.489.326-.163.817-.326 1.143-.489zm-3.105.815v-.652c0-.326.163-.652.163-.652s.164 0 .164.163h.653s.164 0 .164.163l.163.163.163.163.164.163c.163.163.163.326.327.326 0 .163.163.326.163.49h-.98l-.164-.164c-.163-.163-.326-.163-.653-.163-.164 0-.327 0-.49.163.163.326.163 0 .163-.163zm-1.144 1.63c.327-.325.817-.488 1.144-.651.163 0 .327-.163.49-.163.164 0 .327 0 .49.163-.163 0-.163.163-.163.326v.326l-.163.163-.49.489c0 .163-.164.326-.164.49h-.163s-.164 0-.164-.164c0 0-.163 0-.163-.163h-.817s-.163-.652.163-.815zM2.003 31.675c.164 0 .49.163.654.163.327 0 .49.163.817.163.163.815.653 1.794.653 1.794l.164.326.326-.327s.817-.652 1.144-1.467c.163.163.49.163.817.163.327 0 .49.163.654.163h.653v-.326s0-.326-.163-.652c-.164-.326-.164-.652-.327-1.141.653-.49 1.307-1.142 1.307-1.142l.163-.163-.326-.163s-.164 0-.327-.163c-.164 0-.49-.163-.654-.326-.326-.163-.49-.163-.817-.163 0-.49-.163-.815-.163-1.141 0-.326-.163-.652-.163-.652l-.164-.327-.327.163s-.163.164-.49.327a1.975 1.975 0 00-.817.815c-.163-.163-.49-.163-.816-.326-.327-.163-.49-.163-.654-.163h-.654v.326s0 1.141.327 1.956c-.327.326-.653.652-.817.979-.163.326-.326.489-.326.489l-.164.326.327.163c0 .163 0 .326.163.326zm2.778 1.467l-.327.326-.327-.652c-.163-.326-.326-.815-.326-1.304v-.49c0-.162.163-.325.163-.488 0 .163.163.326.327.489v.163c0 .163.163.326.326.489.164.163.327.163.49.326.164.652 0 .978-.326 1.141zm-.49-3.098c.163-.489.653-.815 1.143-.652.49.163.817.652.654 1.142-.164.489-.654.815-1.144.652-.49-.163-.817-.652-.653-1.142zm3.267 1.957c.164.326.164.49.164.49H6.415s-.164 0-.164-.164c-.163 0-.327-.163-.49-.326-.163-.163-.163-.326-.327-.49h1.798c.163 0 .326-.162.49-.162-.49 0-.327.326-.164.652zm-.817-3.098h1.634l-.163.163c-.164 0-.164.163-.327.326-.327.326-.654.652-.98.816-.164.163-.327.163-.49.163h-.49v-.816c-.164-.163-.327-.163-.49-.326.163-.163.326-.163.49-.163h.49c.163-.163.326-.163.326-.163zm-.98-1.63c.163-.163.327-.163.327-.163.163 0 .163-.163.163-.163v.163c0 .163 0 .163.164.326 0 .326.163.815.163 1.141h-.49c-.164 0-.327.163-.49.163 0-.163-.164-.326-.327-.489-.163-.163-.163-.163-.49-.326.327-.163.653-.49.98-.652zm-2.777.978v-.652h1.143s.164 0 .164.163c0 0 .163 0 .163.163.163.163.327.163.327.326.163.163.163.326.163.49H3.147c-.163 0-.327.162-.49.162.327.163.327-.326.327-.652zm-.654 2.446l.98-.979c.164-.163.327-.163.49-.163h.49c0 .163-.163.163-.163.326v.326l-.163.163c-.163.164-.327.327-.327.653v.489h-1.47s-.164-.49.163-.815zM.697 37.218v.326s.326 1.141.816 1.793v.163c-.49.652-.816 1.63-.816 1.63v.327h1.307c.326 0 .49 0 .817-.163.326.815.98 1.467.98 1.63l.163.163.164.163.163-.163.163-.163s.49-.815.817-1.63h2.124v-.326s-.327-.816-.817-1.468c.49-.652.98-1.467.98-1.467v-.326H5.435c-.327-.816-.817-1.63-.817-1.63l-.164-.327-.326.326s-.654.816-.98 1.63c-.164 0-.49-.162-.818-.162h-.98l-.653-.326zm2.124 2.771c-.164.164-.164.49-.164.653 0 .163 0 .326.164.489H1.35s.327-1.142.98-1.794v-.163l.327-.326c.164-.163.327-.163.49-.163 0 .163 0 .163-.163.326v.163l-.163.815zm.163-.652c0-.489.49-.978.98-.978s.817.49.817.978c0 .49-.327.815-.817.815-.49.163-.817-.163-.98-.815 0 .163 0 .163 0 0zm1.144 3.587l-.49-.489c-.164-.326-.49-.815-.654-1.141 0-.163-.163-.326-.163-.49 0-.162 0-.326.163-.489.163.163.327.327.49.327h.327l.163.163.49.489c.164 0 .327.163.49.163a26.218 26.218 0 01-.816 1.467zm2.777-1.956H5.27c-.163 0-.327 0-.49-.163-.163-.163-.327-.163-.327-.327h.164c.163 0 .163 0 .327-.163h.163l.163-.163v-.163h.164c.163 0 .49 0 .653-.163.164 0 .327-.163.327-.326.163.652.49 1.468.49 1.468zm-1.797-3.261h1.634s-.49.978-.98 1.63c-.164.163-.164.163-.327.163-.164.163-.327.163-.49.163v-.652c-.164-.163-.327-.163-.49-.163.163-.163.163-.326.326-.326s.327-.163.49-.163c-.327-.652-.163-.652-.163-.652zm-.98-1.794s.49.816.817 1.468c-.164 0-.327.163-.49.163-.164 0-.327.163-.327.326-.164-.163-.164-.326-.327-.326-.164-.163-.327-.163-.49-.163.163-.653.817-1.468.817-1.468zm-3.105 1.63c.164 0 .164 0 0 0h1.634c.164 0 .327.164.49.164.164.163.327.163.327.326h-.163c-.164 0-.164 0-.327.163H2.82l-.164.163-.163.163H2.33c-.163 0-.49 0-.653.163-.163 0-.327.163-.49.326.163-.489-.164-1.467-.164-1.467zm7.026-21.195c.163.163.327.163.49.163.163 0 .327-.163.49-.326.326-.326.163-.815 0-.978-.327-.163-.653-.163-.98.163-.163.163-.163.326-.163.49-.164.162 0 .325.163.488zm-4.902 8.805c.327.163.654 0 .817-.49.163-.326 0-.814-.327-.978-.326-.163-.816 0-.816.49-.164.326 0 .815.326.978zM.533 35.099c.327 0 .654-.326.817-.652 0-.327-.163-.816-.49-.816-.327 0-.653.163-.817.653 0 .489.164.815.49.815zm13.234-14.512c.164.163.327.163.49.163.163 0 .327-.163.49-.163.163-.326.163-.652-.163-.815-.327-.163-.653-.163-.817 0-.163.163-.163.326-.163.49 0 0 0 .162.163.325zm-3.595 6.033c-.326-.163-.653 0-.816.326-.163.326 0 .652.327.815.326.163.653 0 .816-.326.163-.326 0-.652-.327-.815zm-2.286 8.152c-.327 0-.654.163-.654.489 0 .326.164.652.654.652.326 0 .653-.163.653-.49 0-.325-.327-.651-.653-.651zM35.987 4.447s.817.489 1.634.815v2.12h.327s.817-.327 1.47-.816c.654.49 1.47.979 1.47.979h.328v-2.12a13.227 13.227 0 001.633-.815l.327-.163-.327-.326s-.816-.653-1.633-.979c0-.163.163-.489.163-.815V1.023h-.327s-1.143.326-1.797.815h-.163c-.654-.49-1.634-.815-1.634-.815h-.327v1.304c0 .326 0 .49.163.815-.816.326-1.47.979-1.633.979l-.164.163-.163.163s.49-.163.653 0c0-.163 0 0 0 0zm1.961 2.608c0-.163 0-.163 0 0 0-.163 0-.163 0 0 0-.163 0-.163 0 0v-1.63c0-.163 0-.326.163-.49.164-.162.164-.325.327-.325v.163c0 .163 0 .163.164.326v.163l.163.163h.163v.163c0 .163 0 .49.164.652 0 .163.163.326.327.326-.654 0-1.471.49-1.471.49zm.817-3.097c0-.49.327-.816.817-.979h.163c.49 0 .98.49.98.979s-.49.815-.98.815c-.653.163-.98-.326-.98-.815zm2.45 1.793v1.141s-.98-.489-1.633-.978c-.163-.163-.163-.163-.163-.326-.164-.163-.164-.326-.164-.49h.654c.163-.162.163-.325.163-.488.163.163.327.163.327.326s.163.326.163.489v.326c.654-.163.654-.163.654 0zm.327-2.609c.817.326 1.47.979 1.47.979s-.816.489-1.47.815c0-.163-.163-.326-.163-.49 0-.162-.163-.325-.327-.325.164-.163.327-.163.327-.326.163-.327.163-.49.163-.653zm0-2.12c0 .164 0 .164 0 0 0 .164 0 .164 0 0v1.632c0 .163-.163.326-.163.49-.163.162-.163.325-.327.325v-.163c0-.163 0-.163-.163-.326v-.163l-.164-.163-.163-.163v-.163c0-.163 0-.489-.163-.652 0-.163-.164-.326-.327-.49.49.164 1.47-.162 1.47-.162zm-3.92.816c0-.163 0-.163 0 0v-.652s1.143.326 1.797.978h.163l.327.326c.163.163.163.326.163.49-.163 0-.163 0-.327-.164h-.49c-.163-.163-.49-.163-.653-.163-.164 0-.327 0-.49.163v-.652l-.49-.326c.163 0 0 0 0 0zm-.981 1.957c.327-.164.817-.49 1.144-.653.163 0 .326-.163.49-.163.163 0 .327 0 .49.163l-.327.326v.327l-.163.163-.49.489c0 .163-.164.326-.164.489-.653-.163-1.47-.815-1.47-.815s.163-.163.49-.326zm-8.986 2.933c.327.163.817.163 1.143.163 0 .163.164.49.164.816.163.326.163.489.327.652 0 .163.163.326.163.326l.163.326.327-.163s.654-.652 1.144-1.304c.653.326 1.634.489 1.634.489h.326v-.652c0-.163 0-.49-.163-.653 0-.326-.163-.489-.163-.815.653-.489 1.307-1.141 1.47-1.141l.163-.163.164-.163-.164-.163h-.163s-.98-.49-1.797-.652c0-.163 0-.49-.163-.816 0-.326-.164-.489-.164-.652 0-.163-.163-.326-.163-.326l-.164-.326-.326.163s-.98.652-1.47 1.304c-.818-.326-1.961-.326-1.961-.326h-.327v.652c0 .164.163.49.163.653.164.326.164.489.327.815l-.817.815c-.163.326-.327.49-.327.49l-.163.325.327.163c-.164 0 .163 0 .49.163zm2.287 1.305l-.327.326V6.401c0-.163.164-.326.164-.489v.163c0 .163.163.163.163.163l.163.163h.327v.163c0 .163.164.326.327.49.163.163.327.163.49.326-.817.163-.98.489-1.307.652zm.163-3.75c.49-.163.98.163 1.144.652.164.49-.163.978-.653 1.141-.49.163-.98-.163-1.144-.652 0-.49.163-.978.653-1.141zm2.451 2.771v.653s-.326 0-.653-.163-.817-.326-1.144-.49c-.163-.163-.327-.163-.327-.326-.163-.163-.163-.326-.326-.489h.815c0-.163.164-.326 0-.489.164 0 .327.163.49.326.164.163.164.326.327.49v.652c.817-.49.817-.49.817-.164 0-.163 0-.163 0 0 0-.163 0-.163 0 0zm-.49-2.608c0-.163 0-.326.163-.49.327 0 .817.164 1.144.327.327.163.49.163.49.163l-.326.326c-.164.163-.49.489-.817.652-.164-.163-.164-.326-.327-.49l-.327-.325c-.163.163-.163 0 0-.163zm-.653-2.609s0 .163 0 0c0 .163 0 .163 0 0 0 .163 0 .163 0 0v2.12c0 .163-.164.326-.327.489v-.163c0-.163-.164-.163-.164-.163l-.163-.163h-.327v-.163c0-.163-.163-.326-.326-.49-.164-.163-.327-.163-.49-.326.98-.489 1.797-1.141 1.797-1.141zm-3.268 1.957c-.163 0-.163 0 0 0v-.979h.653c.49 0 .98.163 1.308.326.163 0 .326.163.49.326.163.164.163.327.326.49h-1.47c-.163 0-.327.163-.49.326 0 0 0-.163-.163-.163v-.163c-.654 0-.654 0-.654-.163zm-.654 1.793l.98-.978c.164-.163.328-.163.49-.163h.491c-.163.163-.163.326-.163.489v.326l-.164.163c-.163.163-.163.326-.326.652v.49c-.327 0-.817-.164-1.144-.164-.327-.163-.49-.163-.49-.163s0-.326.326-.652zm-3.104 1.141H23.08c0-.163-.163-.489-.326-.815-.164-.326-.327-.49-.327-.652-.163-.163-.163-.326-.163-.326l-.164-.326-.327.326-.49.489c-.163.326-.49.652-.653 1.141h-1.307c-.327 0-.654.163-.654.163h-.327l.164.326s0 .163.163.326.163.327.327.653c.163.326.327.489.49.652-.163.163-.327.326-.327.489-.163.163-.163.326-.326.489-.164.326-.164.652-.164.652l-.163.326h2.287c.163.163.163.49.327.652.163.164.327.49.49.653.163.163.163.163.163.326l.164.326.163-.326s.163-.163.327-.49l.49-.978c.327 0 .817 0 1.144.163h.98l-.163-.326s0-.163-.164-.326c0-.163-.163-.489-.326-.652-.164-.326-.327-.49-.327-.652.163-.163.326-.326.326-.49.164-.162.164-.325.327-.488.164-.326.327-.49.327-.49l.163-.326h-.326c0-.326-.164-.326-.49-.489zM21.61 5.75c.163-.326.327-.49.327-.49s0 .164.163.164v.652s0 .163.164.163c0 0 0 .163.163.163v.816c0 .162 0 .325-.163.488l-.164-.163h-.49l-.163-.163-.49-.489c-.164 0-.327-.163-.49-.163.653-.326.816-.652 1.143-.978zm.654 3.75c-.49.163-.98.163-1.308-.326-.326-.49-.163-.978.327-1.304.49-.327.98-.163 1.307.326.164.489 0 .978-.326 1.304zM20.63 8.196c0 .163-.164.326-.164.489v.489c-.163.163-.163.489-.163.652 0 .163 0 .326.163.49h-1.633l.326-.653c.164-.326.327-.815.654-1.141l.327-.326c.163.163.326.163.49 0zm0-.163c-.164 0-.49.163-.654.163-.163.163-.327.163-.49.326l-.163-.163-.164-.163s0-.163-.163-.163v-.979s.327 0 .653-.163h1.307c.164 0 .327.163.49.163.164.163.327.163.327.326-.163 0-.163 0-.326.163h-.327l-.49.49zm1.634 3.587c-.164.326-.327.489-.327.489s0-.163-.164-.163v-.653s0-.163-.163-.163c0 0 0-.163-.163-.163 0 0 0-.163-.164-.163v-.163c0-.163-.163-.326-.163-.489 0-.163 0-.326.163-.489l.164.163.163.163h.49l.164.163.49.49c.163 0 .326.162.49.162-.654.163-.817.49-.98.816zm1.797-2.283c0 .163.163.163.163.163v.978h-.653c-.327 0-.817 0-1.307-.163-.164 0-.327-.163-.49-.163-.164-.163-.327-.163-.327-.326h.817v-.49c.163 0 .326 0 .49.164a.35.35 0 01.326.326l.164.163s0 .163.163.163c.654-.978.654-.815.654-.815zm.49-1.63c-.163.163-.163.326-.327.489-.163.163-.163.326-.327.489l-.326-.326c-.164-.163-.327-.163-.49-.163 0-.163.163-.326.163-.49v-.489h1.143c.327 0 .49.163.49.163s-.163 0-.326.326zm-6.862 7.173l-.49-.49c-.164-.162-.327-.488-.654-.488.163-.326.327-.816.49-1.142.163-.326.163-.652.163-.652l.164-.326h-.981c-.326 0-.816.163-1.143.326-.164-.163-.327-.489-.49-.652l-.49-.49-.164-.162-.327-.163-.163.326s-.49.978-.654 1.793h-.163c-.817.164-1.797.653-1.797.653s-.164 0-.164.163c-.163 0-.163.163-.163.163l.163.326.164.163.49.489c.163.163.49.326.653.49-.326.814-.326 1.793-.326 1.793v.326l.326-.163s.98-.163 1.798-.653c.163.163.327.326.49.653l.49.489c.163.163.327.163.327.163l.327.163v-.326s.326-.816.326-1.63v-.164c.817 0 1.634-.326 1.798-.326l.326-.163-.163-.326c0 .163 0 0-.163-.163zm-1.308-2.772h.491v.163c0 .163 0 .163-.164.326-.163.327-.163.653-.326 1.142-.164-.163-.327-.163-.49-.326h-.49v-.49c0-.163-.164-.326-.164-.489.49-.163.817-.326 1.143-.326zm-1.47 2.935a.79.79 0 01-1.144 0 .787.787 0 010-1.141c.327-.326.98-.326 1.307 0 .327.163.327.815-.163 1.141.163 0 .163 0 0 0zm-1.47-3.587c0-.163.163-.326.163-.326v-.163l.163.163.164.163.163.163.164.163.163.163.163.163.164.163s0 .163.163.163c0 0 0 .163.163.163.164.163.164.326.164.49v.489c-.164 0-.164-.164-.327-.164h-.49l-.163-.163c-.164-.162-.327-.326-.49-.326h-.49c-.164-.489 0-.978.162-1.304zm-1.308 3.261l-.163-.163-.163-.163-.164-.163-.163-.163-.163-.163-.164-.163s1.144-.49 1.96-.653h.654c.164 0 .327.163.49.327-.163 0-.163.163-.326.163h-.327c-.163 0-.327.163-.49.326-.164.163-.164.326-.327.489-.49.326-.654.326-.654.326zm0 2.12v-.653c0-.326.164-.815.327-1.304.164-.163.164-.326.327-.49.163-.162.327-.162.49-.325v1.467c0 .163.164.326.327.49-.654.652-1.47.815-1.47.815zm3.268.815c0-.163 0-.163 0 0 0-.163 0-.163 0 0 0-.163 0-.163 0 0-.163-.163-.163-.163 0 0l-.163-.163s-.164 0-.164-.163h-.326l-.164-.163-.163-.163-.163-.163-.164-.163-.163-.164-.164-.163c-.163-.163-.163-.326-.163-.489v-.489h.163c.164 0 .164.163.327.163h.49l.164.163c.163.163.326.326.49.326h.49c0 .652-.327 1.63-.327 1.63zm2.124-2.283c-.163 0-.327 0-.49.163-.327.163-.817.163-1.307.163h-.49c-.164 0-.327-.163-.49-.326h.326c0-.163-.163-.326-.163-.489h.49c.164 0 .327.163.49.163l.164.163.163.163.163.163.164.163.163.163.164.163v.489c.653-1.304.653-1.304.653-1.14.164-.164.164-.164 0 0h.164-.164zM34.516 1.348c.327 0 .654-.326.654-.815 0-.326-.327-.652-.817-.49-.327 0-.653.327-.653.816 0 .326.326.652.816.489zM24.387 2.653a.896.896 0 00-.49.815c.163.326.49.489.98.326a.897.897 0 00.49-.815c-.164-.326-.653-.326-.98-.326zm-8.333 6.359c.164-.163.327-.326.327-.49 0-.163 0-.326-.163-.489-.164-.163-.327-.163-.49-.326-.163 0-.327 0-.49.163-.327.326-.327.653-.163.979.326.326.653.326.98.163zm18.626-.979c0 .326.327.652.654.652.326 0 .49-.326.49-.652s-.327-.652-.654-.49c-.326-.325-.49 0-.49.49zm-7.515 1.304c-.327.163-.49.49-.327.815.163.327.49.49.816.327.327-.163.49-.49.327-.816a1.249 1.249 0 00-.816-.326zm-6.7 5.381c.164-.163.164-.326.164-.49 0-.162 0-.325-.164-.489-.163-.163-.326-.163-.49-.326-.163 0-.326 0-.49.163-.326.163-.326.652 0 .816.327.489.654.489.98.326zm40.846.978s.817.326 1.634.326h.163c0 .816.327 1.63.327 1.63l.163.327.327-.163s.164 0 .327-.163l.49-.49c.164-.162.49-.325.49-.488.327.163.817.326 1.144.489.327.163.653.163.653.163l.327.163v-.978c0-.327-.163-.816-.326-1.142.163-.163.49-.326.653-.489l.49-.489.163-.163.164-.326-.327-.163s-.98-.49-1.797-.652v-.163c-.163-.816-.654-1.794-.654-1.794s0-.163-.163-.163c0-.163-.163-.163-.163-.163l-.327.163-.163.163-.49.49c-.164.162-.327.488-.49.651-.818-.326-1.798-.326-1.798-.326h-.327l.164.326s.163.979.653 1.794a2.257 2.257 0 01-.653.489l-.49.49c-.164.162-.164.325-.164.325l-.163.326c-.164-.163 0 0 .163 0zm3.921.653l-.163.163-.163.163-.164.163-.163.163-.164.163-.163.163h-.49v-.163c0-.163 0-.326-.163-.49-.164-.325-.164-.815-.164-1.304v-.489c0-.163.163-.326.163-.489v.326c.164 0 .327-.163.49-.163v.49c1.308.977 1.144 1.14 1.144 1.304zm.164-2.446c.326.326.326.978 0 1.304-.327.326-.98.326-1.307 0a.787.787 0 010-1.141c.326-.652.817-.652 1.307-.163 0-.163 0-.163 0 0zm1.633 2.609V17h-.163c-.163 0-.163 0-.327-.163-.326-.163-.653-.163-1.143-.326.163-.163.163-.326.326-.49v-.489h.49c.164 0 .327-.163.49-.163.164.326.164.815.328 1.142zm-.653-3.424c.49 0 .817.163 1.144.326.163 0 .326.163.326.163h.164l-.164.163-.163.163-.163.163-.164.163-.163.163-.163.163-.164.163s-.163 0-.163.163c0 0-.164 0-.164.163-.163.163-.326.163-.49.163h-.49c0-.163.163-.163.163-.326v-.489l.164-.163c.163-.163.327-.326.327-.49.163-.162.163-.325.163-.651zm-1.96-.979l.163-.163.163-.163.163-.163.164-.163.163-.163.164-.163s.49 1.141.653 1.957v.652c0 .163-.163.326-.327.489 0-.163-.163-.163-.163-.326l-.163-.163v-.163c0-.163-.164-.326-.327-.49-.163-.162-.327-.162-.49-.325-.327-.49-.164-.49-.164-.653zm-2.288 0h.654c.326 0 .98.163 1.307.326.163.163.326.163.49.326.163.164.163.327.327.49h-1.472c-.163 0-.327.163-.49.163-.654-.326-.817-1.305-.817-1.305zm-.653 3.261c.163 0 .163 0 0 0 .163-.163.163-.326.163-.326v-.326l.163-.163.164-.163.163-.163.163-.163.164-.163.163-.163c.164-.163.327-.163.49-.163h.49v.163c0 .163 0 .163-.163.326v.489l-.163.163c-.164.163-.327.326-.327.49v.488c-.654 0-1.47-.326-1.47-.326zm-2.941-8.479c-.163-.326-.49-.815-.653-1.141-.164-.326-.49-.49-.49-.49l-.327-.325-.164.326s0 .163-.163.326-.163.326-.327.652c-.163.326-.163.49-.327.815-.817-.163-1.797.163-1.96.163h-.327l.163.326s.49.816.98 1.468c-.163.163-.326.49-.326.652-.163.326-.163.49-.327.652 0 .163-.163.326-.163.326l-.164.326h2.124c.327.816.817 1.468.817 1.63l.164.327.163-.326s.163-.163.163-.326a2.25 2.25 0 00.49-.652c.164-.326.327-.49.327-.653.327 0 .817.163 1.144.163h.98l-.163-.326s-.163-.326-.163-.652c-.164-.326-.327-.815-.654-1.141a2.25 2.25 0 00.49-.652c.163-.163.327-.49.327-.652.163-.163.163-.327.163-.327l.164-.326-.327-.163c.327 0-.817-.163-1.634 0zm-3.921.816a2.017 2.017 0 00-.327-.49s.327 0 .654-.163h1.307c.163 0 .327.163.49.163.163.163.327.163.327.326-.164 0-.327 0-.49.164h-.327c-.164 0-.49.163-.654.163-.163.163-.327.163-.327.326-.326.163-.49-.163-.653-.49zm3.268.326l.49.489c0 .163 0 .489-.164.652-.163.163-.327.326-.49.326-.163 0-.49 0-.653-.163-.49-.163-.49-.815-.327-1.141.163-.326.653-.49 1.144-.163zm-1.634 1.304c-.164.163-.164.326-.164.652v.49H54.45v-.816s0-.163.163-.163c0 0 0-.163.163-.163 0 0 0-.163.164-.163l.163-.163c.163-.163.163-.326.327-.326.163-.163.327-.163.49-.163V9.5l.327-.163zm2.124 1.141v.163s0 .163-.164.163c0 0 0 .163-.163.163 0 0 0 .163-.163.163v.817s-.164-.163-.327-.49c-.164-.325-.327-.815-.49-1.14v-.49c0-.163 0-.326.163-.489V9.5h.327c.163 0 .327-.163.327-.326 0 .163.163.326.163.49.327.488.327.651.327.814zm0-2.445c0-.163-.164-.163-.327-.326h-.327l-.163-.164-.49-.489c-.164 0-.327-.163-.49-.163v-.163s0-.163.163-.163c0 0 0-.163.163-.163v-.814l.49.49c.164.325.49.814.654 1.14 0 .163.163.327.163.49a.504.504 0 01.164.326zm1.633 2.12c.164.325.164.488.164.488h-.49c-.327 0-.817 0-1.144-.163 0-.163.163-.326.163-.489V9.5c.164 0 .327 0 .49-.163.164 0 .327-.163.49-.326.164.49.328.815.328 1.141zm.49-2.936s-.163.163 0 0c-.163.163-.163.163 0 0 0 .163-.163.163-.163.163s0 .163-.163.163v.653s0 .163-.163.163l-.164.163-.163.163-.164.163c-.163.163-.326.163-.326.326-.164 0-.327.163-.49.163v-.978l.163-.163c.163-.163.163-.326.163-.653 0-.163 0-.326-.163-.489h1.307c0 .163.327.163.327.163zm-8.495-1.631a1.966 1.966 0 00-.817-.815c.163-.163.163-.49.327-.815.163-.326.163-.49.163-.652V2.65h-.327s-1.143 0-1.96.326c-.327-.326-.654-.652-.98-.815-.327-.163-.49-.326-.49-.326l-.328-.163-.163.326s0 .163-.163.326c0 .163-.164.49-.164.652 0 .327-.163.49-.163.816-.817.163-1.797.652-1.797.652l-.327.163.327.326s.653.815 1.307 1.141c0 .163-.164.49-.164.816 0 .326-.163.489-.163.652v.652h.327s.326 0 .653-.163.654-.163 1.144-.326c.49.652 1.144 1.304 1.144 1.304l.163.163.163-.326s0-.163.164-.326c0-.163.163-.49.327-.652.163-.326.163-.49.163-.815.327 0 .817-.163 1.144-.163.326 0 .653-.163.653-.163l.327-.164-.163-.326c0-.163-.164-.326-.327-.652zm-4.575-2.12V2.162s.327.163.654.49l.98.978c.163.163.163.326.163.489v.489c-.163 0-.163-.163-.326-.163h-.327l-.164-.163c-.163-.163-.326-.326-.653-.326h-.49l.163-.49zm2.287 1.957c-.163.49-.653.815-1.143.652-.49-.163-.817-.652-.654-1.141.164-.49.654-.815 1.144-.652.49.163.817.652.653 1.141zm-3.92-.489c-.164-.163-.49-.326-.49-.326l.653-.326c.326-.163.817-.326 1.307-.326h.49c.163 0 .327.163.49.163-.163 0-.327.163-.49.326h-.163c-.164 0-.327.163-.49.326-.164.163-.164.326-.327.49-.327.162-.654-.164-.98-.327zm1.143 2.609c-.327.163-.49.163-.49.163V6.238c0-.163.163-.326.327-.489.163-.163.326-.163.49-.326v1.794c0 .163.163.326.163.489.327-.326-.163-.163-.49-.163zm3.268-.979v1.631l-.164-.163c0-.163-.163-.163-.327-.326-.326-.326-.653-.652-.816-.979-.164-.163-.164-.326-.164-.489V5.75h.817c.163-.163.163-.326.327-.489.163.163.163.326.163.49.164.488.164.651.164.814zm-.164-1.14c0-.164 0-.164 0 0V3.63c0-.163-.163-.326-.163-.49.327-.163.817-.163 1.143-.326h.654v1.142s0 .163-.163.163c0 0 0 .163-.164.163-.163.163-.163.326-.327.326-.653.652-.816.815-.98.815zm1.96.977c-.163 0-.163 0-.326.163-.327 0-.817.163-1.144.163v-.489c0-.163-.163-.326-.163-.489.163 0 .327-.163.49-.326.164-.163.164-.163.327-.489l.817.815a.505.505 0 01.163.326c-.163.163 0 .163-.163.326.163-.163 0-.163 0 0zM62.945 9.01c.327.164.817.164.98 0 .163-.325.163-.651-.163-.978-.164-.163-.327-.163-.49-.163-.164 0-.327.163-.49.326-.164.164-.164.327-.164.49.164 0 .164.163.327.326zm-8.659-5.053c.326.163.816 0 .98-.326.163-.326 0-.815-.49-.815-.327-.163-.817 0-.98.326 0 .326.163.652.49.815zm-9.803-2.609c.326 0 .816-.163.816-.49 0-.326-.163-.652-.653-.815-.327 0-.816.163-.816.49 0 .488.326.815.653.815zm14.051 13.369c.326.163.653.163.816-.163.164-.326.164-.652 0-.816-.163-.163-.326-.163-.49-.163-.163 0-.326.164-.49.327-.163.163-.163.326-.163.489.163 0 .163.163.327.326zM51.998 9.5c-.326-.163-.653 0-.816.326-.164.326 0 .652.326.815.327.163.653 0 .817-.326.163-.326 0-.815-.327-.815zm-8.822-1.63c0 .326.164.652.49.652.327 0 .654-.163.654-.652 0-.326-.164-.652-.49-.652-.327 0-.654.163-.654.652zm30.389 19.403a2.024 2.024 0 01-.49-.326l-.327-.164-.163.326s0 .327-.164.653c-.163.326-.163.815-.163 1.141-.163 0-.49.163-.817.163-.327.163-.49.163-.654.326-.163 0-.326.163-.326.163l-.327.163.163.326s.654.652 1.308 1.142c-.327.652-.49 1.63-.49 1.63v.326h.653c.163 0 .49 0 .653-.163.327 0 .49-.163.817-.163.49.652 1.144 1.304 1.144 1.467l.163.163.164.163.163-.163v-.163s.49-.978.654-1.793c.163 0 .49 0 .817-.163.326 0 .49-.163.653-.163.163 0 .327-.163.327-.163l.327-.163-.164-.326s-.653-.979-1.307-1.468c.327-.815.327-1.956.327-1.956v-.326h-.654c-.163 0-.49.163-.653.163-.327.163-.49.163-.817.326-.163-.49-.654-.815-.817-.978zm-2.614 2.771l-.327-.326h1.961c.163 0 .327.163.49.163h-.163c-.164 0-.164.163-.164.163l-.163.163v.326h-.164c-.163 0-.326.163-.49.327-.163.163-.163.326-.326.489-.164-.816-.49-1.142-.654-1.305zm2.777-.489c.49-.163.98.163 1.144.652.163.49-.163.979-.653 1.142-.49.163-.98-.163-1.144-.652-.163-.49.163-.979.653-1.142zm-.653 2.772c-.163 0-.163 0-.327.163h-1.307s0-.326.163-.652c.164-.326.327-.815.49-1.142.164-.163.164-.326.327-.326.164-.163.327-.163.49-.326v.816c.164 0 .327.163.49 0 0 .163-.163.326-.326.489-.163.163-.327.163-.49.326.653.652.653.652.49.652zm1.797.978c-.163.326-.163.49-.163.49l-.327-.327c-.163-.326-.49-.489-.654-.815.164-.163.327-.163.49-.326l.327-.326c.164.163.327.163.49.163.164 0 .327 0 .49.163-.326.163-.49.652-.653.978zm2.287-1.793h-2.123c-.164 0-.327-.163-.49-.326h.163c.163 0 .163-.163.163-.163l.163-.163.164-.163v-.164h.163c.164 0 .327-.163.49-.326.164-.163.164-.326.327-.489.49.815.98 1.794.98 1.794zm-2.45-3.261s.163 0 .163-.163h1.144v.652c0 .49-.164.978-.327 1.304 0 .163-.163.326-.327.49-.163.163-.326.163-.49.326v-1.468c0-.163-.163-.326-.327-.489l.164-.652zm-.164.652v.49c-.163-.164-.326-.164-.49-.164h-.327l-.163-.163c-.163-.163-.327-.163-.653-.326h-.49c0-.326.163-.815.163-1.141 0-.326.163-.49.163-.49s.327.164.49.49l.98.978c.164 0 .327.163.327.326zm-6.372-9.946v1.957c-.163.163-.49.163-.653.326-.163.163-.49.326-.654.489-.163.163-.326.163-.326.163l-.327.163.327.163s.163.163.49.326l.98.49c0 .325 0 .815-.163 1.14v.979l.326-.163s.164 0 .327-.163c.163 0 .49-.163.654-.326.326-.163.49-.327.653-.327.164.164.327.327.49.327.164.163.327.163.49.326.327.163.49.326.49.326l.327.163v-.326s0-.326.164-.652v-1.305c.163 0 .49-.163.817-.326.326-.163.49-.326.653-.326.164-.163.327-.163.327-.163l.327-.163-.327-.326-.49-.49c-.327-.162-.654-.488-1.144-.652v-1.304c0-.326-.163-.652-.163-.652v-.326l-.327.163s-.163 0-.327.163c-.163.163-.327.163-.653.326-.327.163-.49.326-.654.49-.163-.164-.327-.327-.49-.327-.163-.163-.327-.163-.49-.326-.327-.163-.654-.163-.654-.163l-.326-.163.326.49zm2.124 4.728l-.163.163s-.163 0-.163.164c0 0-.164 0-.164.162 0 0-.163 0-.163.164h-.98v-.653c0-.326 0-.815.163-1.304 0-.163.163-.326.163-.49.164-.162.164-.325.327-.325v.814h.49c0 .163 0 .326-.163.49.98.651.817.814.653.814zm-.326-2.608c.49-.326.98-.163 1.307.326.326.489.163.978-.327 1.304-.49.163-.98 0-1.144-.326-.49-.49-.327-1.141.164-1.304zm2.123 2.608v.49c0 .326-.163.489-.163.489s-.163-.163-.49-.326c-.163-.164-.327-.164-.49-.326-.163-.164-.327-.163-.49-.327l.326-.326c.164-.163.164-.326.164-.489.163 0 .327.163.49.163h.49c.163.326.163.49.163.652zm.164-2.771c.327.163.817.489.98.652.327.163.49.326.49.326s-.163 0-.163.163h-.653s-.164 0-.164.163c0 0-.163 0-.163.163h-.817c-.164 0-.327 0-.49-.163l.163-.163v-.489l.163-.163.49-.49c.164.49.164.327.164 0zm-1.634-1.468l.163-.163s.164 0 .164-.163h.979s0 .326.163.652v1.305c0 .163-.163.326-.163.489-.163.163-.163.326-.327.326 0-.163 0-.163-.163-.326v-.489c0-.163-.163-.49-.163-.653-.49-.489-.654-.652-.654-.978-.163.163 0 .163 0 0zm-2.124-.489l.654.326c.326.163.817.326 1.143.652l.327.327c.163.162.163.326.163.489-.163 0-.326-.164-.49-.164h-.49c-.163-.163-.49-.163-.653-.163-.164 0-.327 0-.49.163v-1.141c-.164-.326-.164-.489-.164-.489zm0 1.957h.163c.164 0 .327-.163.49-.163.164 0 .327 0 .49.163l-.163.163-.163.163v.489l-.163.163-.49.489c0 .163-.164.326-.164.49l-.98-.49c-.327-.163-.49-.326-.49-.326s.163 0 .163-.163h.654s.163 0 .163-.163c0 0 .163 0 .163-.163.164-.49.164-.49.327-.652zm9.966 14.185c.327 0 .653-.326.49-.816 0-.489-.327-.652-.817-.652-.326 0-.653.49-.49.815.164.49.49.653.817.653zm-2.45-9.783c.326-.163.49-.489.326-.978a.898.898 0 00-.817-.49c-.326.164-.49.49-.326.98.163.325.49.651.817.488zm-5.392-8.968c.163 0 .326 0 .49-.163.163-.163.163-.326.326-.489 0-.163 0-.326-.163-.49-.327-.325-.653-.325-.98-.162-.327.163-.327.652 0 .978-.163.163 0 .326.327.326zm1.143 18.912c0-.325-.326-.488-.653-.488s-.653.326-.653.652.326.49.653.49c.49 0 .817-.327.653-.653zm-2.124-8.151c-.163-.326-.49-.49-.816-.326-.327.163-.49.49-.327.815.163.326.49.49.817.326.326-.163.49-.489.326-.815zm-4.248-7.337c-.163-.326-.653-.326-.816 0-.327.163-.327.652-.164.815.164.163.327.163.49.163.164 0 .327 0 .49-.163.163-.163.163-.326.327-.489-.163-.163-.163-.326-.327-.326z" fill="#F5EFDB"/><path d="M31.575 53.62c-.15 0-.3-.135-.45-.405-.15-.3-.165-.51-.045-.63l1.395-1.71c2.61-3.27 4.53-5.76 5.76-7.47 1.23-1.74 2.22-3.45 2.97-5.13.75-1.71 1.125-3.405 1.125-5.085 0-1.95-.435-3.375-1.305-4.275-.87-.9-2.055-1.35-3.555-1.35-1.44 0-2.655.375-3.645 1.125-.96.75-1.605 1.8-1.935 3.15 0 .03-.06.045-.18.045-.24 0-.345-.06-.315-.18.36-2.07 1.26-3.705 2.7-4.905 1.47-1.2 3.285-1.8 5.445-1.8 2.22 0 3.945.63 5.175 1.89 1.23 1.26 1.845 2.925 1.845 4.995 0 1.65-.39 3.27-1.17 4.86a22.539 22.539 0 01-2.79 4.365c-1.05 1.32-2.43 2.895-4.14 4.725-.15.15-.63.66-1.44 1.53-.78.84-1.425 1.605-1.935 2.295-.18.21-.12.315.18.315 3.39 0 5.865-.06 7.425-.18 1.56-.15 2.625-.435 3.195-.855.6-.45.915-1.155.945-2.115 0-.09.075-.135.225-.135.18 0 .27.045.27.135v6.3c0 .12-.045.24-.135.36a.303.303 0 01-.27.135H31.575z" fill="#AAA"/></svg>