<svg width="79" height="79" fill="none" xmlns="http://www.w3.org/2000/svg"><path d="M12.193 58.33s-.172-.175 0 0c-.172-.175-.343-.35-.343-.526-.172-.35-.344-.525-.344-.525 0-.526.172-1.051.172-1.577.515 0 1.374-.175 1.717-1.226.172-.525.172-1.226.172-1.926 0-.35 0-.701-.172-.876v-.701c-.515.35-2.404 1.752-2.748 2.627-.171.526-.171.876 0 1.227.172.35.515.525.687.7-.171.175-.171.526-.343.876 0 0-.172-.175-.344-.525l-.515-1.051-.515-1.051c0-.176-.172-.35-.172-.35v-.176l-.515-1.226c0-.35.343-1.051.515-1.577.515 0 1.374 0 1.89-.875.171-.35.343-1.051.343-1.752v-1.751c-.516.174-2.576 1.225-3.092 2.101-.171.175-.171.35-.171.526-.172.7.343 1.226.515 1.401-.172.175-.344.526-.515.7 0 0 0-.174-.172-.35 0-.175-.172-.35-.172-.7l-.343-1.051s0-.175-.172-.35c0-.176-.172-.35-.172-.35l-.343-1.227.687-1.401c.343.175 1.374.175 2.06-.701.344-.35.516-1.051.688-1.752.171-.7.343-1.226.343-1.576-.515.175-2.748.876-3.435 1.576-.687.876-.171 1.752 0 2.102-.171.175-.343.35-.515.701 0 0 0-.175-.172-.526 0-.35-.171-.7-.171-1.226 0-.35-.172-.875-.172-1.226v-1.751c.172-.35.687-.876.859-1.227.343.176 1.373.35 2.06-.35.344-.35.687-.876.86-1.576.343-.701.514-1.227.514-1.577-.687 0-2.92.35-3.606 1.051-.172.175-.344.35-.344.526-.343.7 0 1.226.172 1.576-.172.175-.343.35-.687.526v-4.38c.172-.35.687-.875 1.03-1.05.344.175 1.203.7 2.061 0 .344-.35.86-.876 1.203-1.402.343-.525.686-1.05.686-1.401-.686 0-2.919 0-3.778.525-.515.35-.687.701-.687 1.051s0 .701.172.876c-.172.175-.515.35-.687.526v-.526c0-.35.172-.7.172-1.226 0-.525.172-.876.172-1.226s.171-.526.171-.526v-.525c0-.35.172-.7.172-.7a5.254 5.254 0 011.202-.877c.344.35 1.03.876 2.061.35.172-.174.515-.35.687-.525l.687-.7c.515-.526.859-1.052 1.03-1.227-.343 0-1.03-.175-1.717-.35-.687 0-1.546 0-2.06.175-.173.175-.344.175-.516.35a1.352 1.352 0 00-.344.876v.701c-.171.175-.515.175-.858.35l.343-1.05c0-.176.172-.526.172-.701 0-.175.172-.35.172-.35l.343-.877v-.35s0-.175.172-.35c.172-.35.172-.526.172-.526.343-.35 1.03-.525 1.374-.7.343.35 1.03 1.05 2.06.7.86-.35 2.233-1.751 2.748-2.102-.515-.175-2.747-1.05-3.778-.7a1.769 1.769 0 00-1.03.875c-.172.35-.172.701-.172.876-.172 0-.515.175-.859.175 0 0 .172-.175.172-.525l.515-1.051.515-1.05c.172-.351.172-.526.172-.526l.687-1.051c.343-.176 1.03-.35 1.546-.526.171.35.858 1.051 1.889 1.051.515 0 1.03-.35 1.546-.7.343-.176.515-.35.858-.526.172-.175.515-.35.515-.35-.515-.35-2.576-1.402-3.606-1.402-.172 0-.344 0-.515.175-.687.35-.859 1.051-.859 1.227h-.859s0-.176.172-.35c.172-.176.172-.351.344-.526.343-.35.515-.876.515-.876s.171-.175.171-.35c.172-.176.172-.35.172-.35l.344-.526.515-.526c.343-.175 1.03-.175 1.546-.175.171.35.687 1.226 1.717 1.226.515 0 1.202-.175 1.717-.525.687-.175 1.203-.526 1.374-.7-.515-.351-2.232-1.753-3.263-1.753-.515 0-.859.176-1.202.526-.172.35-.343.525-.343.876h-.86l.344-.35.859-.876.515-.526.344-.35.343-.35.515-.526c.172-.175.516-.35.516-.35h1.545c0 .525.344 1.401 1.374 1.576h.859c.343 0 .687-.175.859-.175.343 0 .686-.175 1.03-.175.343 0 .515-.175.687-.175-.343-.526-2.06-2.102-2.92-2.277h-.687c-.171 0-.343 0-.515.175-.171 0-.171.175-.343.35-.172.175-.344.35-.344.525-.172 0-.515-.175-.859-.175 0 0 .344-.35.86-.7.343-.35.858-.701.858-.701l.687-.526.172-.175s.171 0 .171-.175c.344-.175.516-.35.516-.35.343 0 1.03.175 1.545.175 0 .525.172 1.401 1.202 1.752.516.175 1.203.175 1.89.175.343 0 .686 0 .858-.175h.687c-.343-.526-1.717-2.453-2.576-2.803-.515-.175-.859-.175-1.202 0-.343.175-.515.525-.687.7-.172-.175-.515-.175-.859-.35 0 0 .172-.175.515-.35.344-.175.688-.35 1.03-.526.173-.175 2.062-1.05 3.436-1.926.343.35 1.03.876 1.889.525.858-.35 2.232-2.277 2.576-2.802-.515-.176-2.92-.526-3.778-.176-1.203.526-1.03 1.577-1.03 1.927-.688.35-1.375.526-1.718.7-.344.176-2.061.702-2.061.702 0-.35.172-.701.172-.876.171 0 .515 0 .858-.175.344-.176.687-.526.86-1.051.17-.526.17-1.402.17-2.102 0-.701-.17-1.577-.17-1.752-.173.175-.344.35-.688.525-.343.176-.515.526-.858.701-.688.526-1.203 1.226-1.374 1.752-.344 1.05.343 1.751.686 1.927 0 .175-.171.525-.343.7-.172.35-.172.526-.343.7 0 0-.172 0-.344.176-.172.175-.515.35-.687.525l-1.03.701-.172.175c-.172 0-.172.175-.343.35-.344.176-.516.351-.516.351l-.343.175v-.875c.172 0 .515-.176.859-.351.343-.175.686-.526.686-1.051.172-1.051-.515-3.328-.686-3.854l-.516.526c-.172.35-.515.525-.859.876-.515.7-1.03 1.401-1.03 1.926v.176c0 1.05.687 1.401 1.03 1.576-.171.526-.171 1.226-.343 1.577l-.343.35c-.172.175-.516.525-.86.7-.343.176-.514.526-.858.701l-.343.35s-.344.351-.687.526l-.344.35-.171.176c0-.35-.172-.701-.172-.876.172 0 .515-.175.859-.526.343-.175.515-.7.515-1.226 0-1.05-1.03-3.153-1.202-3.678-.172.35-.687.875-1.03 1.751-.344.701-.688 1.577-.688 2.102 0 1.226.859 1.577 1.374 1.577 0 .525 0 1.226-.172 1.576l-.343.35c-.172.176-.344.35-.515.701-.172.175-.344.526-.516.7-.171.176-.171.351-.171.351s-.172.35-.515.526c-.172.175-.172.35-.344.35 0 .175-.172.175-.172.175l-.171.35c0-.175-.172-.35-.172-.525 0-.175 0-.175-.172-.35.172-.175.515-.35.687-.526.172-.35.344-.7.344-1.226-.172-1.05-1.374-2.978-1.718-3.503l-.859 1.752c-.343.875-.515 1.576-.343 2.277v.175c.172 1.05 1.03 1.226 1.546 1.226 0 .525.171 1.226.171 1.576 0 0-.343.701-.858 1.402-.344.7-.86 1.401-.86 1.401s0 .175-.17.175c0 .175-.173.35-.344.526l-.344.7c-.172-.35-.343-.525-.343-.875.171-.176.515-.35.687-.701.171-.35.343-.7.171-1.401-.343-1.051-1.889-2.628-2.404-3.153 0 .175-.172.525-.343.7-.172.35-.172.7-.344 1.226-.172.876-.172 1.752 0 2.278.344 1.05 1.374 1.226 1.718 1.226.171.525.343 1.226.343 1.576 0 0 0 .175-.172.35-.171.176-.171.526-.343.876-.172.526-.515 1.227-.515 1.227v.175c0 .175-.172.35-.172.525-.172.35-.172.7-.172.7l-.172.351c-.171-.175-.171-.35-.343-.35 0-.175-.172-.175-.172-.35.172-.176.344-.35.515-.876.172-.35.172-.876 0-1.402-.515-.875-2.232-2.452-2.747-2.802-.172.7-.516 3.328 0 4.204 0 0 0 .175.171.175.515.876 1.374.876 1.89.7.171.35.515 1.052.515 1.577 0 0 0 .175-.172.526 0 .35-.172.7-.172 1.05-.172.35-.172.701-.172 1.052 0 .35-.171.525-.171.525s0 .35-.172.876c-.172.35-.172.876-.172.876l-.687-.701a1.35 1.35 0 00.344-.876c0-.35 0-.876-.344-1.401-.515-.876-2.576-1.927-3.091-2.277v2.102c.172.875.343 1.751.687 2.102.687.876 1.546.7 2.06.525.344.35.688 1.051.86 1.401v4.204c-.172-.175-.344-.175-.344-.35-.172 0-.172-.175-.343-.175.171-.175.171-.526.171-.876s-.171-.876-.515-1.226c-.687-.7-2.92-1.577-3.435-1.752 0 .35.172 1.226.344 1.927.171.876.515 1.577.858 2.102l.172.175c.859.7 1.546.35 1.89.175.343.35.858.876 1.03 1.227v1.576c0 .35 0 .7.171 1.051v.526s0 .525.172.875c0 .35.172.876.172.876-.344-.175-.515-.35-.859-.35.172-.35.344-1.401-.515-2.102-.859-.7-3.091-1.051-3.606-1.051.171.35.343 1.05.686 1.927.344.7.86 1.576 1.203 1.927.858.7 1.717.175 2.06-.176.344.35.86.701 1.203 1.051 0 0 .171.701.343 1.226 0 .35.172.701.172.876 0 .175.172.35.172.35s.171.351.171.701c0 .175.172.35.172.526v.175l.172.35c-.172 0-.344-.175-.515-.175-.172 0-.172-.175-.344-.175v-.876c-.172-.35-.343-.7-.859-1.05-.858-.526-3.263-.526-3.778-.526.172.35.515 1.05 1.03 1.751.516.701 1.031 1.402 1.546 1.577h.172c.859.35 1.546-.175 1.89-.526.343.176 1.03.526 1.373.876 0 0 .344.7.515 1.401L7.9 52.55c.172.35.172.525.172.525s0 .175.172.175c0 .175.172.35.343.526.172.35.344.875.344.875-.344 0-.687-.175-.859-.175 0-.175 0-.525-.171-.876-.172-.35-.516-.7-1.03-.875-.516-.175-1.375-.175-2.062-.175-.687 0-1.545.175-1.717.175.172.175.172.35.515.7.172.35.515.526.687.876.515.7 1.202 1.226 1.717 1.401a1.55 1.55 0 001.89-.7c.171 0 .515.175.686.35.344.175.516.175.687.35 0 0 0 .176.172.35.172.176.344.526.515.702l.687 1.05.172.176c0 .175.172.175.343.35.172.35.344.525.344.525l.687-.525z" fill="#F5EFDB"/><path d="M66.291 59.907a6.85 6.85 0 00-.687.876c0-.35-.172-.7-.172-.876.172 0 .344-.175.516-.35l.343-.35c0-.176.172-.35.172-.526v-.7c-.172-1.052-1.89-2.628-2.233-2.978 0 .175-.172.35-.172.7s-.171.7-.171 1.051c0 .35-.172.7-.172.876v.876c.172 1.05 1.03 1.401 1.546 1.401v1.577s-.172.175-.344.525l-.515.526-.344.35-.343.35-.515.526-.859.876-.343.35v-.876c.171 0 .515-.175.858-.35.344-.175.515-.7.515-1.226 0-1.051-1.373-2.978-1.717-3.328-.172.175-.343.875-.687 1.4-.343.702-.515 1.402-.515 1.752 0 1.051.859 1.577 1.202 1.752 0 .526-.172 1.226-.172 1.577l-1.03.876s-.172.175-.344.175c-.171.175-.343.175-.343.175s-.343.35-.859.525c-.172.176-.515.35-.515.35-.172.176-.343.176-.343.176v-.876c.343 0 1.03-.175 1.202-.876 0-.175.172-.35.172-.525.171-1.051-1.03-3.153-1.203-3.679 0 .175-.171.35-.343.526-.172.175-.344.525-.515.876-.344.525-.687 1.226-.687 1.576-.172 1.051.515 1.577 1.03 1.927-.172.35-.343 1.05-.515 1.576l-1.03.7s-.172.176-.516.176l-1.03.526c-.344.175-.859.35-1.03.525-.344.175-.516.175-.516.175 0-.35.172-.7.172-.876.172 0 .515 0 .859-.175.343-.175.687-.525.858-1.05.344-1.052-.515-3.154-.687-3.854-.171.175-.171.35-.343.525l-.687.7c-.344.526-.859 1.052-1.03 1.577-.344 1.051.343 1.752.686 2.102l-.687 1.402s-.343.175-.515.175c-.171 0-.343.175-.343.175h-.172l-.859.35s-.171 0-.343.175c-.172 0-.515.176-.687.176l-1.03.35c.171-.35.171-.526.343-.876h.687c.343 0 .515-.175.859-.35.171-.175.171-.35.343-.526.172-.525.172-1.226.172-2.102 0-.7-.172-1.576-.344-1.751-.171.175-.687.525-1.202 1.05l-.687.701c-.172.175-.343.526-.515.7-.515 1.052 0 1.753.343 2.103-.171.35-.687.876-.858 1.226 0 0-.344 0-.687.175h-.172c-2.232.175-5.84.526-5.84.526s-4.12-.175-6.182-.35h-.515c-.343 0-.687-.176-.687-.176a5.324 5.324 0 01-.858-1.226c.343-.35.858-1.05.343-2.102-.172-.175-.172-.525-.515-.7l-.687-.701c-.515-.526-1.03-.876-1.202-1.051 0 .35-.172 1.05-.344 1.751 0 .701 0 1.577.172 2.102.172.176.172.35.343.526.172.175.516.35.859.35h.687c.172.175.172.526.343.876l-1.03-.35c-.172 0-.515-.175-.687-.175-.172 0-.343-.176-.343-.176l-.86-.35h-.343c-.171 0-.171-.175-.343-.175-.343-.175-.515-.175-.515-.175l-.687-1.402c.343-.35 1.03-1.05.687-2.101-.172-.526-.515-1.051-1.03-1.577-.172-.175-.344-.525-.688-.7-.171-.176-.343-.351-.343-.526-.172.525-1.03 2.803-.687 3.853.172.526.515.876.859 1.051.343.176.687.176.858.176 0 .175.172.525.172.875 0 0-.172-.175-.515-.175l-1.03-.525-1.031-.526c-.344-.175-.515-.175-.515-.175l-1.03-.7c-.172-.35-.344-1.051-.516-1.577.344-.175 1.03-.876 1.03-1.927 0-.525-.343-1.05-.686-1.576-.172-.35-.344-.526-.516-.876-.171-.175-.343-.526-.343-.526-.344.526-1.374 2.628-1.374 3.679 0 .175 0 .35.172.525.343.701.858.876 1.202.876v.876s-.172 0-.344-.175c-.171-.175-.343-.175-.515-.35a6.73 6.73 0 00-.858-.701s-.172-.175-.344-.175c-.172-.175-.343-.175-.343-.175l-1.374-1.051c-.172-.35-.172-1.052-.172-1.577.343-.175 1.202-.7 1.202-1.752 0-.525-.172-1.226-.515-1.751-.172-.701-.515-1.227-.687-1.402-.344.526-1.718 2.278-1.718 3.328 0 .526.172.876.516 1.227.343.175.515.35.858.35v.876l-.343-.35-.859-.876-.515-.526-.344-.35-.343-.35-.515-.526c-.172-.175-.344-.526-.344-.526v-1.576c.516 0 1.374-.35 1.546-1.401v-.876c0-.35-.172-.7-.172-.876 0-.35-.171-.7-.171-1.05 0-.351-.172-.526-.172-.702-.515.35-2.061 2.102-2.233 2.978v.7c0 .176 0 .351.172.526 0 .175.172.175.343.35.172.176.344.351.516.351 0 .175-.172.526-.172.876 0 0-.344-.35-.687-.876a6.822 6.822 0 01-.687-.876l-.687.526.172.35h-.859c0-.175-.172-.526-.343-.876-.172-.35-.516-.7-1.03-.7-1.031-.176-3.264.525-3.78.7l.516.526.859.876c.687.525 1.374 1.05 1.889 1.05h.172c1.03 0 1.374-.7 1.545-1.05.515.175 1.203.175 1.546.35l.343.35c.172.175.344.526.687.876.172.35.516.525.687.876l.344.35s.343.35.515.7l.344.351.171.175c-.343 0-.687.175-.858.175 0-.175-.172-.525-.516-.875-.171-.35-.687-.526-1.202-.526-1.03 0-3.091 1.051-3.606 1.226.343.175.858.701 1.717 1.051.687.35 1.546.701 2.06.701 1.203 0 1.547-.876 1.547-1.401.515 0 1.202 0 1.545.175l.344.35c.171.175.343.35.687.526.171.175.515.35.687.525a.527.527 0 00.343.175s.344.175.515.526c.172.175.344.175.344.35.172 0 .172.175.172.175l.171.176c-.171 0-.343.175-.515.175s-.172 0-.343.175c-.172-.175-.344-.526-.516-.7-.343-.176-.687-.351-1.202-.351-1.03.175-2.92 1.401-3.435 1.751l1.718.876c.858.35 1.545.526 2.232.526h.172c1.03-.175 1.202-1.051 1.202-1.577.516 0 1.203-.175 1.546-.175 0 0 .687.35 1.374.876.687.35 1.374.876 1.374.876s.172 0 .172.175c.171 0 .343.175.515.35.343.175.858.35.858.35-.343.176-.515.35-.858.35-.172-.174-.344-.525-.687-.7-.344-.175-.687-.35-1.374-.175-1.03.35-2.576 1.927-3.091 2.452.171 0 .515.176.687.35.343.176.686.176 1.202.351.858.175 1.717.175 2.232 0 1.03-.35 1.202-1.401 1.202-1.752.516-.175 1.203-.35 1.546-.35 0 0 .172 0 .344.175.171.175.515.175.858.35.515.176 1.203.526 1.203.526h.171c.172 0 .344.175.515.175.344.175.687.175.687.175l.344.176c-.172.175-.344.175-.344.35-.171 0-.171.175-.343.175-.172-.175-.344-.35-.859-.525-.343-.176-.858-.176-1.374 0-.858.525-2.404 2.277-2.748 2.802.687.175 3.264.526 4.122 0 0 0 .172 0 .172-.175.859-.525.687-1.401.687-1.927.343-.175 1.03-.525 1.546-.525 0 0 .171 0 .515.175.343.175.687.175 1.03.35.344.175.687.175 1.03.175h.516c1.03.176 2.576.35 3.95.526h.343C33.832 76.022 32.63 79 32.63 79h2.061c.515-1.751 3.435-3.153 5.667-3.853 2.061.875 4.98 2.277 5.668 3.853h2.06s-1.201-2.978-5.838-4.554h.171c1.374-.175 3.779-.35 5.324-.7.172 0 .344 0 .515-.176.344-.175.687-.175 1.03-.35.344 0 .516-.175.516-.175.344.175 1.03.35 1.546.7 0 .35-.172 1.402.687 1.927h.172c1.03.526 3.434.175 4.121 0-.343-.525-1.717-2.452-2.748-2.803-.515-.175-1.03-.175-1.373 0-.344.176-.688.35-.86.526-.171 0-.171-.175-.343-.175-.172-.175-.343-.175-.343-.35l.343-.176s.344-.175.687-.175c.172 0 .344-.175.516-.175h.171s.515-.175 1.202-.526c.344-.175.516-.175.859-.35.172-.175.343-.175.343-.175.516 0 1.203.35 1.546.35 0 .526 0 1.402 1.202 1.752.516.175 1.374.175 2.233 0 .343 0 .859-.175 1.202-.35.344-.176.687-.176.687-.35-.515-.526-2.06-2.103-3.091-2.453-.515-.175-1.03 0-1.374.175-.344.175-.515.526-.687.7-.172-.174-.515-.174-.859-.35l.687-.35c.172-.175.344-.175.515-.35.172 0 .172-.175.172-.175s.687-.35 1.374-.876c.687-.35 1.374-.876 1.374-.876.515 0 1.202 0 1.546.175 0 .35.171 1.226 1.202 1.577h.172c.515.175 1.373-.175 2.232-.35.859-.351 1.546-.701 1.718-.877-.516-.35-2.405-1.751-3.435-1.751-.516 0-1.03.175-1.202.35-.344.175-.516.526-.516.7-.171 0-.171 0-.343-.174-.172 0-.344-.175-.515-.175l.343-.176.172-.175c.172 0 .172-.175.343-.35.344-.175.516-.526.516-.526s.171-.175.343-.175c.172-.175.515-.35.687-.525.172-.175.515-.35.687-.526l.343-.35c.344-.175 1.203-.175 1.546-.175.172.35.515 1.401 1.546 1.401.515 0 1.374-.35 2.06-.7.688-.351 1.375-.876 1.718-1.052-.515-.35-2.576-1.401-3.606-1.226-.516 0-1.031.175-1.203.526-.343.35-.343.7-.515.876-.172 0-.515 0-.859-.176l.172-.175.344-.35.687-.7.343-.351c.172-.175.515-.526.687-.876.172-.35.515-.526.687-.876l.343-.35c.344-.175 1.03-.35 1.546-.35.172.35.687 1.226 1.546 1.05h.172c.515-.175 1.202-.525 1.889-1.05.343-.35.687-.526.858-.701l.515-.526c-.515-.175-2.747-.875-3.778-.7-.515.175-.858.35-1.03.7-.172.35-.344.701-.344.876h-.858l.171-.35-.687-.526c-1.03 0-1.373.526-1.717.876z" fill="#F5EFDB"/><path d="M73.504 46.944c.172-.7.343-1.226.343-1.226.344-.35.859-.7 1.203-1.05.343.35 1.202.875 2.06.174.516-.35.86-1.05 1.203-1.927.343-.7.515-1.576.686-1.926-.686.175-2.92.525-3.606 1.05-.859.701-.687 1.752-.515 2.103a1.3 1.3 0 01-.859.35s0-.35.172-.876c0-.525.171-.876.171-.876v-.525c0-.35 0-.7.172-1.051v-1.577c.172-.35.687-.876 1.03-1.226.344.175 1.203.526 1.89-.175 0 0 .172 0 .172-.175.343-.35.686-1.226.858-2.102.172-.876.344-1.577.344-1.927-.516.175-2.748.876-3.435 1.752-.344.35-.515.875-.515 1.226 0 .35.171.7.171.876 0 0-.171.175-.343.175-.172.175-.344.175-.344.35v-4.203c.172-.35.516-1.05.86-1.401.343.175 1.373.35 2.06-.526.344-.35.515-1.226.687-2.102.172-.875.172-1.751 0-2.102-.515.35-2.576 1.402-3.263 2.277-.344.526-.344.876-.344 1.402 0 .35.172.7.344.876l-.687.7s0-.525-.172-.875c0-.35-.171-.876-.171-.876v-.526c0-.35-.172-.7-.172-1.05 0-.351-.172-.701-.172-1.052 0-.35-.172-.525-.172-.525.172-.35.344-1.051.687-1.577.344 0 1.374.175 1.89-.7v-.176c.515-.875.171-3.503 0-4.204-.516.35-2.405 1.752-2.748 2.803-.172.526-.172 1.051 0 1.401.171.35.343.701.515.876 0 .175-.172.175-.172.35-.172.176-.172.35-.343.35l-.172-.35s-.172-.35-.172-.7c0-.175-.172-.35-.172-.526v-.175s-.171-.525-.515-1.226c-.171-.35-.171-.525-.343-.876-.172-.175-.172-.35-.172-.35 0-.526.344-1.051.344-1.577.515 0 1.373 0 1.717-1.226.172-.525.172-1.401 0-2.277 0-.35-.172-.876-.344-1.226-.171-.35-.171-.7-.343-.7-.515.525-2.061 2.101-2.404 3.152-.172.526 0 1.051.171 1.402.172.35.516.525.687.7-.171.175-.171.526-.343.876 0 0-.172-.35-.344-.876-.171-.175-.171-.35-.343-.525 0-.175-.172-.175-.172-.175l-.687-1.402c-.343-.7-.859-1.401-.859-1.401 0-.526 0-1.226.172-1.577.344 0 1.202-.175 1.546-1.226v-.175c.172-.525-.172-1.401-.344-2.277-.343-.876-.687-1.577-.858-1.752-.344.526-1.718 2.453-1.89 3.504 0 .525.172 1.05.344 1.226.172.35.515.525.687.525 0 .175 0 .175-.172.35 0 .176-.171.35-.171.526l-.172-.35-.172-.175c0-.176-.172-.176-.343-.35a1.292 1.292 0 00-.516-.526s-.171-.175-.171-.35c-.172-.176-.344-.526-.516-.701-.171-.175-.343-.526-.515-.7-.172-.176-.172-.351-.172-.351-.171-.35-.171-1.226-.171-1.577.343-.175 1.374-.525 1.374-1.576 0-.526-.344-1.402-.687-2.102-.344-.7-.86-1.401-1.03-1.752-.344.526-1.375 2.628-1.203 3.679 0 .525.172 1.05.515 1.226.344.35.687.35.859.525 0 .175 0 .526-.172.876l-.172-.175c-.171-.175-.171-.35-.343-.35a2.969 2.969 0 00-.687-.526l-.343-.35c-.172-.175-.516-.526-.86-.7-.343-.176-.514-.526-.858-.702l-.343-.35c-.172-.35-.344-1.05-.344-1.576.344-.175 1.202-.701 1.03-1.577v-.175c-.171-.525-.515-1.226-1.03-1.927-.343-.35-.515-.7-.858-.876l-.516-.525c-.172.525-.858 2.803-.687 3.854.172.525.344.875.687 1.05.344.176.687.35.859.35v.877l-.172-.176s-.343-.175-.515-.35-.344-.175-.344-.35c-.171 0-.171-.175-.171-.175l-1.03-.701a2.38 2.38 0 01-.688-.525c-.171-.176-.343-.176-.343-.176-.172-.175-.172-.525-.344-.7-.171-.35-.171-.526-.343-.701.343-.175 1.202-.876.859-1.927-.172-.525-.687-1.226-1.374-1.751-.344-.35-.687-.526-.859-.701a2.37 2.37 0 01-.687-.526c0 .35-.172 1.051-.172 1.752 0 .7 0 1.577.172 2.102.172.526.515.876.859 1.051.343.175.687.175.858.175 0 .175.172.526.172.876l-2.06-.7c-.172-.176-.86-.351-1.718-.701 0-.35.172-1.402-1.03-1.927-.86-.35-3.264 0-3.779 0 .344.525 1.718 2.452 2.576 2.803 1.03.35 1.718-.176 1.89-.526 1.545.876 3.263 1.752 3.434 1.927l1.03.525c.344.175.516.35.516.35-.344.176-.515.176-.859.351-.172-.175-.343-.526-.687-.7-.343-.176-.687-.176-1.202 0-.859.35-2.233 2.276-2.576 2.802h.687c.343 0 .515 0 .859.175.687 0 1.374 0 1.889-.175 1.03-.35 1.202-1.226 1.202-1.752.515-.175 1.03-.175 1.546-.175 0 0 .343.175.515.35.172 0 .172.176.343.176.172 0 .172.175.172.175l.687.525s.343.35.859.701c.343.35.858.7.858.7-.343 0-.687.176-.858.176 0-.175-.172-.35-.344-.526l-.343-.35c-.172 0-.344-.175-.516-.175h-.686c-1.03.175-2.577 1.927-2.92 2.277.172 0 .343.175.687.175.343 0 .687.175 1.03.175.344 0 .687.175.86.175h.858a1.612 1.612 0 001.374-1.576h1.545s.172.175.516.35a3590.386 3590.386 0 00.858.876l.344.35.515.526c.343.35.515.7.859.876l.343.35h-.859c0-.175-.171-.525-.343-.876-.172-.35-.687-.525-1.202-.525-1.03 0-2.92 1.401-3.263 1.752.172.175.858.35 1.374.7.687.35 1.374.526 1.717.526 1.03 0 1.546-.876 1.717-1.226.516 0 1.203.175 1.546.175l.859 1.05s.172.176.172.35c.171.176.171.351.171.351s.344.35.516.876c.171.175.343.526.343.526.172.175.172.35.172.35h-.859c0-.35-.172-1.051-.859-1.226-.171 0-.343-.175-.515-.175-1.03-.176-3.091 1.05-3.606 1.226.171 0 .343.175.515.35s.515.35.858.526c.516.35 1.203.7 1.546.7 1.03.175 1.546-.525 1.89-1.05.343.174 1.03.35 1.545.525l.687 1.05s.172.176.172.526l.515 1.051c.172.35.343.876.515 1.051.172.35.172.526.172.526-.344 0-.687-.175-.859-.175 0-.176 0-.526-.172-.876a1.77 1.77 0 00-1.03-.876c-1.03-.35-3.091.525-3.778.7.343.35 1.717 1.752 2.748 2.102 1.03.35 1.717-.35 2.06-.7l1.374.7s.172.35.172.526c0 .175.172.35.172.35v.175l.343.876s0 .175.172.35c0 .176.172.526.172.701l.343 1.051c-.343-.175-.515-.175-.858-.35v-.7c0-.351-.172-.526-.344-.877-.172-.175-.343-.175-.515-.35-.515-.175-1.202-.175-2.061-.175-.687 0-1.546.175-1.718.35.172.175.516.701 1.03 1.226l.688.701c.172.175.515.35.687.526 1.03.525 1.717 0 2.06-.35.344.175.86.7 1.203.875 0 0 0 .35.172.7v.526s0 .176.171.526c0 .35.172.7.172 1.226s.172.876.172 1.226v.526a2.374 2.374 0 01-.687-.526c0-.175.172-.525.172-.876 0-.35-.172-.7-.687-1.05-.859-.526-3.092-.526-3.779-.526.172.175.344.876.687 1.401.344.526.687 1.226 1.203 1.401.858.526 1.717.176 2.06 0 .344.35.86.701 1.03 1.052v4.377c-.17-.175-.514-.35-.686-.525.172-.35.343-.876.172-1.576-.172-.175-.172-.35-.344-.526-.687-.7-3.091-1.05-3.606-1.05 0 .35.343.875.515 1.576.172.525.515 1.226.858 1.576.688.7 1.718.526 2.061.35.344.35.687.876.86 1.227v1.926c0 .35-.173.701-.173 1.227 0 .35-.171.875-.171 1.226 0 .35-.172.525-.172.525-.172-.175-.344-.525-.515-.7.343-.35.687-1.227 0-2.102-.687-.876-2.748-1.577-3.435-1.577 0 .175.172.876.343 1.577.172.7.344 1.4.687 1.751.687.876 1.546.7 2.061.7l.687 1.402-.343 1.226s0 .176-.172.35c0 .176-.172.351-.172.351l-.343 1.051c0 .175-.172.526-.172.7 0 .176-.172.351-.172.351-.171-.175-.343-.526-.515-.7.344-.176.687-.701.515-1.402 0-.175-.171-.35-.171-.526-.516-.875-2.577-1.926-3.092-2.101v1.751c0 .7.172 1.402.344 1.752.515.876 1.374 1.05 1.889.876.172.35.515 1.05.515 1.576l-.515 1.226v.175s-.172.176-.172.35l-.515 1.052-.515 1.05a2.162 2.162 0 01-.344.526c-.172-.35-.172-.525-.343-.876.171-.175.515-.35.687-.7.171-.35.171-.7 0-1.226-.344-.876-2.233-2.278-2.748-2.628v.7c0 .351 0 .526-.172.877 0 .7 0 1.401.172 1.926.343 1.051 1.202 1.227 1.717 1.227.172.525.172 1.05.172 1.576 0 0-.172.35-.344.526-.171.175-.171.35-.171.35 0 .175-.172.175-.172.175l-.515.7.687.526s.171-.35.343-.525c.172-.175.172-.35.344-.35 0-.176.171-.176.171-.176l.687-1.05c.172-.351.344-.526.516-.701.171-.175.171-.35.171-.35.172-.176.516-.176.687-.351.344-.175.516-.175.687-.35.172.35.859 1.226 1.89.7.515-.175 1.202-.7 1.717-1.401.343-.35.515-.7.687-.876.172-.35.343-.525.515-.7-.343 0-1.03-.176-1.718-.176-.686 0-1.545 0-2.06.175a1.77 1.77 0 00-1.03.876c-.172.35-.172.701-.172.876-.172 0-.516.175-.86.175l.344-.7c.172-.175.172-.35.344-.526 0-.175.172-.175.172-.175s0-.175.171-.526l.516-1.05c.343-.701.515-1.402.515-1.402.343-.35.858-.7 1.374-.876.343.35.858.876 1.889.526h.172c.515-.175 1.03-.876 1.545-1.577.515-.7.859-1.401 1.03-1.751-.686 0-2.919 0-3.778.525-.515.35-.687.7-.858 1.051-.172.35 0 .7 0 .876-.172 0-.172.175-.344.175s-.343.175-.515.175l.172-.35v-.175c0-.175.171-.35.171-.526.172-.35.172-.7.172-.7s0-.175.172-.35c-.172-.701-.172-.876 0-1.227z" fill="#F5EFDB"/><path d="M33.396 53c-.059 0-.088-.092-.088-.275 0-.183.029-.274.088-.274 1.291 0 2.26-.076 2.905-.229.675-.183 1.16-.488 1.453-.915.294-.457.44-1.128.44-2.012V32.279c0-2.074-.47-3.11-1.408-3.11-.705 0-1.835.579-3.39 1.738l-.088.046c-.118 0-.206-.061-.264-.183-.06-.153-.06-.26 0-.32l8.496-6.359a.689.689 0 01.31-.091c.058 0 .117.03.176.091.058.061.088.122.088.183v25.02c0 .916.132 1.587.396 2.013.264.427.719.732 1.365.915.675.153 1.673.229 2.993.229.089 0 .133.091.133.274 0 .183-.044.275-.133.275a65.02 65.02 0 01-2.773-.046l-3.962-.046-3.83.046c-.705.03-1.674.046-2.906.046z" fill="#AAA"/></svg>