<svg width="79" height="79" fill="none" xmlns="http://www.w3.org/2000/svg"><path d="M73.712 54.333a1.936 1.936 0 00-.801-.806c-.481-.484-.962-.645-.962-.645s-.48-.162-1.121-.162h-1.122c-.32 0-.801.162-1.122.323-.32.161-.64.322-.801.483-.48.323-.801.645-1.122.968-.16.161-.16.322-.32.322 0 .161-.16.161-.16.161s.48.162 1.121.323c.32 0 .641.161 1.122.161.32 0 .801 0 1.282-.161l.961-.484c.481-.322.802-.806 1.122-1.128.32-.323.32-.645.32-.645s-.16.322-.16.806c-.16.484-.16.967-.16 1.612 0 .323 0 .645.16 1.129.16.483.32.806.481 1.128.16.323.48.645.641.968l.801.806.16-.161c0-.162.16-.323.32-.484.161-.484.321-1.129.321-1.774 0-.322 0-.806-.16-1.128-.32-.968-.48-1.29-.801-1.612zm2.564-4.353c-.16-.484-.481-.807-.802-1.129-.32-.322-.64-.484-.8-.645l-.962-.484H72.59c-.32 0-.64 0-1.122.162-.32.16-.8.16-1.121.483-.32.162-.641.484-.962.645-.32.323-.48.484-.64.806-.161.323-.321.484-.321.645-.16.161-.16.323-.16.323s.48.16 1.121.16 1.442 0 2.244-.322c.32-.16.64-.483.961-.806.32-.322.48-.645.641-.806.32-.483.48-.967.48-1.128 0 0-.16.483-.16 1.128v1.129c0 .322.16.806.321 1.128.32.806.962 1.451 1.442 1.935s.962.645.962.645 0-.161.16-.322c0-.162.16-.484.16-.807v-1.29c0-.483-.16-.967-.32-1.45zm1.603-4.353c-.16-.484-.321-.806-.481-1.29-.32-.322-.481-.645-.801-.967-.321-.322-.641-.484-.962-.484-.64-.322-1.122-.322-1.122-.322s-.48 0-1.121.161c-.32 0-.641.161-1.122.322-.32.162-.801.323-1.122.645-.32.323-.64.484-.8.806-.161.323-.321.645-.482.807l-.32.967h1.121c.641 0 1.443-.161 2.244-.806.32-.323.64-.484.801-.806l.48-.968c.161-.645.321-1.128.321-1.128v1.128c0 .323.16.645.16 1.129.16.322.321.806.481 1.129.481.806 1.122 1.29 1.763 1.612l.962.483s.16-.483.16-1.29c0-.322 0-.644-.16-1.128zm.961-4.192c0-.484-.16-1.129-.481-1.774-.16-.322-.32-.644-.641-.967-.641-.645-1.442-.967-2.083-1.129-.641-.16-1.122-.16-1.122-.16s-.48 0-1.122.322c-.64.161-1.442.645-1.923 1.29-.32.322-.48.483-.64.806-.321.483-.481.967-.481 1.45 0 .162 0 .323-.16.484v.162s.48 0 1.121-.162c.641-.16 1.442-.483 2.083-1.128.32-.323.481-.484.641-.806.32-.484.32-1.129.481-1.451v-.806s0 .322.16.806c.16.483.16.967.481 1.612.16.322.32.645.641.967.64.645 1.282 1.129 1.923 1.29.64.322 1.122.322 1.122.322v-1.128zM63.136 65.618s-.32-.322-.962-.644c-.64-.323-1.282-.645-2.243-.806h-.962c-.64.16-1.121.322-1.442.483l-.64.323.8.806c.481.483 1.282.806 2.084.967h.961c.641-.161 1.122-.322 1.442-.645.801-.161.962-.322.962-.484 0 0-.32.323-.481.645a3.52 3.52 0 00-.801 1.29c-.16.323-.32.645-.32.968-.16.806 0 1.773.16 2.418.16.645.48 1.129.48 1.129s.32-.162.641-.484c.32-.323.802-.806 1.122-1.451.16-.323.32-.645.32-1.129.16-.967-.16-1.773-.32-2.418a7.196 7.196 0 01-.801-.968zm3.685-3.708s-.48-.322-.961-.483c-.641-.323-1.442-.484-2.244-.484-.16 0-.48 0-.64.161-.16 0-.321.161-.481.161-.32.162-.641.323-.802.484-.32.161-.48.322-.64.322l-.16.162s.32.322.96.645c.321.16.642.322.962.483.16 0 .32.162.641.162h.641c.48 0 .801-.162 1.122-.323l.961-.484c.16-.483.481-.806.641-.806l-.64.968-.481.967c-.16.322-.16.806-.16 1.129v.644c0 .162 0 .484.16.645.16.323.16.806.32 1.129.32.645.641.967.641.967l.32-.322c.16-.162.321-.484.481-.645.16-.323.32-.645.481-1.129 0-.16.16-.483.16-.645v-.644c0-.968-.32-1.774-.64-2.258-.321-.483-.642-.806-.642-.806zm3.846-3.547l-.801-.806s-.48-.162-1.122-.323c-.64-.161-1.442-.322-2.243-.161-.801.161-1.442.645-1.923.967-.16.162-.48.323-.48.484l-.161.161s.48.323.961.484c.641.322 1.443.484 2.244.322.48 0 .801-.16 1.121-.483.321-.162.641-.484.802-.645.16-.161.48-.484.48-.645a.5.5 0 00.16-.323s-.16.162-.16.323c-.16.161-.16.484-.32.806-.16.322-.16.645-.32 1.129 0 .322-.16.806 0 1.29.16.967.48 1.612.8 2.257.321.644.642.967.642.967s.16-.161.16-.323c.16-.16.32-.483.48-.806.321-.645.642-1.612.481-2.418 0-1.129-.48-1.774-.8-2.257zM49.034 72.39c-.32-.484-.961-1.29-1.602-1.612l-.962-.484c-.32-.161-.48-.161-.8-.161h-1.282s.16.484.32 1.128c.32.645.8 1.29 1.442 1.774.32.161.64.322.961.322 1.122.323 2.244 0 2.404 0-.16 0-1.122.323-2.083 1.129-.32.161-.48.483-.801.806-.481.645-.802 1.612-.962 2.257-.16.645-.16 1.129-.16 1.129s.32 0 .801-.162c.16 0 .48-.16.801-.322.32-.161.641-.322.802-.484.32-.16.64-.483.8-.806a4.43 4.43 0 00.642-2.257v-1.129s0-.644-.32-1.128zm5.449-.806l-.641-.967c-.481-.484-1.122-1.129-1.763-1.451-.32-.162-.801-.323-1.122-.323h-.961c-.641 0-.962.161-.962.161s.16.484.481.968c.32.484.962 1.128 1.763 1.612a3.654 3.654 0 002.243.161c.48 0 .962-.16.962-.16s-.481.16-.962.644c-.48.322-1.122.967-1.442 1.773-.48.807-.48 1.613-.641 2.258 0 .644.16 1.128.16 1.128s.481-.161 1.122-.484c.32-.16.64-.483.961-.806.32-.322.641-.644.802-1.128.48-.806.48-1.774.32-2.418-.16-.645-.32-.968-.32-.968zm4.647-2.741l-.801-.806c-.481-.484-1.282-.968-2.084-1.13-.48-.16-.8-.16-1.121-.16-.32 0-.641.16-.962.16-.64.162-.961.323-.961.323l.64.968a5.76 5.76 0 001.924 1.29c.32.16.801.16 1.121.16.321 0 .802-.16.962-.16.801-.323 1.122-.484 1.282-.645 0 0-.48.322-.962.806-.16.16-.48.483-.64.806-.16.322-.481.645-.642 1.128-.32.806-.32 1.774-.16 2.419s.32 1.128.32 1.128.482-.16 1.122-.645c.32-.16.641-.483.802-.806.32-.322.48-.806.64-1.128.321-.806.16-1.774 0-2.419-.32-.806-.48-1.29-.48-1.29zm-25.158 4.515c-.16-.645-.32-1.45-.802-2.257-.16-.322-.48-.484-.64-.806-.16-.161-.481-.323-.641-.484-.16-.161-.481-.322-.641-.322l-.641-.323s-.16.484-.16 1.129.16 1.451.64 2.257c.16.322.481.484.641.806.16.161.481.323.641.484.16.161.481.161.641.322.481.162.641.162.802.162H32.21c-.321 0-.642 0-.802.16-.32 0-.641.162-.962.323-.8.484-1.442.968-1.762 1.612l-.641.968s.32.161.801.161h.801c.32 0 .641 0 .962-.161.32 0 .64-.161 1.121-.323.802-.483 1.282-1.128 1.603-1.773.32-.645.48-1.129.48-1.129s.321-.16.16-.806zm4.005-1.613c-.32-.322-.64-.484-.96-.806-.321-.161-.642-.322-.802-.484l-.962-.322v1.128c.16.645.32 1.451.962 2.096.32.323.64.484.961.806l.962.484a5.094 5.094 0 001.122.161s-.481 0-1.122.161c-.32 0-.641.162-.962.323-.32.161-.8.322-1.121.645-.641.484-1.122 1.29-1.443 1.773a9.621 9.621 0 00-.48 1.129h1.282c.8 0 1.602-.323 2.403-.806.801-.645 1.122-1.29 1.282-1.935.16-.645.32-1.129.32-1.129s0-.483-.16-1.128c-.48-.806-.8-1.451-1.282-2.096zm6.09 1.773c-.32-.645-.64-1.29-1.282-1.934-.32-.323-.64-.484-.961-.645-.32-.162-.641-.162-.962-.323-.64-.161-.961-.161-.961-.161s0 .484.16 1.129c.16.644.48 1.45 1.122 1.934.64.484 1.442.806 2.083.806h1.122s-.481 0-1.122.323c-.641.161-1.282.483-1.923 1.128-.64.645-.961 1.451-1.282 2.096-.16.645-.32 1.129-.32 1.129s.48 0 1.282-.161c.32 0 .8-.162 1.121-.484a4.87 4.87 0 001.122-.806c.64-.645.961-1.451.961-2.096.16-.645.16-1.129.16-1.129s0-.322-.32-.806zM19.55 68.52s.16-.483.48-1.128c.16-.645.32-1.451.32-2.257 0-.323-.16-.645-.32-.968a3.514 3.514 0 00-.8-1.29c-.161-.16-.161-.322-.321-.322s-.16-.161-.16-.161-.321.323-.642.967c-.32.645-.48 1.451-.48 2.258 0 .322.16.644.32.967.641 1.29 1.602 1.935 1.602 1.935-.16 0-.96-.645-2.243-.968-.32 0-.64-.161-1.122-.161-.8 0-1.762.323-2.243.645-.64.322-.961.645-.961.645l.16.161c.16.161.32.161.48.322.481.323.962.645 1.603.807.32.16.801.16 1.122.16.961 0 1.762-.483 2.243-.805.641-.323.961-.806.961-.806zm4.487 2.742s.16-.484.32-1.129.16-1.45 0-2.257c-.16-.484-.32-.806-.48-1.129-.161-.16-.161-.322-.321-.483-.16-.161-.16-.323-.32-.323-.321-.483-.802-.645-.802-.645s-.16.484-.48 1.129c-.16.645-.321 1.451-.16 2.257.16.484.32.806.48 1.129.16.322.48.645.64.806.642.322 1.122.645 1.122.645s-.48-.323-1.121-.484c-.32 0-.641-.161-1.122-.161h-1.282c-.801.161-1.602.645-2.083.967l-.801.806s.48.323 1.121.484c.16 0 .32.161.481.161.16 0 .48.162.641.162h1.282c.961-.162 1.602-.645 2.083-1.13.641-.322.802-.805.802-.805zm4.967 1.934s.16-.484.16-1.129 0-1.45-.48-2.257c-.16-.322-.321-.645-.642-.967-.16-.323-.48-.484-.64-.645-.481-.323-.802-.484-.802-.484s-.16.484-.32 1.129-.16 1.45.16 2.257c.16.322.32.645.641.967.32.323.48.484.801.645.481.322.962.484 1.122.484 0 0-.48-.162-1.122-.162h-1.121c-.32 0-.802.162-1.122.162a5.759 5.759 0 00-1.923 1.29c-.48.483-.641.967-.641.967s.48.161 1.122.322c.32.162.8.162 1.121.162.481 0 .802 0 1.282-.162.802-.322 1.442-.967 1.923-1.45.16-.646.481-1.13.481-1.13zM8.012 57.235c.641-.161 1.122-.322 1.122-.322l.801-.806c.16-.162.48-.484.641-.807.16-.322.48-.645.48-1.128.161-.323.161-.645.161-.967 0-.645 0-1.13-.16-1.452 0-.16-.16-.322-.16-.483v-.162s-.481.162-.962.645c-.32.162-.48.484-.801.806-.32.323-.48.645-.641 1.13-.16.322-.16.644-.16.967 0 .644.16 1.128.32 1.612.16.483.32.645.32.806 0 0-.16-.323-.48-.645-.32-.323-.641-.806-1.122-1.129-.32-.16-.64-.483-.961-.483-.481-.161-.801-.323-1.282-.323H4.006c-.64 0-1.122.162-1.122.162l.16.16c0 .162.16.323.321.484.32.484.641.968 1.122 1.451.32.162.64.484.961.645.481.161.801.323 1.282.323.481-.323.962-.323 1.282-.484zm2.884 4.676c.641-.161.962-.484.962-.484l.801-.806c.32-.483.801-1.29.961-2.096v-1.128c0-.323-.16-.645-.16-.968l-.32-.967-.802.806c-.48.484-.96 1.129-1.121 2.096-.16.806 0 1.612.32 2.257.16.323.32.484.32.645a.5.5 0 01.161.323c-.16-.161-1.122-1.451-2.884-1.935-.802-.161-1.763-.161-2.404 0s-1.122.322-1.122.322.32.484.802.968c.32.322.48.483.961.806.32.161.801.484 1.282.484.801 0 1.602-.162 2.243-.323zm3.686 4.029c.64-.322.961-.644.961-.644s.32-.323.641-.967l.481-.968c0-.16.16-.322.16-.645v-.645c0-.483 0-.806-.16-1.128-.16-.322-.16-.645-.32-.967-.16-.323-.32-.484-.32-.645l-.161-.162-.801.807c-.32.483-.802 1.29-.802 2.096v.644c0 .162.16.323.16.484l.481.967c.32.484.641.806.802.968l-.962-.645-.961-.484c-.16 0-.32-.161-.641-.161-.16 0-.32-.161-.641-.161-.801-.161-1.763.16-2.404.322-.64.161-.961.484-.961.484s.16.161.16.322l.64.645c.321.161.642.484.962.645.32.161.802.322 1.282.322h.641c.16 0 .481 0 .641-.16.481 0 .801-.162 1.122-.323zM1.442 40.628c.64.645 1.442.968 2.083 1.129.64.161 1.122.161 1.122.161s.48 0 1.121-.322c.641-.161 1.442-.645 1.923-1.29.32-.322.48-.484.641-.806.32-.484.48-.968.48-1.451 0-.161 0-.323.161-.484v-.161s-.48 0-1.122.161c-.64.161-1.442.484-2.083 1.129-.32.322-.48.483-.64.806-.321.483-.321 1.128-.481 1.45v.807s0-.322-.16-.806c-.16-.484-.16-.968-.481-1.451-.16-.323-.32-.645-.641-.968-.641-.644-1.282-1.128-1.923-1.45C.8 36.758.32 36.758.32 36.758v.806c0 .484.16 1.129.48 1.774.161.645.321.967.642 1.29zm.481 5.643c.64.645 1.602.806 2.243.806h1.122s.48-.16.961-.483a5.016 5.016 0 001.763-1.451c.48-.645.641-1.451.801-1.935v-.967s-.48 0-1.121.322l-.962.484c-.32.161-.64.484-.961.806-.32.322-.481.645-.481 1.128-.16.323-.16.645-.16.968v1.128s0-.16-.16-.322c0-.161-.16-.484-.321-.806l-.48-.968c-.161-.322-.481-.644-.802-.967-.32-.322-.64-.483-1.122-.645-.32-.16-.8-.322-1.121-.322C.48 42.886 0 42.886 0 42.886v.645c0 .16.16.322.16.483.641.806 1.122 1.612 1.763 2.257zm3.686 6.127c.64 0 1.121-.162 1.121-.162s.481-.16.962-.644c.48-.484 1.121-.968 1.442-1.774.16-.322.32-.806.32-1.128 0-.323.16-.645.16-.968v-.967s-.48.161-.96.483c-.321.162-.642.323-.962.645-.32.323-.481.645-.801.968-.16.322-.32.806-.32 1.128v1.129c0 .645.16 1.129.32 1.129 0 0-.16-.484-.481-1.13-.16-.322-.32-.644-.641-.805-.32-.323-.48-.645-.962-.806-.32-.162-.8-.484-1.121-.484-.32-.161-.802-.161-1.122-.161H1.442s0 .161.16.322c0 .161 0 .161.16.323 0 .16.161.322.161.483.16.323.32.645.641.968.32.322.641.645.961.806.641.483 1.443.645 2.084.645zM5.288 24.99c.16.322.48.644.8.806.482.483.962.644.962.644s.481.162 1.122.162h1.122c.32 0 .801-.162 1.121-.323.321-.161.642-.322.802-.483.48-.323.8-.645 1.121-.968.16-.161.16-.322.32-.322 0-.162.161-.162.161-.162s-.48-.16-1.122-.322c-.32 0-.64-.161-1.121-.161-.32 0-.801 0-1.282.161l-.962.484c-.48.322-.8.806-1.121 1.128-.32.323-.32.645-.32.645s.16-.322.16-.806c.16-.484.16-.967.16-1.612 0-.323 0-.645-.16-1.129a7.885 7.885 0 00-.481-1.128c-.16-.323-.481-.645-.641-.968l-.802-.806-.16.161c0 .162-.16.323-.16.484-.16.484-.32 1.129-.32 1.774 0 .322 0 .806.16 1.128.32.806.48 1.29.64 1.612zm-2.404 4.192c.16.484.481.806.802 1.129.32.322.64.483.8.645l.962.483H6.57c.32 0 .64 0 1.122-.16.32-.162.8-.162 1.121-.485.32-.16.641-.483.962-.644.32-.323.48-.484.64-.806.161-.323.321-.484.321-.645a.5.5 0 00.16-.323s-.48-.161-1.121-.161-1.442 0-2.244.322c-.32.162-.64.484-.961.806-.32.323-.48.645-.641.807-.32.483-.48.967-.48 1.128 0 0 .16-.483.16-1.128v-1.13c0-.322-.16-.806-.321-1.129-.32-.806-.962-1.45-1.442-1.934-.481-.484-.962-.645-.962-.645s0 .161-.16.322c0 .162-.16.484-.16.806v1.129c0 .806 0 1.129.32 1.612zm-1.762 4.352c.16.484.32.806.48 1.29.32.322.481.645.802.967.32.323.64.484.961.484.641.322 1.122.322 1.122.322s.48 0 1.121-.16c.32 0 .641-.162.962-.323.32-.162.801-.323 1.122-.645.32-.323.64-.484.8-.806.161-.323.321-.645.482-.806l.32-.968H8.172c-.64 0-1.442.161-2.243.806-.32.323-.641.484-.801.806l-.481.968c-.16.645-.32 1.128-.32 1.128V35.47c0-.323-.16-.645-.16-1.129-.161-.322-.321-.806-.481-1.128-.481-.806-1.122-1.29-1.763-1.613l-.962-.483s-.16.483-.16 1.29c.32.322.32.806.32 1.128zm14.902-19.991s.32.323.961.645c.642.323 1.282.645 2.244.806h.961c.641-.16 1.122-.322 1.443-.483l.64-.323-.8-.806c-.481-.483-1.283-.806-2.084-.967h-.961c-.641.161-1.122.322-1.443.645-.8.322-.961.483-.961.483s.32-.322.48-.644c.321-.323.642-.807.802-1.29.16-.323.32-.645.32-.968.16-.806 0-1.773-.16-2.418-.16-.645-.48-1.129-.48-1.129s-.321.162-.642.484c-.32.323-.8.806-1.121 1.451-.16.323-.32.645-.32 1.129-.16.967 0 1.773.32 2.418.48.645.801.967.801.967zm-3.685 3.868s.48.323.961.484c.641.322 1.442.484 2.243.484.16 0 .481 0 .641-.162.16 0 .32-.16.481-.16l.962-.484c.32-.162.48-.323.64-.323l.16-.161s-.32-.323-.96-.645l-.962-.484c-.16 0-.32-.161-.641-.161h-.641c-.48 0-.801.161-1.122.323l-.961.483c-.481.323-.801.645-.801.806l.64-.967.481-.967c.16-.323.16-.807.16-1.129v-.645c0-.161 0-.484-.16-.645-.16-.322-.16-.806-.32-1.128-.32-.645-.641-.968-.641-.968l-.32.323c-.16.161-.321.483-.481.645a8 8 0 00-.481 1.128c0 .161-.16.484-.16.645v.645c0 .967.32 1.773.64 2.257.321.484.642.806.642.806zM8.493 20.96l.801.806s.48.161 1.122.322c.64.162 1.442.323 2.243.162.801-.162 1.442-.645 1.923-.968.16-.16.48-.322.48-.483l.161-.162s-.48-.322-.961-.483c-.641-.323-1.443-.484-2.244-.323-.48 0-.801.162-1.121.484-.32.161-.641.484-.802.645-.16.161-.48.483-.48.645-.16.161-.16.322-.16.322s.16-.161.16-.322c.16-.162.16-.484.32-.806.16-.323.16-.645.32-.968 0-.322.16-.806 0-1.29-.16-.967-.48-1.612-.8-2.257-.321-.645-.642-.967-.642-.967s-.16.161-.16.322c-.16.162-.32.484-.48.807-.321.644-.642 1.612-.481 2.418 0 .806.32 1.612.8 2.096zM30.126 6.771c.32.484.961 1.29 1.602 1.613l.962.483c.32.162.48.162.801.162h1.281s-.16-.484-.32-1.129c-.32-.645-.8-1.29-1.442-1.773-.32-.162-.64-.323-.961-.323-1.122-.322-2.244 0-2.404 0 .16 0 1.122-.322 2.083-1.128.32-.162.481-.484.801-.807.481-.644.802-1.612.962-2.257.16-.645.16-1.128.16-1.128s-.32 0-.801.161c-.16 0-.48.161-.801.322-.32.162-.641.323-.801.484-.32.161-.641.484-.802.806a4.428 4.428 0 00-.64 2.257v1.129s-.16.645.32 1.128zm-5.449.968l.641.967c.481.484 1.122 1.129 1.923 1.29.32.161.801.323 1.122.323h.961c.641 0 .962-.162.962-.162s-.16-.483-.48-.967c-.321-.484-.962-1.129-1.764-1.612a3.655 3.655 0 00-2.243-.161c-.641 0-1.122.322-1.122.322s.481-.161.962-.645c.48-.322 1.121-.967 1.442-1.773.48-.806.48-1.613.64-2.257 0-.645-.16-1.13-.16-1.13s-.48.162-1.121.485c-.32.16-.641.483-.962.806-.32.322-.64.645-.8 1.128-.482.806-.482 1.774-.321 2.419l.32.967zm-4.647 2.579l.801.806c.481.484 1.282.968 2.084 1.129.48.161.8.161 1.121.161.32 0 .641-.161.962-.161.64-.161.961-.322.961-.322l-.64-.968a5.76 5.76 0 00-1.924-1.29c-.32-.16-.801-.16-1.122-.16-.32 0-.8.16-.961.16-.801.323-1.122.645-1.282.645 0 0 .48-.322.962-.806.16-.161.48-.484.64-.806.16-.322.481-.645.481-1.129.32-.806.32-1.773.16-2.418-.16-.645-.32-1.128-.32-1.128s-.48.16-1.122.644c-.32.162-.64.484-.8.807-.321.322-.482.806-.642 1.128-.32.806-.16 1.774 0 2.418.48.807.641 1.29.641 1.29zm25.158-4.353c.16.645.32 1.451.802 2.257.16.323.48.484.64.806.16.162.481.323.642.484.16.161.48.322.64.322l.642.323s.16-.484.16-1.129-.16-1.45-.641-2.257c-.16-.322-.48-.483-.641-.806-.16-.161-.48-.322-.641-.484-.16-.16-.48-.16-.641-.322-.48-.161-.641-.161-.801-.161h1.602c.32 0 .48 0 .801-.161.32-.162.641-.162.962-.323.801-.484 1.442-.967 1.763-1.612l.64-.967s-.32-.162-.8-.162h-.802c-.32 0-.64 0-.961.162-.32 0-.641.16-1.122.322-.801.484-1.282 1.129-1.603 1.773-.32.645-.48 1.129-.48 1.129s-.32.161-.16.806zm-4.005 1.613c.32.322.64.483.961.806l.962.483.961.323V8.06c-.16-.645-.32-1.45-.962-2.096-.32-.322-.64-.483-.961-.806l-.961-.483c-.641-.162-1.122-.162-1.122-.162s.48 0 1.122-.16c.32 0 .64-.162.961-.323.32-.162.801-.323 1.122-.645.64-.484 1.122-1.29 1.442-1.774.32-.645.48-1.128.48-1.128h-1.281c-.801 0-1.603.322-2.404.806-.801.645-1.122 1.29-1.282 1.935-.16.644-.32 1.128-.32 1.128s0 .484.16 1.129.48 1.45 1.122 2.096zm-3.366-2.096c-.64-.484-1.442-.806-2.083-.806h-1.122s.481 0 1.122-.323c.641-.161 1.282-.484 1.923-1.128.64-.645.961-1.452 1.282-2.096.16-.645.32-1.129.32-1.129s-.48 0-1.282.161c-.32 0-.8.161-1.121.484a4.87 4.87 0 00-1.122.806c-.64.645-.961 1.451-.961 2.096-.16.645-.16 1.129-.16 1.129s.16.483.32 1.128c.32.645.64 1.29 1.282 1.935.32.322.64.483.961.645.32.16.641.16.962.322.64.161.961.161.961.161s0-.483-.16-1.128c0-.806-.48-1.612-1.122-2.257zM59.61 10.64s-.16.484-.48 1.13c-.16.644-.32 1.45-.32 2.256 0 .323.16.645.32.968.16.483.48.967.8 1.29.161.16.161.322.321.322l.16.161s.321-.322.642-.967c.32-.645.48-1.451.48-2.257 0-.323-.16-.645-.32-.968-.641-1.128-1.603-1.934-1.603-1.934.16 0 .962.645 2.244.967.32 0 .64.161 1.121.161.802 0 1.763-.322 2.244-.645.64-.322.961-.645.961-.645l-.16-.16c-.16-.162-.32-.162-.48-.323-.481-.323-.962-.645-1.603-.806-.32-.162-.801-.162-1.122-.162-.961 0-1.762.484-2.243.807-.641.483-.962.806-.962.806zM55.124 7.9s-.16.484-.32 1.129a3.72 3.72 0 00.16 2.257c.16.484.32.806.48 1.129.16.16.16.322.32.483.16.161.16.323.321.323.32.483.801.645.801.645s.16-.484.481-1.13c.16-.644.32-1.45.16-2.256a7.885 7.885 0 00-.48-1.129c-.16-.322-.481-.645-.641-.806-.802-.322-1.282-.484-1.282-.645 0 0 .48.323 1.121.484.32 0 .641.161 1.122.161h1.282c.801-.161 1.602-.645 2.083-.967l.801-.806s-.48-.323-1.121-.484c-.16 0-.32-.161-.481-.161-.16 0-.48-.162-.641-.162h-1.282c-.961.162-1.602.645-2.083 1.13-.641.483-.801.805-.801.805zm-4.968-1.935s-.16.484-.16 1.129 0 1.451.48 2.257c.161.323.321.645.642.967.16.323.48.484.64.645.481.323.802.484.802.484s.16-.484.32-1.129a3.72 3.72 0 00-.16-2.257c-.16-.322-.32-.645-.64-.967-.321-.322-.481-.484-.802-.645-.48-.322-.961-.484-1.122-.484 0 0 .481.162 1.122.162H52.4c.32 0 .801-.162 1.122-.162a5.76 5.76 0 001.922-1.29c.481-.483.641-.967.641-.967s-.48-.161-1.121-.322c-.32-.161-.802-.161-1.122-.161-.48 0-.801 0-1.282.16-.801.323-1.442.968-1.923 1.452a9.626 9.626 0 00-.48 1.128zm20.992 15.962c-.64.16-1.121.322-1.121.322l-.802.806c-.16.162-.48.484-.64.806-.16.323-.481.645-.481 1.129-.16.322-.16.645-.16.967 0 .645 0 1.129.16 1.451 0 .162.16.323.16.484v.161s.48-.161.961-.645c.32-.16.481-.483.802-.806.16-.322.48-.645.64-1.128.16-.323.16-.645.16-.968 0-.645-.16-1.128-.32-1.612-.16-.484-.32-.645-.32-.806 0 0 .16.322.48.645.321.322.642.806 1.122 1.128.32.162.641.484.962.484.48.161.801.323 1.282.323h1.121c.641 0 1.122-.162 1.122-.162l-.16-.161c0-.161-.16-.322-.32-.484-.321-.483-.642-.967-1.122-1.45-.32-.162-.641-.484-.962-.646-.48-.16-.801-.322-1.282-.322-.48.322-.961.322-1.282.484zm-2.884-4.514c-.641.16-.962.483-.962.483l-.8.806c-.321.484-.802 1.29-.962 2.096v1.129c0 .322.16.645.16.967l.32.968.802-.807c.48-.483.961-1.128 1.121-2.096.16-.806 0-1.612-.32-2.257-.16-.322-.32-.483-.32-.645-.16-.16-.16-.322-.16-.322.16.161 1.121 1.451 2.884 1.935.8.16 1.762.16 2.403 0 .641-.162 1.122-.323 1.122-.323s-.32-.483-.801-.967c-.32-.322-.48-.484-.962-.806-.32-.161-.8-.484-1.282-.484-.8-.161-1.762 0-2.243.323zm-3.686-4.031c-.641.322-.962.645-.962.645s-.32.322-.64.967l-.481.968c0 .16-.16.322-.16.644v.645c0 .484 0 .806.16 1.129.16.322.16.645.32.967.16.323.32.484.32.645l.161.161.801-.806c.32-.483.801-1.29.801-2.096v-.645c0-.16-.16-.322-.16-.483l-.48-.968a6.123 6.123 0 00-.802-.967l.962.645.961.484c.16 0 .32.16.641.16.16 0 .32.162.641.162.801.161 1.763-.161 2.404-.322.64-.162.961-.484.961-.484s-.16-.161-.16-.322l-.641-.645c-.32-.162-.64-.484-.961-.645a2.994 2.994 0 00-1.282-.323h-.641c-.16 0-.481 0-.641.162-.481 0-.802.16-1.122.322zM77.077 32.89c-.641-.645-1.602-.806-2.243-.806h-1.122s-.48.161-.962.484a5.014 5.014 0 00-1.762 1.45c-.481.646-.641 1.452-.802 1.936v.966s.481 0 1.122-.322l.962-.484c.32-.161.64-.484.961-.806.32-.323.48-.645.48-1.129.161-.322.161-.645.161-.967v-1.129s0 .161.16.323c0 .16.16.483.32.806l.481.967c.16.323.481.645.802.968.32.322.64.483 1.121.644.32.162.802.323 1.122.323a5.101 5.101 0 001.122.161v-.645c0-.161-.16-.322-.16-.483-.641-.807-.962-1.613-1.763-2.258zm-3.686-6.128c-.64 0-1.121.161-1.121.161s-.481.162-.962.645c-.48.323-1.122.968-1.442 1.774-.16.322-.32.806-.32 1.128 0 .323-.16.645-.16.968v.967s.48-.161.96-.484c.321-.16.642-.322.962-.645.32-.322.48-.645.801-.967.16-.322.32-.806.32-1.129v-1.128c0-.645-.16-1.129-.32-1.129 0 0 .16.484.481 1.129.16.322.32.645.641.806.32.322.48.645.962.806.32.161.8.484 1.121.484.32.161.802.161 1.122.161h1.122s0-.161-.16-.322c0-.162 0-.162-.16-.323 0-.161-.161-.322-.161-.484-.16-.322-.32-.644-.641-.967-.32-.322-.641-.645-.961-.806-.481-.484-1.282-.645-2.084-.645z" fill="#F5EFDB"/><path d="M40.32 38.694c2.078.12 3.71.85 4.898 2.193C46.407 42.23 47 43.811 47 45.631c0 1.641-.371 3.103-1.114 4.386-.712 1.253-1.722 2.238-3.028 2.954C41.552 53.657 40.052 54 38.36 54c-2.821 0-5.256-1.119-7.304-3.356l-.045-.09c0-.12.06-.209.178-.269.149-.089.253-.089.312 0a6.781 6.781 0 002.45 1.567c.98.358 1.93.537 2.85.537 2.019 0 3.489-.582 4.41-1.745.95-1.194 1.424-2.745 1.424-4.655 0-4.505-2.434-6.758-7.304-6.758-.119 0-.193-.089-.223-.268 0-.209.075-.313.223-.313 2.375 0 4.038-.522 4.988-1.567.98-1.044 1.47-2.52 1.47-4.43 0-1.88-.4-3.267-1.202-4.162-.802-.895-1.916-1.343-3.34-1.343-1.159 0-2.272.299-3.341.895-1.069.567-1.856 1.417-2.36 2.551 0 .03-.045.045-.134.045a.715.715 0 01-.312-.09c-.089-.06-.119-.104-.089-.134.653-1.67 1.692-2.983 3.118-3.938C35.554 25.492 37.187 25 39.028 25c2.049 0 3.711.582 4.988 1.745 1.306 1.164 1.96 2.656 1.96 4.476 0 1.61-.52 3.103-1.56 4.475-1.009 1.372-2.374 2.372-4.097 2.998z" fill="#AAA"/></svg>