<svg width="360" height="379" fill="none" xmlns="http://www.w3.org/2000/svg"><path opacity=".8" d="M211.35 379c-43.444 0-81.213-8.383-113.307-25.15-31.703-16.766-55.969-39.771-72.799-69.015C8.415 255.201 0 222.058 0 185.406c0-35.483 9.393-67.261 28.18-95.335 18.787-28.464 44.423-50.494 76.908-66.091C137.573 7.993 173.777 0 213.699 0c18.395 0 37.181 1.755 56.36 5.264 19.178 3.12 34.246 7.018 45.205 11.697 3.131 1.56 5.088 3.12 5.871 4.68.783 1.56 1.37 4.484 1.761 8.773l4.697 76.618c0 1.56-.979 2.535-2.936 2.925-1.957.39-3.326 0-4.109-1.17-13.699-29.634-31.703-52.639-54.012-69.015-22.309-16.767-48.141-25.15-77.495-25.15-37.965 0-67.515 13.452-88.65 40.356-21.135 26.515-31.702 62.777-31.702 108.787 0 40.162 7.045 75.644 21.135 106.448 14.09 30.803 33.268 54.588 57.534 71.355 24.658 16.766 52.446 25.15 83.366 25.15 14.09 0 24.853-1.95 32.29-5.849 7.436-4.289 12.524-11.113 15.264-20.471 3.131-9.748 4.696-23.785 4.696-42.111 0-19.106-1.761-32.948-5.283-41.526-3.523-8.578-9.981-14.232-19.374-16.962-9.393-2.729-24.462-4.094-45.206-4.094-2.348 0-3.522-1.559-3.522-4.679 0-1.17.196-2.144.587-2.924.783-1.17 1.566-1.755 2.348-1.755 32.486 1.95 59.492 2.925 81.018 2.925 20.352 0 41.487-.585 63.405-1.755 1.566 0 2.544 1.365 2.935 4.094.392 2.73-.195 4.094-1.761 4.094-6.262-.39-10.176 1.17-11.741 4.679-1.566 3.51-2.349 11.503-2.349 23.98v39.772c0 17.546.587 29.828 1.761 36.847 1.175 7.019 1.762 11.893 1.762 14.622 0 2.339-.392 3.899-1.174 4.679-.392.78-1.762 1.56-4.11 2.339C292.172 373.541 248.532 379 211.35 379z" fill="#FAFAFA"/></svg>